<mxfile host="app.diagrams.net" modified="2023-10-25T13:29:47.962Z" agent="Mozilla/5.0 (Windows NT 10.0; Win64; x64) AppleWebKit/537.36 (KHTML, like Gecko) Chrome/118.0.0.0 Safari/537.36 Edg/118.0.2088.61" etag="lzpruEoqK0K5D_QmFMwc" version="22.0.0" type="github">
  <diagram name="Page-1" id="HOvuosdeT9v5tkYRqVk3">
    <mxGraphModel dx="1442" dy="535" grid="0" gridSize="10" guides="1" tooltips="1" connect="1" arrows="1" fold="1" page="0" pageScale="1" pageWidth="827" pageHeight="1169" math="0" shadow="0">
      <root>
        <mxCell id="0" />
        <mxCell id="1" parent="0" />
        <mxCell id="2ciaOZCoj3dRZoLSagHL-5" style="edgeStyle=none;rounded=1;orthogonalLoop=1;jettySize=auto;html=1;entryX=1;entryY=0.5;entryDx=0;entryDy=0;fontSize=12;startSize=8;endSize=8;strokeWidth=2;" parent="1" source="2ciaOZCoj3dRZoLSagHL-4" target="2ciaOZCoj3dRZoLSagHL-2" edge="1">
          <mxGeometry relative="1" as="geometry" />
        </mxCell>
        <mxCell id="2ciaOZCoj3dRZoLSagHL-4" value="App" style="rounded=1;whiteSpace=wrap;html=1;fontSize=16;verticalAlign=top;fillColor=#d5e8d4;strokeColor=#82b366;" parent="1" vertex="1">
          <mxGeometry x="389" y="103" width="171" height="226" as="geometry" />
        </mxCell>
        <mxCell id="2ciaOZCoj3dRZoLSagHL-2" value="Product&amp;nbsp;" style="rounded=1;whiteSpace=wrap;html=1;fontSize=16;verticalAlign=top;fillColor=#dae8fc;strokeColor=#6c8ebf;strokeWidth=2;" parent="1" vertex="1">
          <mxGeometry x="48" y="47" width="199" height="338" as="geometry" />
        </mxCell>
        <mxCell id="XcDybMvGG41WEiG3jihm-2" value="" style="group" vertex="1" connectable="0" parent="1">
          <mxGeometry x="417" y="151" width="120" height="75" as="geometry" />
        </mxCell>
        <mxCell id="2ciaOZCoj3dRZoLSagHL-3" value="Developer" style="rounded=1;whiteSpace=wrap;html=1;fontSize=16;verticalAlign=top;" parent="XcDybMvGG41WEiG3jihm-2" vertex="1">
          <mxGeometry width="120" height="75" as="geometry" />
        </mxCell>
        <mxCell id="2ciaOZCoj3dRZoLSagHL-6" value="Api key" style="rounded=1;whiteSpace=wrap;html=1;fontSize=16;fillColor=#f8cecc;strokeColor=#b85450;" parent="XcDybMvGG41WEiG3jihm-2" vertex="1">
          <mxGeometry x="6.75" y="35" width="106.5" height="32" as="geometry" />
        </mxCell>
        <mxCell id="XcDybMvGG41WEiG3jihm-3" value="" style="group" vertex="1" connectable="0" parent="1">
          <mxGeometry x="419" y="237" width="120" height="75" as="geometry" />
        </mxCell>
        <mxCell id="XcDybMvGG41WEiG3jihm-4" value="Developer" style="rounded=1;whiteSpace=wrap;html=1;fontSize=16;verticalAlign=top;" vertex="1" parent="XcDybMvGG41WEiG3jihm-3">
          <mxGeometry width="120" height="75" as="geometry" />
        </mxCell>
        <mxCell id="XcDybMvGG41WEiG3jihm-5" value="Api key" style="rounded=1;whiteSpace=wrap;html=1;fontSize=16;fillColor=#f8cecc;strokeColor=#b85450;" vertex="1" parent="XcDybMvGG41WEiG3jihm-3">
          <mxGeometry x="6.75" y="35" width="106.5" height="32" as="geometry" />
        </mxCell>
        <mxCell id="XcDybMvGG41WEiG3jihm-9" value="" style="group;rounded=1;" vertex="1" connectable="0" parent="1">
          <mxGeometry x="77" y="80" width="133" height="133" as="geometry" />
        </mxCell>
        <mxCell id="2ciaOZCoj3dRZoLSagHL-1" value="Api proxy" style="rounded=1;whiteSpace=wrap;html=1;fontSize=16;arcSize=25;verticalAlign=top;" parent="XcDybMvGG41WEiG3jihm-9" vertex="1">
          <mxGeometry width="133" height="133" as="geometry" />
        </mxCell>
        <mxCell id="2ciaOZCoj3dRZoLSagHL-8" value="Policy" style="rounded=1;whiteSpace=wrap;html=1;fontSize=16;fillColor=#fff2cc;strokeColor=#d6b656;" parent="XcDybMvGG41WEiG3jihm-9" vertex="1">
          <mxGeometry x="6.5" y="40" width="120" height="32" as="geometry" />
        </mxCell>
        <mxCell id="XcDybMvGG41WEiG3jihm-1" value="Policy" style="rounded=1;whiteSpace=wrap;html=1;fontSize=16;fillColor=#fff2cc;strokeColor=#d6b656;" vertex="1" parent="XcDybMvGG41WEiG3jihm-9">
          <mxGeometry x="6.5" y="79" width="120" height="32" as="geometry" />
        </mxCell>
        <mxCell id="XcDybMvGG41WEiG3jihm-10" value="" style="group" vertex="1" connectable="0" parent="1">
          <mxGeometry x="77" y="231" width="133" height="133" as="geometry" />
        </mxCell>
        <mxCell id="XcDybMvGG41WEiG3jihm-6" value="Api proxy" style="rounded=1;whiteSpace=wrap;html=1;fontSize=16;arcSize=25;verticalAlign=top;" vertex="1" parent="XcDybMvGG41WEiG3jihm-10">
          <mxGeometry width="133" height="133" as="geometry" />
        </mxCell>
        <mxCell id="XcDybMvGG41WEiG3jihm-7" value="Policy" style="rounded=1;whiteSpace=wrap;html=1;fontSize=16;fillColor=#fff2cc;strokeColor=#d6b656;" vertex="1" parent="XcDybMvGG41WEiG3jihm-10">
          <mxGeometry x="6.5" y="40" width="120" height="32" as="geometry" />
        </mxCell>
        <mxCell id="XcDybMvGG41WEiG3jihm-8" value="Policy" style="rounded=1;whiteSpace=wrap;html=1;fontSize=16;fillColor=#fff2cc;strokeColor=#d6b656;" vertex="1" parent="XcDybMvGG41WEiG3jihm-10">
          <mxGeometry x="6.5" y="79" width="120" height="32" as="geometry" />
        </mxCell>
        <mxCell id="XcDybMvGG41WEiG3jihm-12" value="- Quota&lt;br&gt;- ApiKey&lt;br&gt;- AssignMessage" style="shape=note;whiteSpace=wrap;html=1;backgroundOutline=1;darkOpacity=0.05;align=left;verticalAlign=top;" vertex="1" parent="1">
          <mxGeometry x="67" y="462" width="137" height="227" as="geometry" />
        </mxCell>
        <mxCell id="XcDybMvGG41WEiG3jihm-13" style="edgeStyle=orthogonalEdgeStyle;rounded=0;orthogonalLoop=1;jettySize=auto;html=1;entryX=0;entryY=0.5;entryDx=0;entryDy=0;entryPerimeter=0;curved=1;exitX=0;exitY=0.25;exitDx=0;exitDy=0;dashed=1;" edge="1" parent="1" source="XcDybMvGG41WEiG3jihm-8" target="XcDybMvGG41WEiG3jihm-12">
          <mxGeometry relative="1" as="geometry">
            <Array as="points">
              <mxPoint x="-14" y="318" />
              <mxPoint x="-14" y="575" />
            </Array>
          </mxGeometry>
        </mxCell>
        <mxCell id="XcDybMvGG41WEiG3jihm-14" value="- API Proxy&lt;br&gt;- Authorization&lt;br&gt;- Tracing&lt;br&gt;- Sizing/Quota&lt;br&gt;- Developer Portal" style="rounded=1;whiteSpace=wrap;html=1;align=left;" vertex="1" parent="1">
          <mxGeometry x="-260" y="63" width="120" height="103" as="geometry" />
        </mxCell>
        <mxCell id="XcDybMvGG41WEiG3jihm-15" value="" style="shape=image;verticalLabelPosition=bottom;labelBackgroundColor=default;verticalAlign=top;aspect=fixed;imageAspect=0;image=data:image/png,iVBORw0KGgoAAAANSUhEUgAAA2IAAAHRCAYAAAAIbgpgAAAAAXNSR0IArs4c6QAAAARnQU1BAACxjwv8YQUAAAAJcEhZcwAADsMAAA7DAcdvqGQAAP+lSURBVHhe7J0FgBVVF8f/r98W3SjY3d1BqxiIYmB3+9ndYmJ3AioKgtgiSNjd3YV0s/X6fed/593d2cfbgmVZlvODuzNv5s6dOzNnzj3n1njSAhRFURRFURRFUZRGw5tZKoqiKIqiKIqiKI2EOmKKoiiKoiiKoiiNjDpiiqIoiqIoiqIojYw6YoqiKIqiKIqiKI2MOmKKoiiKoiiKoiiNjDpiiqIoiqIoiqIojYw6YoqiKIqiKIqiKI2MOmKKoiiKoiiKoiiNjDpiiqIoiqIoiqIojYw6YoqiKIqiKIqiKI2MOmKKoiiKoiiKoiiNjDpiiqIoiqIoiqIojYwnLWTWVxGY3ZQEj/lVFe6jb5lrn6Wm45eXupxfURRFURRFUZTVnVW0Raw6R6euDtCKcpTUAVMURVEURVEUpXaaYItYXEJSQnVODbNbU5bluLSEXIfzME9txy8Lfgk+Z9WcuLq8K4qiKIqiKIqi0C1pQo4YM5LIhJqoKcON7QLxfCGzpPNItGuioiiKoiiKoig1s9IdMZ7cI3/TSIkD5sNznwBPvBVF0GcdG4njymJa/JyUhOoy7TH/6AzlikEHiePDGuaSU3KeglQUJ+8AHNSjyFyFx7SOKYqiKIqiKIqiVM9Kd8ToFtExYotSQpyYZ99LYez7pUgnysweUsURoxNVjSPmuFni1nkaxxFjrsOpBAbtlMTgXp3lZgZX2VF3iqIoiqIoiqI0Hk2ma2JaHLE0fEgmgAAbldy5sj39GiqnTG950rL5IZIOXTuvTdO9T1EURVEURVEUJQcr3xHLnD3tYfuS48XEE+Xw+4NmndjtpjWsIuTGiVuTN1Tz8XXDps90As5qBm6p6eyKoiiKoiiKoihNarIOh1XNlbG3j3lWN0xRFEVRFEVRlNppgo6YoiiKoiiKoihK80anllAURVEURVEURWlk1BFTFEVRFEVRFEVpZNQRUxRFURRFURRFaWTUEVMURVEURVEURWlk1BFTFEVRFEVRFEVpZNQRUxRFURRFURRFaWTUEVMURVEURVEURWlk1BFTFEVRFEVRFEVpZNQRUxRFURRFURRFaWTUEVMURVEURVEURWlk1BFTFEVRFEVRFEVpZNQRUxRFURRFURRFaWTUEVMURVEURVEURWlk1BFTFEVRFEVRFEVpZNQRUxRFUZQ6kZaQlJDKLPlbURRFUZYNdcQURVEUpc54spaKoiiKsmyoI6YoiqIoiqIoitLIqCPWwKTT2lVFURRlWWnaOtQjGZRik8EUn9oqpiiKoiw7q7wj1lQKbXXA6g7vVSqVMqG+8C7zqFxBn4CirPpYXcplk9OrzA59L+ouVTiKoijKcuKRgm6VLU4WLVpkCupYLIa2bdvC7/dn9jQuL7zwAj7++GNcf/31CIVC8Hq1obEmZs2aZZb5+flo0aKFWa8LS5YsQSKZQiQay2ypij/gR9vWreHz1lxLTQdw4cKFKC8vN3KTl5eX2aMoSlOA72c8HjfrHTp0MMuVBcsYj6dSp4x8+jlMnzEdXbt0Rf8D9hMdVlRlv6IoiqLUlVXSEaMhTWenR48eZj0YDGKTTTbG3Xffk4nReDz66KN46qmnTD7ohL355ptmqSwNDau+ffua9WQyKc8tgDfeGI9AIGC21cagQYMwc9Zskdrcji6NoXQqiZA4ZGeeeSYGHHxwZk9VIpEI9ttvP5OH888/HwcccEBmj6KsfmQ7Gk2Bnj17VrSGTZkyxSxXFrbl/sADD8CixcXwssIv0zImBSimTJ6klW+KoijKMrFKlh4sA1999TUxHrwIiBNWVlaOr7/+Rgz9BBIJTinceLz11lvGESwoKDCOhi20laXxiLFC4yqeSJjnFovFEa2mdSsXdKB8Ph/8WcHn9xlDyBqUPjGU7rv/AfTu0ydzZFWS8oyYF8qK1mQr9YcaqLqwajJnzhzMnj3bhKYA32XriNllQzN//gLMkuudO3cuUnIOG7KhbunTt6+UM5FMZY+TN7tUFEVRlGVllXPEWOyxYHzokUexqLgEkWgcHp8faY8PP/3yK/xilDcWdLqGDh0qBn3C/G7Tpk0durnxCux3aLJD8/suDa/GXt1V11yHWFKMHRG7SEyc5rQHl15xhYkTjUblb+0Yt0mMn6lTJlWGyZPw9tTJGDt2LE46+RSTdrk4eXE5V6/eVZ0xJz/itEnw+gNGdpTmxIp+v3h8bWFlwvPX7/rZMnzYYYfh8MMPN+9QU6DhKrTs/XCunb/s3Tj4kENx+JFHYeChhzkOlmgXBrvfhlffeBNJ0VXReAKFRS0wadIkvPv2FEyeNAGPP/aotoYpiqIoy8wqWYIkxMBeuGghWrYoMgaEbQ25+JJLzBiixoLn7dKlCyZPnoyJEyfilVdeqaMBUV0rTPNunfng/ffNMpyfh/zCAtOS9d2335qrrm93zkRCHDqxrfi4U2JdMbRv3xZHH3WkMZTyxSFOiYHJ8YNvvP565igH911u3nd8dWVFvl9Mg2qzutAUJGrZrp+6y1YqNQUarkWM1730tft8fF7pWivvHnrwQcmD0x2ejqrV8QF/AOuvv75ZVxRFUZRlgSXRKsfV11xjCkF2LTvttNOw1VZbGYObkzn4TeHaeDjjmzwVXdy0q1tufvzxZ7OkMXPdddfh+uuuh1fuFY2ar7/9xhhb9TG4fD655/Ko7e22S6bAfZPfmlCR3m23326WZLltulUcXj7NyOrCan57ar0/tYVV8v5VqKzV6+mza3sqSeeTrWWODsmlvhcvXmy6IbLlkPo+GPQ32We9WsqvoijKKswq6Yh9+MEHUmB6KiZ5GDJkiBmj5RMj/9HHHjfbGhN2c6ssyJYuyW3h6BRy3M/bXl3IYQmsYNyF94oqiK+++mrzzOgc7brjDthmm20quiNecvElZntdnVgnbqXhZIJsZyBcsltiQWGhSXN1nxWxMZ5vQ0OH2bR0ynpt+bbX58Th01/6vUqn7XYrJZXY41fW/WnY8+e+/sqw9PV75N5wq7NknObI0tedTCUrWreW3lsJx6VS53DJSp6mxsqWX0VRFGXZWeVmTfz+hx/NOKD8/Dxcdtnl6Nlzb2M67LFXD1NY5oVDmDjhzYyxvnShyYsd/fxYPPbYY6YbDscWMdann3+Jyy+/HIlkAslE0rTcsAa0oLAAo54bhZYti4xx6C6HmRZDz159kZZScNvttsUdt91k9hG7n4fQqLzq6uvxwXvvysaE/HYMADqPu++xB6699lqz3qt37wqjYPz48Tmn5OeRQ4bcbLpDcmIKdsEj4XAeipcswtNPjUD37t3N9dc0pT/zNHbci3j0kcfkl8dxjNjfT/KXZ+7vZdhrr73MveT9WBZ4/ew+uPfee5v8rLVWdwwbNszcyzPOOAM///STue7Jk+Q5yClyPLIKOLthcXGJOfbtt3PPpMbzMZBzzz0P3337jWxISfy3zTZec1l5BAceeKCZXOWSiy/CfvvuY/bVhVtvH4rxb04w93zS5Mnwi0A8LPfv+eefN9eXkDSN8yf3b/iw4ejcsX3mSODvf//D8Sccj3gsLvlIm4lGWJnQunVrM/NmOBwUw1DM5Ry3+l859uyzzzatvpRL+zx4PNefHPYkOnfqDL/rWHsvDjvsSMyaNVuMSD/enjLB7Lv7vgdMV1o+c7ZMMs+Un4EHH4STTjjBdBvNBT8d8MGHH5lWTRqx1kjl8ZwApUunjnjyicclrXDmiKrYPPE6nxs1Co88/LA5lnLMe8dPEHC68meeGWni33zzzZg6dYooKpjxgG5sWhSZF158DQ888IBcC5CIlUu+vCZ/TPvsc84xssP77cYev88++yMSieL000/HoYcOwIKFS3DwgAEmDieVMfpA0htw0EEis6eZexwToQ7KtgsuvgTfmImCnIl6OMqIn08477zz6jQb54RJU3DbrbfJM2VO2OU2jlCIrf0JnHzKKThs0KHwivzy/hCbZ9JvH5FbcZ4OOID5OsVs23//AVi4aL7pGWCdDD7L0aNGm/vKlh37eYe99+5pWoTy5FmVlpaIrgjCKyEqeeA5wqEg+vTuiUsuusDErw2+40lJf401u+HZZ54y2y6+9HJ88cUX5v7wGpJyXZQXznh78cUXi5yE5BmZqAa7uqfoc16p07o9UWScezi202P0CTs+XHX1tXjnnXdMunzO8VisQpZOPvlkHH7YoCr6muy5194mDcIuiUlJzN4n5ssujTxnAt83Pg/GKyoqNHEIW9I4ViwX9z/4MJ597jmjJ6iD+Y56Rf68cu7TTj1F5OwQSdvpYu33V2aSOejRq7fJA+Xu3Xemmu2DDj8Cc2bPkXckgZDI5H777ovzLzzPid+zt7mvvO7Jk94y13ziKafi999+N/qhPBIxsr/GGmtg2PDh5n3n/eOYN+qAB+5/wJzPXj/ZZZddcOvNQ0z6lGmn1CFUMFk3VVEURVlmXGbbqgGdpbz8fCnEvMZJyJShGDx4sBhxAVPgFxcXm2V1sMBiweqRwp2TfRx7/Im48MILjVHKgs4UxLKPhWckY7RffvmVpuCMyf5smFZMjBcW2pVFWSWz5iwSR7E3Pvn0c3j8AQRCefAFggjKkhNHvP3Oe+jVpx/KIjFjLLPgdxvbbhYvKRbHrw8mT5lsftN4tYZDXPJAB+DEE080hggNAHfhmg2niH7wgYeM8bSktEyu2TFUg6GQ6ep5zTXXYF8p8JeXEeJkEOZl6NA7ZOkYUkNuGmK2k8cff1yeWcOOT/nt99/l2cTNfazpPtQHOo1lpaVmnQZNv377ihM2Wn6lzbMw2+XiyuR+Hnvssfjgo0+QEBm99/4HcdzxxxknjDAd5on3ed78eeIM7GNkmbKUzZlnno1jjjkGCxYsMMYgr8fKCGv1k8kEjj76aDFMr875jTUagB6RhaRIG1+XPXv1w4svv2paDWl4eySk5H3iuzBq1BgMGnSYc2AOBhw8ADfceIPJO/PB/DIfJFJejhkzZhgHhOP0srHPgE4Hr/fhhx4yvwPifDkmKOU5gQXzF6CXyOa3330r9465lr3y7rGOIBd99zkQ99x3v9iHct/FofL4xHmSA3yBENJePx586BH0lec0a84844hnw3GlfB/pC73y+gQcdvjhRkB53rjcW784RjF5ts+/MBb77X8AyuJJMW6j2Lt3X3zy2WfiuIjOkHvhyTh6XnmPHnzwQeNE1sR+/fvjpiE3yZXL8xTjNiaGt0+eBd8D3qvHHn3U3Afqq1xQdspFP3k8PkyZ/D7673ewcSi98pvb/HL9XPK+HXLIIIwfTye80oj2i67xijMSScZRGosiKRZ8eSqBOHUJdaPkJyDOOe9DXaAOomNOPbRwsegpuT/8viLHVxmHJiPbvLb33nvXyMDcufMy28xiacx25rlSF06eMgV77Ll3hYwxXevgUSbp/FC2+vVbuoKF709FkPhWR1IGWQlggmzjdTDPFm7jdw8Jj6MTxuOys71w0WJTKThmzBijH+gIMU2+I2lz3iQekrz1EmcrFkuYOLmgE8Y8zp0n74Lcx/nz5plZY0PiHEci5WamXgsr9TzyHFkRMld0RI++/fDbH3/AFwwYp1pOIvLpwT//TRMnryfi1Bly3CGDBoleul/WxeGVuJR5D+VezvvRRx+h3377mTvP63SeQe68KoqiKMvOKueI0cli4dWxY0cxJOgsOdtPPflEs52G4aWXXlqlEK0O1g6zy9wfUmgx/rrrrmtaJvjdGrZmbLbZZk7hLoXTx598LOlejqAxGqviDPpeGpZf0WgCRx55hCnI6RQwV2xpmixGxOuvv46zzjrLTFRBQ4KGCZ1BU8BLyL4GOgD777+/MfhpsLZu0xq33XZbxUQhR4gByQKcx/355x/GOK/uPvTr18+cg3niPbvm6msw8a0JeOfdqbjg/PPNccwzC/9evXoZo29Z4NlHDB9u1mk8dGjXxrQocMKVgvwCs52Me3Gc/K39mdUFPg0a+2w9SskztveUVHM76gwdn/wCVgR4zHfNikuKTavCXXfdbVowhw0fhlYtW5pnyg9GX3HlFcZppmHGeNtvvz1efvllI2M01Nly5BPDnYYaHf5wsFK+eB0nnXQKvv7mayODZODAg815PnjvHfPMe+zdA6Xi9JGPPvrQtMxlw+dLA5DjKvfYq5fIfRJhyd9tt94qBvxEjJW89ezR08Shg0jH8L777jUGmZs+fXobB9NO280WzfckH2xtZAtzh44dzH1hJciNN95opkS3950YmZYl5YlyxT28n8cddzzGvzHeGNaUZ1sBcc7Z51SkkWuqcKbF1ugSeQZ89yn7V1x+Od56ayLemToZV155pbkepkf55cQ+vBfZmPQlzJg+HXffdZeRl8PEGeV9Zr4Ok+fM9Nkqt3jxEjw14hnjgNOQDvhDuP66GzDprbfw/Oix2G67HY0Rz+vjpy2qe2/Y4mbuQebc55x9tnmPXxBnj62Ntts1u9Uybva1E+aJzhSN9Ouuv87I4k477oRXX31V3uWJuPPOO0xrK1v5eQ+G3HRTRX6YHFvKzDOWe1tUUIgkKxJERj3ym0vKSUqOrc8rw3yy8uqggw4yz5bpH3PMsUZWOakRK3foyFhnk459gjUVGao/F6/fg2+//Q5DRLZ4PeG8sGn55zvHe/e+yOI555xj3ilec0Leqf0PONAczXxQLtmFne9mQBwPvo+8H8Z5k7zw+VLOSK77TdlhCxorAekcu50hwmnwB8izYpo8nvlg+cJZXZm3Sy65xDxX6m7Su3dv47Rmw2P5HjEMHDjQyCNbtXbaaSfz/cNu3bqbbRbKAQO3DTr0UHP/15OyjD05pojuufWWW0wrmo237z77mneuRMpSnmvwkYPx5vg3MXHCBJxw/AlGfk1LmuivJ5580pyDukFRFEVpeFapronDR4zAo48+blrERo4ciQ4d2mX2sKCAKQRN4ZJKYMrUqabQyYYXO+7Fl3HPPfeYgo6XzxrbUaNGoX379gjSOJE4PJJxFy8uxiGHHFJRYA8b9gTWWWst2ePsZ2DXkFg8iV123hm33zqkwpgw+3r0Nk4HC18aroccMhB5YZ/ZZ2pExcBmN6LjTzjJOIQFcm2RcqfFZapcA/NoMR+wlgNZG8+ujDSMiTcThfvYLWXfffeT/MSMoUFjf8cdd3AiZBgo17Ng/ny5SK/kvRcuFcdQVuF2MWnEXHzRRfjs88+NMctvctHIrS+lZeXYT5xHwpaSM08/Q4wCcUols37J+MMPPYIxY8eKkRPH2LEvmJkPq6M+XRN79+5jjD12w7ru2muwxx57VOwvLYtIWuLQiuFe366Jtw+9A6+LgW7ZeKONRZbuNrLB66FNSZmiE8DWABqA3Mfn8dijj2HjjTcyz4j54GNjKyidYnaTohH4ljgjEt3A65w3b75p7aXx+MILL8g+jxj/jvxwP0N5eZkYvo4ByOt9e6pzb0wcCYcdfiRmz5lrtvFZ7rXHnuJ4O8+SNiHrFrgsLikx3bli0XJJK4oPP/zQxLGw++jQO+7EWuusgwcfuM9si8s95DvD81D+fvzhB5x15hnGmKMh+sYbb5h4hPfizLPOxg8//mTWWdFx//33G8ecx1tJ5/rwEU9LGF5xDV75M+WtSWIA21jipJ58Cn77/U95t5LYeeddcfvtN1a8t8wL7w0rOK6/4QbRB1OM07LLzjuJYeq0VDEeQ+9ebPV10k2nk+KAvSGGqDhwmVPx3vCZsCsf4ydNC4/XdPUb+/xz5nnyfIzP5fjXX8ett91iKgO232F749xRJuy7zIoYtjiwJXrd9TbAsCcfQ1zkhrvt5XEx5OZbxXmZJA5SDBtvsolp5eH5CZc9TRc2xmX3UODpp5/Gml2drrBs3WO+4qIDOLnRhx98aJz9PXbfHTcNYYumxJF9frn5qURa7oE46LLtoIMOxjnnnWn0qZXDunLiiSfjjz//NHmjIc/78/TTTms4n3fAVWF18y234fU3Xje9GKin3pH3mdfMY0lF10S5qay04jtEuH/AwQOxaOEi49y1KHIqc7idLZs8B6/98MOPwMyZM1EojtcjDz2I7mt1N/F4z23XTFZKmAk7xMmYPHmiccT4jLxyTzKPwaS7yy67VThdfB52Qig+a95jy5577ml6FVB30pmmzmG++eypGwidzkceEZ03Zow5F9/ZDz54z+wjPF+PHnwWzjfNuNxg/fXxyKOPVKQRjTrdVxmXYa8ePU1aPK9frud6Ofeee+yGqJQvhPqWeWULIVt4E/Is6GyzhY6VH2wNpOyx0or3huUf9adpaZMzTJH33sGWjK6LVhRFUZaLeha1jQ8LGsIi4OlnnkUwHDI1k23bVjXYWU6ff/75pvCiMfzeBx+Z7fJzKaxBxEKOTtgzzzyFrp07GWOY5zH7MkuODTOtGVJoMf5JJ51klqSySLKdi6rWGn74vuSBhZk4hnvtsTuOPmoQwkGn+xKPYwFpC/XhTz5uzlFWXm6+r5WSUJk68P6HH5vrYoFKh4S1qTQCTAEq22x+mf9XxRCkgc9cXXzRJc6ODIuXlGDm7Lmm21abtu3EKLzUGJA0QngsA9OiIX3zbUPFsPCbbl6TprxtvgFGQ6Y27P0hrAVmSwWdjDPPPEvSpfObqjBgTjv9VDkHZyRL4IorLjPPtiaYcloummP6Pvviawnf4PMvvzPhm+9+wq2332kMoFiMrQ0JtG7dssIJI5nTGiO0vrivy3L3XXcaR8QaSXQqeI033zzEGL6UNbaY7inOz2abbFRxfrukPFx/7dViDMflaaXwPscQumjXri0mTHgTr736spmtjU6YfQR89pR7dpm64IILKuT6r7/+Mkv+Mlsk3x6558l4FHnBQIUTRmwDL5dtWhXKe9BRfrGrlhh6chyNM0vPXj3x+muv44F778ukK8eJnBD+5jPdbLNNsfGmm5quUAuXLBZ5cd4bBj7b77/9FmmRh/xQGA8/mHHCzEN1lnb9uKOPxlZbbOnITuZ4NxGRb46B4XW1adUCQzNOGLF5Ydq8Z0NuuA4tWrQw9+eLL74U2XDeU8bj2+cROWGIlJfgjqG3yXspW13XzefikfOv1X1NMVRlg7zPPnlhxo1xnDATx7Xcr/9+cv+C8AfD+Orr76q8M1z/6NPPJYMBhMJ5eOKJx8ypmFcmbWPSmeC7k5eXL2f34qeffzXbeRsyp5I48t7wuUrezz77DHTu3L7ieOaZ0DEZcuMN8o453Qbff/89uXflkk5SfjvpmfdeEk1LBtJe57iMKNWLaf9OMwnyXqXkWXOcGO8P8+J2wshll16MTTbeUM5DGYubSgtSeVqriTIZy8D9Lzw/GiMl7WDAkT3C7TwHj+AzGD36OdPqtWjRIlx77fXi7JmsSd5MdIPR2qLbuGSrNO+HV3QR82+uQ+KYIAlSdhhYuWe322fPJPmNRD4n9iK45KIL0XPvvYxOcOQwE1GgLjjjjNNNt3q2YNHBGzt2nMkbsWkz+ORchfkiI48/WiUNyjTfBxsvLbqMFRVpuecbbbi+ccIIyxf24GDaPPxKVqTZEwnDhw0zcUzSsp1Llp+ka9fOFT0v2JLozCzJ58DIiqIoSkNRtXRsorBILi+PmtpDFl7snmeNTgt/7bnn7saA5D7WCsZYzVwN1rhr1aoV1lhjTXOO6mglhh67wBDW3uZ2FpiDqnniWBrCVq+bbr5BjpOz1FCOPfHEE2asmdgGpnC3sGxklx57zZdd5swySGNN7Fyzn4HY5fbbbSfrzlgItrxxUDi5++67xejwmvvIVkX3fbTHWoJiHXLSAUJz5ddffjHr9eH77783xjgNFNM1xoxDq3oT2FLB/b///rtZ1gaviWP66Hw44UJxwi80k3Pwm2E0bjguqlXr1njuuVGZoxoejsXLlV97dRwbwmfPWvebb7rRPC9rT1U6Fh5jlDmrHvzwww85RYTGun1ZXY+sgn79+phnyfDBBx+Yd6WCTHyOP7zl1ptNK1Hl+SvhtsMOrxwfNm3aNHleS5+MXc54eK58EFaIxDJGJo1+C8fGsEsX7wtbu4hNZ6kgF3uXOLm5Jv3gMWzR5rtIRj47UtaXvh4L91x15VVmnUbll19+UfE+ENEE8k+cBTHst9xiC2O0e62VLTjGqQe9erIFxSMOVNhMZsAYdKz4nlXCuE43OG5nBQPvIY+j3LJSh/efRu6TTz5pWm3N9cpRXBKmwNtO5+zWW291tkkeOK4vx+MQ0hg44ADjlFfiRHRy7sA02ELDLqp8DymXFrc8cLUiL5Wb6wTT53NhF+9KcmYajzzyqFkyL2xBInU5Hd/trl275pQNQrGg40AngnHY04Ayy2tyP1fnbE6w11tdXquDR/MIth6zqyefc//+/c0+N7Yij+dhuPbaqyu6ZnM8YRURysBjWCa4nw3hObKhjPL9dsbg5r6Le0j5aCcnYZx11llb1p1ykGky2F4kbKV3U9u31hRFUZRlo0rR3VSJiwPzv/+dawp5Gu0cV5XtDNmiZ7311jNLFrzsdpOjzKqABRCnvs9VsBHuZ5km5Zbp4mfjcayDGzt+xRRomW2E49m4zamNd2pDc52KeWfYYIP1jPFqsXHZKuAYds5Vzpw5C/PmzcPs2XPMGBoGrtvAAfC77b6bKXCZ519+/kXuhZPYWxPfMtsYZs2aZeJyWRnmYNbsuZgpyxlynm233dYcRziuyU7MUBP2PtE4YR4Ix+0FxAiy1+SG+ywcV1Mb7M7kODh07Jx7ymAdT850R8Pu1ZdeXspR4h3kcfZe1gd73yyDjzwis1aJO1UapAxsiSAmj2atKswLr4Myba7LbHP2EdqONMDfeHMijjr6WPTu3Rd77rm3OHA9cPrpZ+Krr742Msqaez4fjo1jhUQ2dIK22Hxzs3Rfh4XbOnfunPnlOC1umCdruz/55DAMGDDQTDrALnvMy3XX3WDkr1PnTsgXI5PvxaLFiyvuG7sp8hrpCHTp0qnKNeaC18xuY/Z4C1cnTJhgrpcwnwsWLhRZnl8lzJu3wCxnz5ln9AJlg3HZpc09U52F4055fQw2b+aaZQO3de7S2TxLvo+Hczym2cd0stPymBZ7ow9kv02Lz5jdB/mO0xnlfn6jara8b3znuLTBvIMSmA7HO3EsEbvyueHxDObj5fI7d06c4P5gOp+/PZbZp/HNdYu5pAzu9bpSWFQojlKXzC+mUX0izBfPzfFIpC6ns+n9+OOPpiKGvQNYmcFZGznRzLhx40wrtf1sBR0kOtm1YZ6zpG1DXaAjw0lvbPxDDz20Yt0unfu8dJobbbxRxXMx9VMZ7LOhrHURmctFdlr2HIWFleNuCaNlRTXxtthyC7PdVhJYKAVMq0MHtow78Ld7qSiKojQcq4Qjxtrjv/7626w7harfdKlwwzKCxuiNmVYoGoH33nu/GE2OI5ALFizsSlUbYj+h+5pdM78ghu9XmbWaocHFc+y4w44mf9kFYjZ8GGytysbWtFo4CQcniqAxmCtw3333OmN4yE8//5RZc1ppmBYDZ/Wj4XDkkYMrAo/nNk5scMQRR0o4wsRljStbt6xTUR2mIJfAu37jTbfAK0Y374Nt9eFV2PNbnNkvU2bygptuuskY69aBywVnRZsw/k0zXmPSpIkSJuDtqRPwztSJeO/dqXjt1Vex265O95xc93NZ4bN0GyM1pcyrs61SbH2sPGppeC9MiyGdsXjCGPjEnmrU82PRu08/3HHHHfjvv/9Murw/PI7PhI5s3759jdNHsu8vodNSteVmaXhtNT1fJnnRRRejT58+GDF8hJnFkY4f88JzT5k8BUcOHowBBw0w18yWCzpdFjpBdBDpWJSXVU42UB3yCmOrrbfO/KqE98V9jRzDSXml3NtAGeZ2Lu02dlWj4cuKCddjrGCt7muZa7Q458n8EPiMeO95n7p0cRwN+oLZ91qUTmbFwS0zvC+8D3TmOPbvoAEHVcl3rsBuc6yAYsuOHffjprPkheOGeJYcl1UhT/Uh1/2pK5Th7FtSHRxXS/1G2Xffp5qgc9+7X1+cfe65Rv4pfzyWgZVSHIPFKeDNONmMbNZGXfOb/azpyHz99dfmudKRY28NNzZfueCYLcqBU3lSktlaSV3vB3Hnayl5FJiU09LrTF7TpnWbzJ6l4fFBzqKYwd5fRVEUpeFpOCt1BcIJI2yNKR2svffuYQZzsxbeBm7jdOwDB/L7LE4N7+jRo6SQr/4SaVjVVP4yHVumsSi3YwUWLVpYp4KJRhsNW36LjOnwkOzDmDxzaPPBQdTs708qDChzrDNuh9R1mnfmlQUvYVcsFsS2ULWtCfZe2UBYUHM7Yf5NHNb8igFpB7rXBs9aUlJmjDIG1lbvvufe2GPPvYzjZWqwM4HrPId1XHl+hpwwj2JYmfF1EoXB9DbK3CuuctySv7rjXfBcvB91xcSvxZkhzAqDlRc31d09x5CrbJngYby266+/wXwfq7Ss1MgTW6w4dojbOCEIxwvyXvHZ2GedCz4/klnUCZsXjscihwwcZCoheD4az/woN53Ae8Xpv+rqq8x39Nivlk4BbytvlT2WOLfaabXLy3e+H5V1e6pAUaMDkgt3yyydPeu8u41G/jVB0uEYKE5mwP3Zz6Q66hhtaeQ5MA88j/tc7JLI50y4nfeR11f5zG0Lr3OcDXYb42VXQFmoyzLJVIGb6vjKVkFOt8xQ39UFnqJly1bmuuw9sGOUckH9NXPWbBxw0IFmZkBTISGJ0Plnl+tbbrkFp512mmkRZzr2ntUVe7/rS0kJJxByZmdl7wc33F5dmm3atK6QB7tcHlg+uMd0ZsNWXbOU/FCmLO77T5jbmp6DoiiK0nDUbq2uRJwCAqabWXYXs7pAw3769BmZX1VhYVQfI9zCPLHbVV1wCsaUacVwj0mpDl5rJEeBzIfEdGhsszWCXQTrHCZPwaBBh8j9EyNDErKFLo1XTm3Mj+XWHhhvMoY9wQ8/1wyvknd16D0PmW+m8ftMAXl2bIljl0I6djYPdA5M4IXz2Mz222+/3fyuliy7hnbOMthPKxy2ZCwPkVjCfG+JLUhFhUV4443X8dRTI7Dfvv3MjIO9eu6Niy66wHT549gj3kt7f3PB/ctilPPbRZ9++gXmzptrHCCvCBJlh1PN9+ndB5tssjF69+6JO+8ciokTJ+CGG27ImQ8af9zGLmM0qmuD78zs2bMzvyrhs3YbkhMmvompU6ZWBpFZzqrJmfj4wd335Pe7mcBtY8by49uZg6uhtv28vurJrVbZJdCd70mT3jIf7H333bfxjiyZZ+ddy37/nOvhNOjV2dm1ORB89nVxMvhslxd2t6wrnPLdUlv++Drxe3p0EuLpJC674nLzeYETTjgBW2+9tZnenS2j419/VfSe3Kskx/0t3UW3vrjH0uXKIs9BueZHk9lK7Kama2LrHb/7yDgsq7Kpy/NaEaycsyqKoqyeLH+p2wiwkKMByG/ijB492nwriUtOOc/w7HPPmTDy2WdNeOaZZ0ztNwsyfseFDkw21kj88KOPTcFTXeHDaAzfffeDMWYIZ+GrSyHJODzPF198YRyh2mCSbsPBfQpngoQ0Pv/8c5Ou07ffiUPbrtrgshc5oYGtXTetdTw2k4ZJJyvY7W6qMwQdnJ2M8+K4cYizG5c4kPyg81MjnjLfE+Mgfk4SwjBm7BgT+DwZrKHO7zfVRF3u/YrA3HeXUcartXKUC8a3LY/LAu8NJx3IC4dxwYUXoKAgX5xa54Haxi+mztvRMTPtPx0EjqtalkqGmuA3x+zz4TgnnpPjbng7zNT7mdvAGSPZKmDP774/LVu2NL/ZBbUuNe6cWIHd8XiME9ja5byP7nSZF9MCInmxj8fEkSVzQZ+PSwZuY/yqmLvorNYRPltXFpaiOhl1j9Uy9y2z7oaHZh9urydXslYv5cJG5/Ow97E6atpXH+oiezwXJyZ6/4P3M1uc46p8ciTHtVJv8d62btUaffv0lXRSpqKCrY12EhreDl4K02NLafXvILdXt6+SKnnKwY477mjeDTpTLJfc99HogEzI5sUXXzItYTyWs/Nmw3RcSdUK3wHnmNqfs3t/dv64p6bjFUVRlIaj0qpsgrAw4OxoLGBpYLKmvX37dujYoR06dWyPLp06mMApt6uErl1MKwyP//vvv5cqeCzcZsYkidPGkAuWTwzXXHN1ZovzvZhsnHKs6jm6d3e+N0Zsi5irvFuKkc+OqmKg2ofDweB2hi3WuNIIt/mqKb1s+A0mm3de+5LMh4AbDiczs2c7tcI8B2uq11ijM7qt0cWENdfoKr/XMKF9hw5o11aeZ8eOJvBDv3zOnEVtxoyZJo2miPneEAPXa3gAddlXXRxu/fabb+VZe41M9O3V09mRA3ZH4ox6rKxgpQO7BNbURam+MItsDbMGdtt2lZ+OyJX9hx5+yBjHbijWp59+ujE6ec38CHRtRCKVH+J2w3MePODgzC+2LMzLaSzzUAZmu0qQ96lqsvxhQ+5ryqamZ1sdvJbjjz++Yv2rr76pgxtQN2rLTq77mItlua5s+Ix//eX3zK/cMD+s1GC3ZetI8jjjUJtfgmx21p39HEfF/PGdGHDQQUY/Bnx+E9ja6LQ4srLERHda4WVbdThjJmu/L7XdE56TsPswP6bNMax14d9//zFLpl/Hx7Pc1OS0E14Jg+0eryiKoqxYmrQjxoL51ddeQTjMsUNJbLTR+lKQ8HtdtoB2sL8rgpSvZ4rRx3UajywccxWmTJ8fCP7yy6/FUaqsbbfw5vD3Dz/8BM4uyMkHOB2yMRho0VnkhPwejpzN+Z2BH/plfMbdf//+YihXX7pxEP4Tw4aZWlXm1RiWmeQ42+CD9/GbSzRcYjhy8JHVPjjnGlI49dRTsPseu2PEUyPktzO+ixiHUgwHfudp/wMPNKewd8adO64zraefHmlmxrv+hhszs4M5+6uDuy+71Pl2Gdf5MeWaDvG4xjVddNFFkk9OO53EOWefC441qgrj1pKBFUyFA+b8FKOwfvlx32OSLZdM315lx3bOx3lprM5fuNi0jpnnkhVoCA4dOlTW5Dc3mBSqk5DqcQxCk8BSZHfF43Oy8BLsZfAD6D/++JPp+poNp39n+pyggJ+XYPfEXF0UuY3Z2G+//cQwr/pO8Tzcd/Y5Z5q0eJ7BRw6u2OcOfDQMAbkVr73yCnbfbTdcfPFFspNpuq+TvyWY7TVjnr8Ys85Yztrju+H9Pfzww4yzERedcO7551XIkV264TW89/776NmrFy66+GJz3bVh4+TSd7xf7udr47hbzf/484/M2rLDc5x2+mlmPVeXbGaBOvTQQw6TeyiOecqDYU+OMPusQ+3N/DNknkuLFoWSV9nq8eOXn36V+0i9ubQAMYUjjzzSvDdsEcsFc5WSdJPyzysOWy3+SY2wZwEnUGJrJ/X30DvuqPa8luOOP07uA3s5JHDllfyunzsDGXk0oW5dSgnvHePa4Mb+ZGVNhRxkTpktF27M1mrSVBRFUZaf+ltrjQjHD9BoY/eNjTbaUIxBv+mHXxvsnsRxUbbwePjhh6otaMgl4jhwKuRc/PX332L0nW0cKs7eyK6QTIuGRFWWLqT4oV229LBWlpONHDZokBzLgs8JlkULl6BX796IipMVjS39/SfG5fTbLORpEPP7TmdKngi7oblhWXnZZZeb6+HYhnHjXjTbrSFNo32TTTYx18BC+YADDkJ5JFaRe2bLZm38+DfNd2xoOL737nty7+V+ZvbVxMyZM8FvhwUDQRQVFdTpGMLr42xdnAhixswZYthwEgbXjWoGVNxnuac2VAeNOzrxlGGOjeHzzBWdhjpZkYbS4YcdnlmD6e6b67tCbJnirHF8R6tUVGSgwX/6aac733QSOeQkLWw5y74mxjtg/wPNvaFM5ILHcAIYzozHqd333W9fIyu55OXNiZNw7333GkP5008/Nfdxme+VPYzOgal8qT8DDh5QkUyvvvuYCppcE/t9/vmXGYc1hS+//NIY/DWIS71x5M9Zp37g72+++aZBzsG0qFtydcnmrT/xxJPNpEdstSoqKkL3bt0ye3PhpEGZonNF55wfgI7F4ghlPpDv5rwLLqpoUa+pRYzlCVvfqQfLyiq/d1cfmDPerpNPOqGirJo4caL5Zl517za/zfjbr7+Z8/L87KWwIt/dalkJp1QURVGq0qQdMRZYLKBYC3rvffdVW7BlY8u0vLx8cwwLx+xxYtzOwOmh41KgcwxO37798OKLL+Kzz77Ayy+/ij799sWJJ5xoDCHWcLJbUcuWVWfFcpOdO46h4feWOGkDzzV/wXz06NETAwYcjFtuudV8d4kzPtKI5HVyDFwueD00Ts3HijNjyH747nv07NnDfAftk08+NobanXfeaQr1jz76yBTwPCevx9xDl+P4wP33ISxGKWdsKy4pNt/hOfOsc/DOO+/h++9/FOdrmBj3fczHZNllk91Z3nzzTdMiVh08F2dznDLlHTFqSrkBxxx7jGmRqCs0tE4++RSTDvP80ou5v/e0/FReR1O2RTp2am+MRcIJEHr36W3GQk6bNh1//vU3Lr30cvTp0888n+22267KM25oTj7lJGOs03ikEUxHaaI4OPxO1yeffIbjjjsRhww8xEzEwQ86Z7egUYZFJDDosEOx0UYbmfeRzhgnn+E03nwXht5+p/k2Gb9LRrmk0b3zzjsbWWDIhh/F5QfZed2UGU7hf8YZp2PSpKnyPnyDZ58dbd4vdj+mkUxefvllI6vLh9NSUb301Jz+2WedbbrmMk90JPlc+XFwvn/srjhq1PPmW3H8aDk/wMv8Pvfsc4gmOCtkVdldVvm199TeVn6vjJOy8FzUUYcccij677e/qdSpL3bmwNLSUvMszxLd8vbb74qT9z3uvvte7Lrr7hVdxpmH115/xVT2ZD+W7GfO8aa8T5SLgoIC8+Hkm26+FX/99S/++28Ghg17ynxfzzitfp9x4nNVCBCmfMQRhzNRWRencf/9zQykBx10kHHw6yojjGVj0gFzZDFmJs/ZbbfdzCcnOEaYeWLXem777LPPzFhgvkv8bmJDvbd0UGv7RAVhl1D3vbWyUB28FzYoiqIoDUuTdsTYssLuFgx0hmoqLHIxZMiNpnbe7w8YY8yNLfxOP/00YwjRKGL69913v+kid9ddd5mCUkof0w3p1JNOwgnHHeMYPsyPLLKLpVy5oyMx8a030bVLV3NOnoMfeuYHaadOnWoKN7a2rbnmmnj5xXES32XAZiWYlrNOnPAmgnI93JWWe/L2lKm4/NLLcNEFF2D8a6+be5VIxE0t8/vvvpvzntFwn/jmeHTq0N6kwXx99913uPHGG3GRGH/DnnxStnPChyTy88J49ZVXjOHMFrGaimKe+ya556GAX4IPRx91RI3xs2E+jjjiMNNykS9ONLv4NDS8G17JlVfuJUPNV7Ts2LtuuzJS2ur2slXNz5TJjnHHlkIaoA898CCOP/44nHD8Cca4Yyvt2muvbT447jY6+SwsNg/LB536scgLh4y8LileYt4pfneOU9j//fdfpnWDTv3ePdyG7NL394knHjNOkzPlutNt9l2R1fEikwsXLqy4jslTJhtZsORqEXz55RfNuxOJlCMajeD3338XB+06/O/c8/Doo4+ayR0IxxVRjtu0dhy3+hiVVSsTJG+mJaymO1r1SbuNYx4VlPdozHMjse3WWyEleofP9c8//zStXxdffDEefvhhc08IK0xo1HNMLPPBd5Dwr3muDGZL9dS2n5VMY8aMlntYJveenwFIYN68uSgpLTY6oL4sWrTIzKrJXgC81/zO1pAbh+C88/5nroUVU2VlZeYa+fFlnsLM6lpNRq0OY9fwY445GlvLfSstLTHPfPz4N8Q5O8F8E3HEiOEVFQATRb/yu3E1TQt/krxH+eEgfHITJZumhY4fQ89FXe5xXihg9Hog4PRcKCwsNB8PZ4UiPzxNfU+ZpxNGuf7ggw9MvOV3cFg2UpflKpXcSFkmfz1pudfOBkVRFGUl47tWyKw3KaZPn26+z7LOOutg//79sflmm9W78GjXri3mzJ1juvWx8Nt1113N9p9//sW0GrHW9Phjj8Fuu+2Ogw8+2Gn1EeOgwqCVAnLrLbfC6NHPYfMtNnc2ZYKFheg8Oce6a6+DzTbdDJtKyGVQDDzkYBx4wEH49rtvxciZZwwUsvFGG+OxRx/DoMMOMy0Ew4YNRygYFMeQLXDHmTgWHsNAo2PrrbfBO++8K3mloeITgzNhMsb9Dz5wP86Xwp9kZ6Xit2Ty0IED0U8M4k8++hjxaEwMoqSclw4Xx2EAl1x0Ia69+mrkiTPGbTy2OmeY23nuObNnY91118V666+LPXff1Ria9lrryowZM+T49bHBBuvLs3GeGVmwYCG6d+9unuf22+9Q1WmtK3KPeNS8OXPNObbbdlt07NTJ2VcLvMZSMSDpiGywwYYiT7tk9lRi7lEmzJ83B2uvtRY2WH89UxPuxn0fuU7jlQ7VZptvJte3bmaPw9GDjzaO9ZdffGHyT0faOFoiezRwzzzjDHHUfJg/d77c+3WwzbbbyHvjTBTDsyxcsAjt27fHZptsil123dlsrw7mha1v68u94WxwNCYdnG6ClD1+EuKvv/6SdyVhngErLNhC8fzo58UJ20vi+eVZzTMysMvOO5lWMsIs28tmyy27W06b9p9xQigjUZFBtgrze1AXX3SxOHY+vPLqa0Ye6HCcIO+DTcOmQzj+kl2R33mHrbERScv5QDA/IMZ/5537P9x6602ZFh97fGUCs2bNMjK78cabmG67loo4mfiLFy8yP9mit/vuu5tzVKYjCRtD2JF16q7u3dbAhiLDO++0U853gBVARx5xOD7+4CNEysrNLKN879LiCNGoPlGud+jQ21FYkC/bkqZSyc3M2TNFZtbCJpLvbbbc2hzL3LguzUDdsESe6QbryTslskg9SL1l827zdrw49+y6/N1332ccwbT5oPuGG25o9tfG008/Y1plyHHHHWsqC3jPvxedx+6jdPD4bMKhMM7733nGkc/PD5uu5NnMni06VZ4Jg9UBzC9zvO8+/dBX7h0rpejkJpNxcz3M74EHHWC6BdLxnjVrBjbYcH2sK2VIrpZVju88avBgeUfXxvvvv2/SJhybuP3221c83wXzFphnvo68n7u79BHhMZUp8ulTPx+DzTff3ExIw/tonUOWK+yuft999xnnjGTniXBa+4033ti8g7bMqg4euWD+PMnbOibsucfSE0k5OM971qzZJt3NNt1czrGBs4e3LrPfwnxTHnnv9txjD+MEZ+dTURRFWX48UoAZNdzUYLYYchkwy8u4l14xLV4sWPitLWJPw/EanIKbRQ7vDI0bg71L8pt1xPzJXTystuKJ6dgyjLW/NDyyyzSaL2ViiB7Qf3/jhHXq2AmjR410dhoyzqGc0Z0eJxnx0UmS33a7Lfxru3fmHkuynCbcwjR4dfbe03hgqGmsRXUwjfoW3s75neuw68SdDCfx4PixZYKJpjMPwVx8/a/LwvFIdek6ae8Dl8TeE/dvtkrwPlc3Jspiz8lD3feEcJudEMbmi9t4mez6VVte3fl0L2WPE8El6cwHnUF2mbXwXDZPPILn9NkNWTCuJWO7m/FidOLc9Nl3P5SxZUXi85tglHd/1kfa7X1k/nKdjumbxy3RGNfOclcdNj37nCx8r1ihw2dl3y1nyfg2D1XzVhPOeZxz2GfE5NiizXPzXNXlpT5Q57ifE/Nf9X2mRvMYZ8l8HFueg/Mh7bpfC+nTu585lmO33n6brT+OrmLFgTOFvJUnR36Mns1xWXQceX7eD+e+Usct7Qjw3nCbvUeE4w95bDwzaydb39hqzOtlXHcafN/c22x62TB5u5ldQ+sjP+732n3f7bktuc5bN6ir2ZvDkUNOosMWuUqc++fgCEEintEFmVM62c197YqiKMqKpX4lbSNjCwZ3QbsicPsrNA4Iz1iXconxqssdDSAGziJnf+dywiys8TZGkBTWvThdeZWEeZBzNvfxNHbsb7ukAVeXQpVx3E4Y4WFmu8vQXBYnjCxLwe4+pLrDl9kJsxijxS6re3q1UxcnjFR3H7jd7uM9rs0JI/acPIyvRfarQfllcG/nZdquivV5lWg4Vgfz4Tbuib1Mewp390g3xcWl+Oabb018BqbDkO2EEX5zjDLIMUyElQ7Z2PtYcTpmwBUqHjfPVYsRTdzPxQ3fK2KN+kqsoUvs1deOO8/Mo+OYOA4Yz+HWe3XRgYySK5q9fsvS3eGcTNiZLunIcD9n9KvLmKMKXLfErVOpY+x12jxW54QRygHlgTLG583nn+t52G3OfXSCceBkG8dWMnAb36tcaWRvy95vcW+uq/xY+BytQ+2+7zw3Ydzqzlt/HNlZGqbvylOg6vl4+obLg6IoilIfsoropoO7YGjoQkKKRPnLUHn5PIM7LIVrY3Zc164qcHKOvn37mAkEDjvsCGNcVHcp3HzowQPNeDQawMcde2yOhKs709KsygWrO+tcX4UvpQmRw0KvBis7jlHH49yhZtyxso9gK8Dee/cwkyxcdOFFZlvGLs3Jgw89YrqYcTKdk08+2WyrkyjYSFyuINlx7pG9woY5iZV1pp0rLCvLcqhzztwOUHWw5UuONOtOC82yndsNj7dOS31YztMuN3W5b8vzTN3Ye107rpdtZd8gRVEUxdBkHTHSUAWVG9aWpuWyObSZS8KzZAfu4bIKmQ3cZ924ijjWJnPRvn1bpNJJhMMhzJo1HWefffZShqf9feYZZ2HxwkWmK2RHOc7HE1Sh2lytkuS4XY0DZYqGiw2NeD8d47bhzmcuxZWc/e3ebtdty6fdnovceeM23qe63Ssb27200KDmWBsuS0pLsM8++1Xkx74Hdvp5zpg5evRocJKevFAQ+/brUw+BkYhmQg0bVgwc71R5pXW/R9nYZ7S81DWdpeXQnf/sUMeMyW1OpdkSy/hyXI7b7py37vlcVmyu65H7FYq930vf94bAXqkN2em797v3rbj3QlEURak7TXaM2IqCjtgLL76Ou+++2zg977z9limesouvhoIzJPLbSnb2t/KyCLbdbjvssMOOKCjIx3vvvY9PP/3EGUchhTRnx5v41gQTlzR8wd00sELXPK9OqYkePXoZuWbLL5fdunUzU4ZzXOSnn31qJjmgWuIYoaC8N8NHDMcanTup0DRxevToK88tBU7i8t67U5fqEqkoiqIoSlVWS0dszAuv4p577jGO2HvvTDLbV6Rtx2mcORMXp9LmN1zs2TiA3XYr4YyFefn5ePPN8fKrchC6OmJKcyMeT2HgwIPN7Iz8ThZnXnTLObswRiNRFLYowrOjnkOHtm2cHSo0TZo9dt/bTNTBGT7fmkQ9piiKoihKTax2jhgv9vsffsHnn39mBk8fk/nW1Yq07Vjzz0Hb/I4Mp+Z2poaWvGRufefOnTBkyE3me0jME2muDphFberVF4o9W4Cnz5hhvtk3e/bszB4HTnfP6b179e6J8kjMtBL7WWuyol9UZbkYMfwps+RH4I8//thlGtulKIqiKKsTq6Uj5nYCVoZdx+47dR9g3TxxPwNl9YYqiJUTnN3OqiPbIuymuVdOKIqiKIqyerHaeQM05XjRDCvHrEsjYT5A6kwNnkjGMuvsNMnv+VQ1PhWluZPLwVrN6oeaIXx++gwVRVEUpSZWuxax5cXerGV34twGClPJvv3ctnJcxMZk+e+j0lxxt4opqyr6hiuKoihKbWgn/mWAJoYzDf7ysvwpKEpzgw6YOmGKoiiKojR3tEVMURRFURRFURSlkdEWMUVRFEVRFEVRlEZGHTFFURRFURRFUZRGRh0xRVEURVEURVGURkYdMUVRFEVRFEVRlEZGJ+tQVklUbBWl+aGzZSqKoiirE+qIKU0QimTNBpmKraI0T2pzxvTdV5QVh75/itK4eKZOfUffKiULikR1YlF7jfXyKmqfz49kMgGv1ye/qqblJO1BOrV851hmPLV9QU7uT1p7/CrKsuLx1qRj0mIoZlYVRWlwvF6vlL9Js8yFOmLKqgsLj6ZXgHimTP5Q3yolAwWUjkZSVrmsSigUEgVNcVkeQa7Li+Dez/MtnZeVB/NT0ytTl+tTFEVRFEVR6kM8Fje26LKQSju2ZFOrTPCkUiuraUFpmlTvROzf/wCMe3EcYrFYZksuanNEanOseGxTblFSR0xRFEVRFGVlUFgYzqw1DzzptGniUBShZieib999MGHCeJSUlGe25KI2cbKOTHXnsfstjNeUHLPs/GVT8z1UFEVRFEVRlo3CwvzMWvNAJ+tQ6kylI1Ymv3KJDR2Q5XFUuD2rW2S6pvjVsaJEWvJR5zFiKyoPiqIoiqIoqyeFhUXyt/nYWOqIKXWm0hErpuRktmaxTI5TNu7j6yueEr+6vDUITLum9Bvi+hVFURRFUZRsCgtayN+mNHfA8qGOmFJnKh2xEvlVnbOxssVpRTtB6ogpiqIoiqKsDAoLCzJrzQN1xJQ606NHD7z55pu1TNaxsmG3wBXpCPF1YU1MrnNw34o+v6I0NOkqEuv8ssWCyrLS0FQnW2qKKMtLLn3lliuP/Ksqf/WXupqOqIu+VDlfXnSMmLLa47SINVWoCOuiDJcVvi61KeIVeX5FaTgcaXVkOunxwJtmkF+yI1Uh5yrPSkORpT894vbLT0cGvSJzlDXXfkWpF45Gq8Qtb17Zw31ORWoqMxbdm/Xdz5qlz53e0jjpu8+fHbvm45W6UVhYmFlrHqgjptQZigq/ut+0HTFFUeoKDQc6XylPQgINYTFKYkmEvEHE/AnZK1tkvxYSSoNjDGFHvgIiYEkEkDBf606a3YqyvKTNeHHKk1d0WEgMXi98iMm6BzGvo9+CqQBjMrr5uzy6LtsNW970lNw0N0esalWAoiiKslpAg4GGb1IMYraA+dJpzMhfgPNeG4o/43PEgKChnJZ/btNCUZYHMUvpgDEYB5/OV0BM5QL4xSD2Zz64qijLCyuZnCqkpDhfcQRSaXG60qLn6Jjxt19C0Gg4RVmZqCOm1Bm2hjXt8WGKotQHZ0Qja4W9mBtK4MIXbsF7Lb/B9S8OhSfi5x6JoIaK0jC4Www8IldpMZIT8m++Zzbm+Oci5q10xGzciviZoCh1Q5yulA956XyRmzAWe4sxKzgNfy7+FX5PEkFPHD4PO8PWXb/lkr/q5NLZ7vxjp0inY6T9pZKsVKKOmFJnnn76aQSDYpgpitIM8MCfjolRAsQkfFP+Baanp2ONxW3wv37HoiiYlv1x7VujNBgpD81eMUQ5LkdCKCXClSjBQ3+MwT5vnotPFv+MQGbMTsplq7LFVlHqC+VmsT+BDz1/YvAbV6HXGxfj8skPG0dIXDFEjUNUd+Gycug+ituMrHoo2RYqTY5/ZNdvn6w7Mh+Q3+x5wO64PvmtDplC1BFT6szw4cMza4qirOo4/pX8TXnxd+ES3PDyY/D4glg/3gI7td9YDJWY6dKjtoLSEFCM2M2VwSeGKM3Wcp8fqWAe8sRYbRlLozDhQTAdgNcjpgmdNvprrhZZFUWlOigbjkPkrEfEyf8y8gcOfuksXPzyDdgpf20MO/g6zPdFMfHf75AWeaMUsg3WhkpJy43ZL4nTcGZwjpd/npToS/YtcCIwXkK2/edfiJF/jsewP17DiD9exbO/vYRnfn8Bo357Df8smS7vgTlAWc1RR0ypMz6fD6lUZdcRRVFWbVJi6RZ7Enjx+9exuGAhOi7Mx+WHXI7F0QTKvSkxJowlnImtKMsOOyL602yHcCZJ8Ivs+VNB45RxbBhbDDzikHlSAeQnAyhI+hFM+UzrgV8MVhqtTguChhUbVl3o19Bv51UkA0GM/GU88oIpTNj/YQzZ8xJsU9YNW6+1MR7/+FmkwvVvkbJyaKaTkWVA5JNjzfwSWLGQ9Phk6YHX40Hcl8JDPz6Pe/4ahtE/Pounfx6N+35/CY/8+hqG//QaPpkrzqDpGrlq33Nl+VFHTFFy4JV/7DpgllnB/rPr1Rde7A0u8SSd2oIqY6VuUE7csmJ/Ly0/lCm/GLaUL+e3s83KWlqMXxoQv+bNxOifXxfjtwi7ddgaa/nbi/ESkuOCYtRUziiWOSwnuXOgKJVy4RNZ9COAuMePRb4kFnhK8Ff0H0z87338Pne6MWTfn/U5voh8hZmBuVgULkfEk4A3IZo26TXdGp1ZFa3O5VJDw4ZV9y2mlqKjxCWri1tHUzhq5z7wlgMl5UsQS8SRioZx1G6HYlGwBN8u+BmhjG7MhiUy9SaX7mDcprQHoZRX9KcPxd4YUqkoQt4AvL4EPJ6kxGFlQhoLg+X47fc/cU7RQXi350h80HMUPu4xGp/2eQ5T9h2BQ9c9SBw3zuaY0a/KaotOX6/UmT59+pgPOpeVlWW2ND9YDNFQTRmFStPAqeFyY385ij+NQMoxEFKZLjSMz9perxi6cdOqUH3xZl8+1vraIqHy+02Kko3IBoXJGBDOtN80PtgNJi6bKntxMVIKETF4A2I0BMRooFyZfyKrNCb8Yq0sCMRw/jtD8Unxt9hsSWeMGHwXCmN5IpAxOYcYwWnW9JoTZv4SazrI+0FDQtKinHP2Ref8FZlQVjNy6Tl2F6MMUg/OCy/C27+9j5Ffvo7ZRUtQnkqJMZyPQDKGBJJIirwmadjKtoJEGN3Lu+DQLftjt822RotYwEy+wHQow44Uqqw1LM3nnrIMXhAowxnjr0WXZGvc2uMqBIIezErOwqUf3Q/frBiGH3yTyFPSNPpTw9krp3xRf7Jcdus/6li2iHk5w2woigtGX49N8lrhmr3Og8cfRsLHboqU9zT+KJqHy5+6EVf3OxMbt9wA8UQAfsRET4pDCJFlyZ9f0hcLgadU6oF+R0xZbenbty8mTJjQbL8jZh0wn9eLb0t/wqtfviXGap4oTmd/WowGrmZ+IiG/2wXD2G/rXuhe0A0+iRhPpuH3BBALxjA7MQuTfvwIfy+Ya47J9aqx5s7n9WPvNbbFHt22Nc4c+5wrSjaOfMbESEiKMBXAF/ehPLAQ84qnY82irvCmiiQGHS1xkKSQn1m4BOeMuQlrlBbhziOvRDKekH2OdHngQzAdxKfhP3HqC1cj4Ath48UtcNfhV8DrCzsGiRgjrGiw0kiHj++C48yJYSJOmFd+c74FX5LdcwIwXyKTY7RQWT1x60cu6TSxfSGVTuKDxJ+4/t37sCQ+C3kIibyyjUFkJZ0yzjz/0SCmvDkyxu5dko5Yvm1Kw9in3U44fa8jUBApQDIdEKM3zjNIsGdUlEooS0UxHyb5P8PQl4fhsQPvQCcUit6M49M2/+DKUXdi2D5DsGa6EBGRMdO10BsTB8mP//IieObTMQiJMNJportkxiqKXmVPgbg3irf/nYr5vgiKPC0xuNPeOHHLgUgHfGIDxMWwDuDtvG/x2DOPYOShQ0UnBiBbjRPnyKujIVVP1h/O3l1QUJD51TxQR0ypM5w18aijjkJpaWlmS/OChkDSm8DiVAme/GUcxv45SRQla7ho/IoqFouTKtQW+3TYouJE+ZItsE1JR9x36EVoEWiN6ViMK169ET9iGuLydkUTcYSCISTpyJmaNgeuscYtIaEPNsXN+1yEmFi2AVH++lIq2VBe6KjT2RG3ByX+OK748C5MWfw1+pVtgzv7Xwa24zJiQuJN9P6AK94YitaxAly5w3Ho2WF7caR4fFRS8mF6URRnvngF5qfmwkuLN0RzQw42AyAcObVySCfMdA2To+nEcX/KFB1RxNIl2KVsI9w14DqIP2aMDZXf1RNKjSM5zjIuf2IiUK8tfh93vTccQZGfND8enkzB5xdhEeiIOSvyX+JTdniso22TCIhOjCVF3kQIO0Vb4MKdTsZOnbaAL+V8qJddwZyjFMWF6Ku8eBL/5C3BaeOuxz5ddsVpWx0m26NYmBfDKeOuxJqJtnig/zXiWCVEZ7J8jiIoSuy9Fv/KMVeiY7LQ6L40u2gbR8yPRYE4yv1l2Lasq+jcKzCp9Ds8NHUYbtjpdOzQenOR17RJ67Z/xuHrT7/AM4NuluMCRndzxkRHrpVlpTk6Yrk7yCqKC/rqDHTCkkkpGAMB+KUQdTsVqypOPSyNR3YT8CIvEUReKh8J1tbKjnDah3z5nZ/MR2G6wAkpJ4STeWgV90v8OL4u+hvnjrwes1GMM0Xpfxf9Cy1iSRQl0yjy+RFKJCWdNPLEALEhLPeSrWiis+FJcJ+cK8EaN2f0GXOnNG/4hN2hJoyBKoaAN5UnXlEKP4am492Z36KVyObaa61jJteIi9HqdG1NYSvfmlgv3VqMjvl47v1RdJnM/rgnaM71/sx3MMOzSGRQjATxniIigzGRU1YYJMTITUpIpxImlItBHElFkIguFiO6GOnkEgmLRW6jCPkDiItsBz0BFAbYmlbblSjNl0pJpn8VFB33YeJb3PfBwyhKl4lWS4gMiyvv9cl+kVNWThnvS0KF2DhdxPiTLbiUQ+pn6sq/wvNx93vDkDYtF4xTcZCiVJUGsVli3iA6pDpirx13wlt/vIOoeFU+0VOdy1vhtAEn4fvUNPwXXiiR2eLF9tV8WQuLnCax8ZJumNhrOKb0eRZT+4zA1N5P4fkDbkSXknzsWrwBHjpgKNqkO2Kflttjz033wi3vPo3ZiYXwJ72Y61uML374DFt2XB+BVFjSZ5nu6HBl+WiObUfqiCn1ovm9BGwhAGK+OJYEyiTEUCbKOu7xsS5WdnNWL59x0pxZvpx+3Qxm7I0YEmxhiEki0QCnY14IX7wYBf4gFgdSiEo6vlQQXkln6RCSdKTw8MRkneNskpgfKkFxIGpq1JTmD98mjimgEcBAuMisVoHb2DWQrVYzw1HcMvpe+HxJdFuUj8M27oEwDVbjbNFwTaNzpDWuOPRCMYaD+Evk6oUvxyNPBJXjxWbkz8dT745DXpytsuLA8cPNIpOOTKcljtPFkF0cWUzQWO5WXoAH+l+CB/e9CvfvdyUe2PcaWb8Oj/W4FrcdfrkYxx5E45wRT1m9oQRwjKwX/xYswB2vPoRUOg9l3jyRXbaocn9m8gNZjfrE2feJvpOXge0F7B7OGD6RQcoj239jPsZLo2OkCFfucSJaRPMYI9P1sfkZZsryYXVpnEMNonHss86eSLYM4p2Z30i5HkTMk8D6yTVQ5AvhmQ9GIp0sE5lLiKyx9d+R0JivDAtDi1ASjKA4uBjfFf2MAS9fhJahfNx54BXwlpahODEPhck8nL3JISjoEMaFrw5BuWjT4mASkbJS9NxiF5OPjHArSk7UEVNWYzgmISUFvgf/iWF62PNn4/RRlyGaX4oCdlFIs1c3DV9TX+YEiW9DUpR81MtJEELISzqDg7nO7jjJpJgZ7KfF7gxMxePU8lYJspnHBJIhMThCmOafiUNfPg/Hjb0cvyz5y7yczlFKc4SyRRlgBytHxpzf3J4LtjSJ6QmfP4IvIl/jR+80tI20w9l7nIl2wfZIeJ3xMl4RGRqoCUSxbnk79Om4I+aElmDMjKlYVLAQS7yL8MjXL2GuPwZPTORYZJDOGLvglvjlt0kn6YwHSwfg5fTMsn+dWFfshp2xrXcLbO3dUpabYhvvxtjctxmKUi2M0cMRaDSmldUVSmlS/nqRSCbxS/k0LMiPmAonOmZpkWA6VmZiI5/IXTKI/DI/giKwrJgqFIctmKT8cAqDuJmMxnTf9qYkjh+7h7fBNm02Q5Tdxc25FKUSlpnUoZQgrueJpx8Uxbp2SXus12oNjH73KXgTS0SvRbFWrB0O370/vpj9M8r9XoSS+fBLOeyV4Eee0bWtZb0g5sefefNx4pjrsGFkbTzV/1YUyUnC4Tzk+1uY/rftF7fAHXteiUWBFP730k2Y4ZuHVNqHjdtvInqUYxmp5ZkrRVkadcSU1RhRjKIsORNXRJRuSYs4YlLAc+hBLEWnizW2dLho2DozI7pDUgINCjpzpiY3LQaIWMEpY9SyqwO3OkaFcciyA7dLYNsbC49UKB8xMYLL/KViaHDAr+OKKc0TSgCdJsdIdQK30ZFnSwGfvPvpm98iE38H5+KBVx5B63QY6ybaY8c1tjBGK7/5FZdgj0lJgm0iBThl96PQJpqPGZ65uPylO/Bu+dd49++PxcgNIRagHDtyGkoF0DbaGv5ka0knX/IjpojXg4iXBrQHP+fNws+pv8SmiCGREjdP5L/Mm5R3Rs4t/9hYrkOOV3dYdWTauhAPJfHh55+aLoWOVDh/nV8e+ONeHNhmZ7x+2MPos9ZeIm8hnLn7yXhowBD0XHsXFKTykU4FM5UT5digNA9X9TwKfpHXlI+tYXIeoyMVpRIWrY4+9WBBMIbvff9hXmwO+u2yJ+aFluCT1G/4OzkHM+Iz0Ll9VyxAMZ7+aRx+Tc/EtOR0/J2agbnRhSgTQ+Cv9Bx87v8e57xwJTp5WuL0/Q/Hb5F/8WdiLn5LzsSfEvcP70z86JuJeFkClw06Db+3nIPLx92BTr7WyBMnztgAYg84Zb6iLI1O1qHUmd69e+ONN95ANMrB/s0FH/KTfnzR8k+c/NJF6L6oDW4/6iY8/dULeOXvqQiKcUoDwhq3NCLkpcn8EgdN7AAaBJwCd+NFnTHkxEtx9jOXSwFQLsasOFMeH5yPPeZ+zbyinzmZbZ/ktjh28LE4/oXz0CoawDV7n4dtijYx3cyI6vDmCTvB8NHSoecYK866yYbUlDg6ITEkuJfuOuE4mXJ/Oe75/VmM+X0yNlzcGQ/1vxadgm0R8cXBNgLKCR07QplNcUIZXxRjZk7Aw1+8gFJvVLZH0DIeFpn1mUoETzyODvHWOHOn47Fj120Qz0vgtf8mYtiHIxEN+E1FBbuJRfKATWZ3xvBjbkN5LAmPN0/OmDCtupXiaa7GWVVWKyhv/KAtZTCQTmBhXhzHDr8Ac1sUG9l1IsXETaPzHsL6JV3w5EFXIxD045Zfn8Ibv76H23a4CHu12QHxRClmexdh0pKv8PCnI5Ef8eH+/a9Ct1QH+ANyDkmF3RxNt16VN0Wg/Nnp5dkKFi0oxFlTr8HbpW8jP5GHAEJSFgcR9USk3I7CK7LKD4YHEj4jt6wETXjZeuVFMFEkCYrO88836RUmwiJlAZT5nJ4wrGhlKxflj5/4CJhu3B6Ekj7TRZyz2vYL7owre51qPiFSAWsVTE6V5aG5TV+v1UlKnYnFYvD5OENV84EqkaYju8zERNHGvLw+UZyibKmI6UDRSOYsdBXB64S4BMbgWBoHMQ3EKfOxptYjRrQEm3p1ga0RTIf/OK7Hk2b7WAj8WKTj9Ek2GFVppvABs1D3YH6gDG/+9R5+/OcnhESGHIeGMsSZ5pxxC9PyivHWD++jIJmHomgQ+SEvlgRKEBWPnpUBKTEm6LxHpfCnARD3FKNIDtx7rZ3RvUVHMUj8aBUrEpl1JuzgrIec/fOEbY9A//a7ojDpQdvyAhzSoS/236SvuFny3ouRQpn0l/kxt3UZpvzzDYrShQimS8UJi/MKBEeenaCsrhidZdbSiKQj8IT9mW1WLpwxX9RpZf4IisXp94jmZQsapzNIiOyWBKKIhBPoGGyHo1r2xFMH3IzztjwS6we7Ih0KiM5k5Zejg00XR0XJQKeJcOEvj2K/rXdDm1gLtIu2RutYvuznRFlBtIgXytKPsAS23zrOFnsEFEjcPNGDkP1eFMRbiM4sQiApx6bCKEjkSzqFEqcAHSMMIfkdQhv53VaO80uciDck8YLoseXOSKUylQTGASN2qSiVqCOm1BnrhFU6Gas6FH9HcxtXKM2aK2cAObeaIAU9x89QgTNUtIaZRUV7hgnmeNnvHJdRwOaX49TlCl5J33wyWo718VwSOMaCtcY0TtQLa85QfjghAYMHY/+bgAv+uRNDP30U8WSJMQ7MeBpxgoJJH4p9ZbjnjYcR9YvzJPumtZ6DE1+7Gme/fLuEG3HeKzfhvJdvkeV1+N8r18pSwsu34tRxQ3DT6KFILYkjkGBXRKcVl2N2kh4/OkXbYMcNdsGCoEizvNfRdEKcvALstUUf85HSoOSPU457RBZnpRfj0feeFicvKqIZlOP5vjg1xLY7rrJ6wifPSikj1SJXbCHgFPOUcaMPxXHit+eodzkhwr95s3HSK1dh5DcTJY6Yw3EfAiHKG4yBzOOicsx6kW7os1Y/lIiO9ICOP+WUOtOlj5XVHrcksGXMK3prozbrm8/LlIvC5ORbdJSM5SK6z89WLvZWSVPWnNZVVorGJLBlLO2JmxYz9mih0y8CKnqX2xMSlxWobEkLi1j7zHHlYh7RHkghKM5bITbtsi6SPsmI7De2hlkqy0vzsD2rQq2oKKspVnXzNbAvN7eJJWACC37rWDmhIloVqm40Tp05ypLzoEoyu91HVJBzo9I8oJQ4ExhQBHqtvTPWinbC74VLcN2bD8Hv5UdASRIhMTr/Ds3Gl2V/iLz4ERVjYDai+ME/C1+GfsJXoV8k/IrPwz/js/Bv+Dr0u2z/HR/n/YaPJHwanoZ/A3ORCIoh4fWalt9yEXufOFFJMZJZGUDnLir7vPKLhkZA9vli/Ai0yYQsPQjLvjmFC/D4x6PlCH4HimY3/ymKS/eJQOSlgth83c2MUUw1RhmhE0WBomMWTgYw0zMPt08fidd+n4yQyPSr37yKDxd8gbnBMiz2xY0csvXL402KQSzrTF3eBYNsd1JWlEqsVLC3SdtYIdbzd0DKH0fMFxGZqZQdUzlAGapBjsw4b9d+qwsduK2y8om7PKIT054YCpIJhBMh0bV0vuzxTjxFyUYdMaXecFhh8xpaWN210A1rXOIJx/RWVg84zgVSeLP1YI2ythiweU+UxRfjq9if+C0xHSEp0P3ijv1dsBjXvno3kua7XgH4kmkUyjvIL9T4E+ISJVIIJFMIJbzIF+MjGC9Cy1hLbJRaE5uk1sAm6TWxXqoruge7mu8yJcUooXT7kiGUFsYx4u2RKPB5UOgJw58EFrcsxUMTnoLftGA4jhbremPinC2WYydP+wQl3rjkL4SkGMbGwFZWe0zLlixpsBYl89Bvh92lrIiLnHHcjiNHRqRMHHH2U14UpShDHiwKxjGh+Guc+tHNOOS1c3HS2Ivw1NdjsCCwQNKIIhCTcicmsmYdsQpU9pSloRPPboMH7dzHdH6NiNyx+3bGb2pwmC5njmXPmM07bSjOWH6W46Y0BM1xWgt1xBTFBV9xBmMwZIKirCgoXzHOTOgTxyrmxYB19kT7aAhzwotw68sPAmwV8Cbw6cLvMS82X4zbMLziiCXTnE0ubMZ3BbzigElCnGKeKcZ8MVmU4oguu2Pcbrdh7C53Ysyut2HM7rfjqZ43Yf91e4ph7EVYDGN2T1wcL8fk+Z/j2on34Y/oDPzlmY4rx9+NHxb/Da84eXwhODtdIOU3g9EDqSD+zV+Im1+6XRy1pAQWJNnGsbI6Qufe9iLwevxYK9EK6wfao1ycfHYzZHdDypKZ7VCCM9ERqxMCxpBlV7CwtwClnhh+8f2DR+e9iENePgenvngN/vSVIBwqhC8doJVt4psXyJxNURxxsIHwYwkbdukmejOIfAnmEwp2ZwPDHgOsNOuQzMNW62+HYn8KUdOrRlFqRh0xpc5MmTLFDD5lH93mPNmmUeRyeTaoJlVWHBx7yLEHKZT70+gSaYMbDrjAGKR/en/D1IWf4ru8hXho0hMSsxxRX7mIYxkS/hgSvoD4aZwcBojHU/CKc4VU2rQ8pDwJTP35Y0RaJBEtkOMKYoiEoihKeHHSVn3RntXDkiLdJ7+YKwv8i/FicioGvH0GDpl0IT4r+cnU7CbFeGbnSY5abB1pgScOuAOn7ngMynyl+AS/46fEfwgnOY6SMXgtahSvzrBt1EiVlBP8pEK3+Dq4uc/1WNPXCvHUEiR9nNuTkxlJ8HrEWWMrGaeEoSSyGxdH8iTE2QfC/jyEY/LLG8VHRX/h6AmX4dlvXxadLBLLKfE9HC+mhq7iQtQPh3M5QWQxHURLtEWoXCSFLfesAFiBcPxtm/JCbLfu1uYTNOxdoCi1oY6YUmfofPn9/gpnrDlCM5KBV8fAdUVZkViZ41+O1toovCHWTXXGgjzgyk+ewDnPX2a6AXrSRfCnA2LAplCUCmKTVEectvWxOGHbk9Eq3VaMANknbhUNVSTDmF6wBE98MBoBb+W3bFhLG062QY8t90a5L24MB7ZTcHpxziZWGM9DQYIfGHcGmNNM5vf0fPLO77vh7lgv0h59uu+IrvF2mOuP4ObXR4hTFuQoNpMGu1gqCkmn0oiI47UeOuHRA6/FLh22BRJ+8wmGWCAiclUmMul8mJkyWCk5dMrYciZpBCl/XrSJ+5AKLMFj/zyP0T++gFBYjGqPY+Vqt1jFjdWnJngSaLnYj4G7HCAOfYlotHLZuqLkhWMYOR1+CEXlHlPpFRR9qCpRqQ11xJR64/Wq2CjKioCzdXWKFOKmwy5HgThF/JBt2rtY9nAuzaAs/Ah48tE3uANG9LgBh7Xvh5Nb9ceDB1+LInByD/5zZulc7C/F67M/xNBPn8E9nz+He74Yhfs+H4O7Px2G8d9NFqeOUzc7XckqWn8rcH6YyRL8HnQv7ojjNhdjxp9Ax9JWuHLf05CXjmO6Zxbe+u1DccLYluF86FxRCMeLcaKOxeIwdSrvjHt2vAbDB96NvVrsjPaJjiKiISMvCV/K+Qi+CeKUmZYMxzlLxmOSEuUziHx5H0p9SYz+azL+Sy5CKFUojr/znUdFyYauPSfsyPfkYdfuWyIk8sgZEavquYaFOrVbi27IR4HIps/oa0WpDbWolWWiOXdNpAp3gv2rKI0BpS2FktQStImEsX3nbZBM+BBKFIipySmW42KgJtBhSR5O73skfAWcQjmKEk8ca4the2n/s5ESQyPldb7LlJcKY4Z3Lp5a8Aoen/siHl34IobNH4sX5k7G/PwEYmKRRLwJRHwMSZRLiMo6B7Q7uaExLOcvDeDkPofBz4+VBkLIT3mwaf462CB/DUxLz8bI715DLBhDMMUWNJ2iefXG6k5KD8d8pVCYjCHhjSAmDv3GZZ1x//bn4+n+N+DGPpdip1Zbo02sQAxYp7siZ0iM8Sv3crypIBAThamxe2LME5N4PswMluLByc+Kkc14ipIbaq8AW+m9SXQWZ6xTtFA28iP2K8Z24fkKRV9vt9EWiCEp8u50VZTNilIjTcYR69evH/r27Vsl3HTTTSgpKcnEaHzobDAfQ4YMyWxZvXn22WfNPWForl0TWfxzQK8NjlGhKI0BS2wffIEWaBXNw5m7DBQjNt9McsDxVwF+ay6dQlHAD6/fjxLZlhQDla1oHIvQvqCzGW0TSHLig6C8oz7kpQMojIfQJd4aay9si25lnbBmpCO6lLVGp0grtC9vjfYRhlboYEILdEJLhLx5xiiOi/hvGu2Knq22FAcvH7G4H1F5L9oXt8fV+56NDnk+/Oudjee/etuZptzDHCirL3Sf+E0mBq5Rop2JXgLlXhSjHPMDJWiZbolevi3x8DZXYsy+d6H3Rjsj7A1ig8JuaBnJR8gTMmMf2Z6QFLlPSTBvR5Jjz8rx07w/EUnFJY7qZ6U6nBYxjlnMj7XEThvuiniUXRNXDHS62kXD2GuDzVGeYC+GqASdBbmh0e+IrUCsge8OU6dOxcCBA3HBBRdkYlUP4zc0fOAMicTSxkVt51sR+VnZPP74483WAauClu3KSoJagx+pjXmC4ih1wFE7HyxaOgVfKiqGbcIYFnP9cUwrnolCUUtshcoT47REjNu3fn4b/pSt8c3oH7Fmy9Ll2Ki0Iybt+yDe6nUPJvS9D2/t84D8fghT+z+KKf0fl/CECZP2exxPHHIr2vhbm8lD6Jhdedi5SPu9CEk6fo6x8JQj4o+ifWoNDNpgEHYu2BD7b7OnOG7OKfX1WZ2pLPdYqRUTC4MVCXPCxfgh8S+8gQKR21bwibCkEEPcl0AgEEJhKowWySAu3vAIvHrQfThky74IiHnCFjErUcYukCVbOdgV1icyGY/Q2FWU3HASIc7M6UuH0WP7nihq2TazZ0WQRlhkuMjTCn5fSPWgUmealCNGJkyYYMLEiRNNaNeuHb7//ntcffXVZn8uOHlEPF5Z88DfTI/bjPLOBG53Y89pyU6HcFuuMVHJZOV0ODWlbdOzv7PP6YYOn9vpqy5uLsewMVgtnDBFaVT4TlW+V750Ah5fBOWBCIJiQPTvth1ap/KwOCXb0wEz8Hu6fzFuefVe/JeajXQ4gKg4Xu/F/sTTX72FgDhwNjXx0VAqTlwwrxA/Fc7BmLnvIsL4waCkLy5VwCfOFkyXxHIxiMskcJbEBelFWBCfhiJx6vYMb4a1Uh1R5vXJfo/EYzcxfv0sgcJIAGetORD37n0h2kb50emYOIKqI1Zv6H5l8PhEJnyI+svxv4nX48Spl+CeN+9DcWohEulSBNNRU7EQk3gxKVsiUt5F/R60jBTi8DX7oE28SFy1ynLVVIx6PfIOyBmkTGbxGBBZVpTc0HH3wyOKMCiOf8dkS+SX8tP1nAhGZMkVKvVwfUMl7Cpb4C9CMJrHDt1yHtHXWXGU5acmG3pVpck4YpZsY3/kyJEIirL94IMPEIvFqjyEBx54AP3798eZZ56J7777LrMVeOWVV0w3OuJOLyEOzIgRIzBu3DiTDvctXLjQHL/PPvvgrrvuqpOz8ccff+CMM84wx1xzzTUmX0ybMN3nn3/enCMajeLGG2/Evvvui9tvv93sz5X+DTfcYLpmnnvuuVi0aFFmqxOXaT333HPG0bvssstw9NFHw+fTcRiK0jygPhODQd51p/ZfCm9xuDh9PVu7upbn4aL9T0Igr4U4VT4kxbAIpKL4MX8G9h9/GQ4d9z8MmHg2rpw0FCF/RJQGv1zjFaMgiXDMi35r7oa24m1FCkox+rMXkPCXwJsukxgR0S8RiceujUk5v6QsumtBaCFueu1OzPaWol1xEY7qfaQYx5Ks2MNJDz887eSBkyx45Ni4N4FSnzh13rBs85nuaMrqizOuSyQwnTQfGC/2x3DHt6Pxa8k0pMTgHef5DANfOh+jf/4Ac/0ck1gmMsPv3qXkqAQ/LSYyFUepP4oykVFJyKRqA2flpK9POQx6A3KMjhNTqodjXKlVPaKnWibD2HatLYzucvQuod6lY7ZsgfLoEVlkDZlfTMBtt9jOSCQ75TodcxWldla6pNBxscGS7azccsstZskWMhuXTtCrr75qnCA6RpdeeilOPfVU47BsscUWGD58OO6///4qrUfPPPOMcdDWXXddcw6mO2jQIPz++++mhWvy5Mk4+OCDMXfu3MwRS0OnjU4Yj+G5P/74Y/Tp0wcffvhhJgbwxBNPGAfyoIMOwnvvvWfyNH78eDPejI6f5b///jOOJL/PxfP/+uuvOOaYY0wXQAvXn3zySfTs2ROffPIJZs+eXaU1TlGUVRW6XpxrUIIU5qFkwEwhH0wFEeY3wcSISKRbYPPAZljH21G0dUKcJTE9vX74U5zGPoYZwblYkF4MX0qMWNGLbH+Pe1OmG+POng1w29r/w32HXw9EAphWUIz73h0OfuvLww/iisWQkDSj4ojReIiLg/e9/y98Gf8LealCDN5iP6zlKZDcRcTOYMoJY7TweJ8xYALGUPbI/qCob78kQi1eqcmV1Q1+u8krxbdpp0pH8cLc8Xh5+kT4fT7T2hsuj6EkvxhDpw3DvuMuwAkvX4fHPh+NfxbOFvlNYb6nHJNKv8fpL9yKuaEYe+VKOvIumPG6TgiI7BchDG9cynZ3N1xFyYLfqEuJEMVFToLxEHbeck/ExGkyTr9sk1UJ4lSJXvPK73oF0X1083wii2nRyV3ibdBr/V2RFJ2aMhMeMahsKrWz0h2xurDpppsiFArh008/NY4VW4/o3LDl68033zQO2lFHHYU///wT//zzD9Zaay3TasR97i6Do0ePNt0M6agtWbLEOEBbbbWV6QrJuC+++KJxro488sgqjqHlnXfeMenTkeM5J02aZI61Tp0xhOJxcw5OMrLnnntWpM1zcx8dP5v2CSecYM7HOK+//jreeustrLHGGqYVjK1pFqbfo0cPk1+mxW95KU0JVbbKssFRMJwJjqbBomAxZuQtwJzwAszOW4RZ4cXyu9i0KoS9NGTp/ND2dAwB+S/OjxgC5ptfrJllWvy+UhRdytrgzANOQ2k4gZZlbdGj+24oC0bx2cKfMD+P3RYDYjAExXAOoCAZR0COndGyDLe8/BACvkJsU9wN+2/QE4vYWiHQ3eL5TAOF+c2VzF/RT+ZDvlXrz5TVkKTIAqs+y8W5fy80DU9+/Cry4gEpj2lqpM1+X9ovjr7EC5Tjd9+/GDnrNXw5/2uUy+9LP7kLF312G+YFZotsi7GcEgmj4Bl554yKEHktwOF7HijlqCQp74XTkqwoS0MRqSCdxDr57dExkIe4yGdUxKZcnLRSUZ/Ffk/9g09CII5y/xJEfVGEUwVoCc5wa8+qClGpG01ag9mWMTouZWVlxrliN0U6L3vttZdpuZozZ45pJaJzxpYidgGkI3TYYYeZY6dNm2a2Mw7TGTBggEn3iiuuML/ZHXDGjBkmrcWLF+PAAw80x9tzu7n11lvNuR988EHj4Nk41smiA8X8cR/TYCud7UbYoUMH7LfffuY3ncmffvrJnP+qq64y3REZmA+OheOx7777rjmO8Jzslki4b2Vx/PHHZ9aaO1XUt6GiL7kJjoq1EkIj1cEuiXud2CNybXeT/VtpvrB1XwxJCQuDpTjmlaux1xunYe/xx6HnG8ejx+vHSTgW+407CX/H/kaQH8j1ciYw0SESnKU4VWzaysgNxym09hdg0Nq90DXVDnF/HO0ShTh2myNQEMvHb57/cMsLt4vjVCYhZdJIISzLJD6Z9zVmehahQ6QIZ/c7FQGPbA8w3cz7YM5V8QqYpaJYjKRw1sx0HAsDS3DPy/cjgnLzTbBkgq0DXtnvVIyyVSucTiEkzlZRMoiCRAFCiRBaJn0ojEPWJb2UM/uiMWxF2JwuiWmsVV6EnTtuatIRe1pYWl8risWRSy5T6BItxIHdemPtaHt0L2uHNco7oFukLdaKtJHgLLuXt64h2P2M3wZry/GtlhTBU5ZE21QeWqby5Sz2rO6lolTPKlGV9MMPPxgHZ/PNNzcOS2FhId5++23jGAwePNi0YDEQOlQJcXS4j0s6MHReLrroIuPQcIwVHaXffvvNxD/xxBMr0jjiiCMwduxYc5y7Jc1Cx4nOF1urmB9L27ZtjYP12WefmeMY8vLyzD63Q8exYnQKmcfPP//cbLv++utNntiid+yxx5r8uPNHeK6m0ArGfEYikcyv5oVbbdLhcrotGHPT1MRSiZvuCyz0JRKNArYCpGWLM7cX5cWRGdNvnP+4NDaEk05lqIRjKjgDmHNmrjANkwsJxC6V5oiIiBmz4BNnrEU8gPaxQnSOtETH8hboGClEl/ICdEm3BeIF8KVaiMFaaIxWJ+SjKJ4vxiw/ast2iKRxxNoVt8ZBO/ZHwstve6UQ8UWwRqwFjt/pCJSFA/g2MBM/xmYjlE4gz/SeycPcYBpvfPAOwmKorFfeCVsUdhZ9xzEQHHBeKYVVpdeB23JtV1YvqCVZqeBP+c3nEYYedDE6itxy3GDMK/LppVakfksgLjKf9IREsPJkSwFinoD8Fl2YCokUO+MNPWkv+Mlxnyw5hpHdaNvGQrjs4NORBx5LzUtd7ZxfUZamshxlaV2QyMN56x2LV/o9iRf3vxev9b8Lb+z7kISH8dp+D+CV/R6S8GC14VWJ86pZPmiO4bZnjrgbGybXwM6b7iz2nWhCazdkgqLUhtiYYmWuROzpOc6KTgu7/GXDbnl0RNgtj3E4Xurkk082rV7ZLUQJcaKs03Lcccdh+vTppusfnaBWrVqZMWI8hs7XzJkzzfn4mw4S82IdLOt0MV+77767abliqxudME6r74ZxOf6LrW2nnXaayS/T5JgztpQFAjSUYMZ6cZwauyF++eWXpvVr1KhRZmZIOok8H/Puviaen+S6LysD5pOhOcBCnP845eyXLf/GseMuxNrFHXDX4Gsw/OtRePmfyQglQ/J8GduRU6pW0/1G9Du38EOkeWIJxL3lWGdRZ9x60rX43zNXYk6w2HzU0WmtoA1SWSCYQiEjX5S2pMTsFdkJJx99DI4cfS5axtvg+r3PxrYtNhADxTleaZ5QGihHbClY5ClBWTCFoOgAygcdIbPXFOyOHNj4Fn8qiPm+Mpw18jyUy7Fto61w9c7nYYf22yLpLRX5pNHrQ0BM2jmFJThzzFVIR1K4ecCV6OZpjaCcIyF7OWHHIv8i/Prbt9i246ZoUdAe0VQCYlabFg33Wd3nV5TceMTJD2B+qBjPz5qIUR+/jGJfXOQsLjIXN84aZ7RjRRbh0ieS6BdHjOPBkt4y42Bxe0I0JNVg+3ghhva7AhsH1kWUMyOY98IcrCg1YMteERWRmXQ4hRd/n4qRX74m5fYS0awBBJJhxOKlSPq9ou8cXUsdnA2/48j2C8pmnj+AqKwswQIUBcMYvNYAHLfpQWZomFNF64imk5rSUNBuKigoyPxqHjTpFjFObMFJOejIsFsfHwADfz/22GNm3TFYnMDJMdiF0XLPPfeYlqrDDz/cxH344YfNdjpTZ599tjmGsyjS8WGadMLYcuaeLINYx4jju+go0Zlyw5Yspm/HljEtxvviiy8qnDDC48LhsMnT9ttvb9LlxB88hudm+OWXX3D66afnbJFrCvA6mx9V663YolWUyEPrmNPi0CLWEi1jrUwoiBeZbW24L5Evcb1m3ELCQ5cqZJQua38jPk6CwC44cny8AIVVQqFZFskyX85TkAiblgmnbU3kpTneYiUntsCmYdou1QJdSvLRsTiMLmUFWCPSQkJrrFHeVkJ7E7pmljZ0LGuNQpHDAn9HMQqK0LWsHbZvvwGi4QiiNHw9lCpx9UUm25V4MHyfqzDqkJuwAdrIvoA4aQExLkTq5Pyd4u2xd/e9kZ/XFpFEXOxcH1jByzzy/bBBUWonjXJ/DK3iYZzWYgBeOPg+nLrVAegUbY1wvIM4V/mIcBIFf0R0JSeC8SDIcWPigJUEylAWEAPX70FcyspCTyE2SWyI5wY8gE2C3RANiGxSR6pAKnXCERRWuqY8UTz+3Qjc+/WTmO9bjEW+JOaLnPITICf2OArn9zwB5/XKBK5XCSfirN4n4lzZd/w+h4iOjYuslhubLhKPY/Tvr2L4p2OMTUDx5Aee1QlT6sJKbxGz7L333sYhYZc+tk6x1YWOSiKRwKGHHmocJ8I4f//9N0455RTj5HBiDjpfHAtGR4YzKdoWMca1LW1Mi90O3Z40Hav58+ebiUA22WQT0wWScPwZx3fRGWIrGFu47G86exxL1qJFC9PCxnFdPE+vXr1w8cUXm/Ow9Y1xuZ15zM/PN90Rma8hQ4Zghx12MOcZNmxYRQsdJxDhZCOc5IP34KWXXjLbeV+YRlNoEeM1sYWPoTnADoVUmGwR+6Ll3zhu3IVYs6QN7j/8OvjjXkSDcXlmNJNNh0SD4yOJehWZ4nx3P077AU9MHo5pwflYt3QdDD3xSpw++hzM9KSwVWoTHLvbAViv21oojztdOj1iGDv1H0wx0+3G60OrWBjT82bitDFXoyhaiOv2PgvbtthQW8SaOaxZZcU+v27jFNuUMMpHBkbISJ2Fvxzp8YgRG8Xw6ePwyDdj0aW0Cx7c/2p0C7Q3g9HZmZZdZgPppPx2vqeTLw5/3JsWJ4ytEXJGkS/Ogmi6j0kIpFOQmCKTnEZfYqTMIBxFqTc0fNk8wBbVQgTgicZRmp/C9PxyjJ/2Od7+airKI0sQTZaiJFEOb2EYASn7gyk//Il8BD1B9Fh/Oxy1QX8UxVvAF6JcsgVXlk20olJpugTSPvxSNB1njrkSSdFrccomW8hEntpHW+LuHpdjI383pPzUjLkQPSllNdP5uOAnnPnatWbKemrIFO0BbwwbL+qGhw+/DUHZ6uhXR78rDQuHJzUnmowjNnDgQOOw0MinA8JxV3RC9t9/f+PA2NYvwnWOFeM4MDouhI7MHXfcYdYtjM+ZCNnqxbh0lux227LDfeweSGeODtDll1+OPfbYw+wjbOVi69X//vc/kzfm5ZFHHsGYMWOMg8Rtt912G7bbbjvjqDBdOn9cZwscHUZeD509HrfmmmtmUnbywRYwpk3nk8dwOvvzzjsvEwOmuyPPyfOtbOiQcqZId6vjqozTMdFjpg1n18QTX7gYLaMhbODpjM4F3cw4hhRn7pI4FQazOFJ+Ucb+VBrtxKnvudGuaNe+A4Z+/xj+/OIP3HriEJz51HnYuHA9XL/vpfhqwXcY//VkMbSdCb/tmY0pLQqd63TEyDTvdHy35Fe0FqPjhr3PFUdsI8mDGhzNGbpcpqA2oiGyYFasnGR2GGfMgQU+TQc6buyW+HOLf3HScxcgnkyhn38HXNP/IiTScTFi/WIKxCQ+HTIfvJz0QPQLqxT4YWiembMrcpIO49IZWWRMnpXT5su6TyRWsuB0TVSU+uFIsvwVuWPLa8JPLchPMEh5mPCyQ5gYxMWYF56DB75/EZN+/hJX7n0idmmzGfLSLRCKiTT6/Ih6OGY7KmIqxi67hpnKLEWpH4G0Hz8U/Yszx15CVSf2F0csshKK3WiDOHer43FAt70RSVU39IK9F/i9RQ9eTnyKq9++V44LwSsyGUgnEPMmsV7JunjosNtQKHHTYtOZr5Co+mxw1BFrYrDlzI7rWhZ4+dYxs87ZsmBvI9Po3bu3cao4RsymT2esJmweeFxtcVcWvC62zNH5XZ571ZSgoRAWZfpZy99w3LjzkE74kAzQSOW3nZa+RprBjkLmt5pEASeLcAT64Ph9B+LuMQ/h0MFHY9Rjw3DZMefhpq+fwPhZU0RJByQ2HS4eTUPC1KGZ9OzLZ4zrlBjMck7Objd070uxU/6G4DehVI8rhNLI7q5s0SoSQzYa8uC8Kbfik7Jvsf68Nnjs6DtRlAyLbIrhmtFHphJB/nGMorONqcgys3BWiEqZsmJwykbKYNVyjerVl/IgIo7W7T+PwPu/f4ybdroA27XeHEkfv8VkZdI5PskyUtY4gYdKq1Jf+JmQ//Ln4fSxF2GuX2wYKW+NZHkj6B7pgrsG3IIOSU4/7+hEDz+I50YimzHhUnx/2epfHD36EuQX5CMR4ec/OFFSFBuLI/bg4bcjyBY32cb0ORmXymvD0twcsaZp8dcRKng6YYkEZwxbdtgatbyOBY/PlQa3NQcnrHniGKnsxpWPELrG22JNCWuXtsY6JVy2yQptsZZs7y7LNtE2aBErEoWbwNvlH+LX6b/izD6D0V6U+5Fb9cGfvlmYMutzMw6MY8DaRwvQpbQFukraXUraoLOkwdBV0ltTQreSduha1grtI63QMdoCrf0hM4sYuzYoioPHFPjsXsiJDn72/Ycfin8SOfTi0K37o7CUFVIpcbic2A7Oj8pNmbWKDVyp3EvceiyXTlOU+mOrsFwSJ56Y6RomlqovHYRHAiuqTBmYEuOkIkjZyu/liRHMiqqq0qoodSPhSaGblLFX9b9UfrVFiY/t/16Ey1thK9/GWDdeILZkmchfwgmeqsHjiZmZO0v9SXSMtUG/rrsiXRIXWaUT5kFRWRsc3/tohBLigIlNynoEak+VV6U2VvkWsaYIW45YmNhZHmvDOmJNHdsiVlpaavK7qosO27VYK8vuW2wVCyTEGJDtLPzNSjZyuWlvOUpjizGrTRr3fvoMPvv3Oyzyl+FA39a4pfeFiIqyj6WiuPuXZ/D8f5PRsrwIWxdsiMv2PQUdiovg94Wp+yuG3lQ9jciBOIVpbxQl8TLEQyFTUxIQQ8TW0imrL2y9ZdcYTnW/KBDFqa9cg+89/2Lbks545PDb4UuJbNGQTbNiynk3+ZehPu+rjWt1khYRyoqA0pUS4zYt4efILEyPlWKrovXQIV24VGuY+SvbOBGCOmPKskENylYqL/4NLsHob19DZOFCHLv5gdggvzviUu6m2IrlrflTQZTNsNgKiaAHX6T/xvOfjEc7b0ucsPE+WDOvHSJpdgmnJnZkXGW14dGuiUqtsIWOrVtsreMYMvfMiasydMQ45s7dNXHVFh/WyDqK1Zb7nACBs8hVB6cDpyHsSfgQ9acweskHuO3TJ7Dxkva45eBLkY5GsThYjEsn3INFKMbRHfrh3B2PRzJSDo/fh9JEDH5/ED6f0/LJ01beQU6Nn0RA0gU/EyC5oQPG/OhLqlhDgsS8XnwQ/QEPvzkC5+9xLHZvtRm8Ka8YEyLPYkxYrHzV1xFzo0WE0vA4smy+HSbyFoYfibgP8VQS3gBNWDeOOWu6dRudqCj1x0ich4MEkgjGAwilCsAR4ClfGeIS0uLky1bZUn35TyeOsyEmzJQxHuR7QvBHk2ZSrUSAlVcipyKgVkYdyVUaGnXElNUWTkLiHiPWHEQnl8qt+arkus1BaQSTPszMX4STnrsCv4fmIB1itzFO5EGF78FGSzrhiUG3IJwKI+l1JnJJV+03thROfhzHy+bNqQ9WFGIlBMhDEJ54WoyIlBkoLjaC2V6bjClK04CmrIOj72rTdEa6nVVFWQasxGXaWM26UZxVZKt2KXTD2G45VlYstKP0O2LKagudMLb0NSeoOLNDzbD1zGlBS3jTaB0LYZsNNkPAF5R1jtHxmhnCOLNSV29LtEjlmVpfJlwXA5kxbCFh/ylKJZWyUe6JocQfNd8I4zbTqqvioqwyWA1nZbo2VLiV5aNS3gjdJ+uA0a5x5LA2bCx3bPe6otSXJuGI1fZdquZm/K+KsPXLPgd2teRHqbO7MK1usAbXk/Jjzw13QZdYHtrHWmLNsg7oEm2NjpHO2H2r3ihPma/eZI5QlIaD76T7HeRv7eCgKIqiNFeaYxnXJLomMgv2I8i54KQXZHU3/FcmfEZWVOg4c52zTTYB8VlpsBaDA8fDqQAQ41gzn9wocbu8UTOSxxMOIprmh5zVOFYURVEURVledPr6FUQikTCtLLkMe+5b1Zywnj17ol+/fs2mNY/3nzNBMvB5MKzOThjhk2W3wzJfDGV5MUTC5SjPK0N5KIm4hGi6XGKoE6YoiqIoiqIsTZMaI8YWltdee820gNkwYcKEVWrWQTonDHl5eRXOS3Nh2LBhmTWlNtT9UhRFURRFUWqiyXkJnPKdDowN2cyePRvnn3++mcHvf//7H+bOnVvRMhOJsBsY8Mcff+Dkk082ca644oqcLTcvvPACjjnmGAwcOBBPP/10ZiswcuTInA7Hv//+ixEjRuC7774zvxcvXozLL7/ctHxdcsklWLJkidkejUZNGmwJY3jyySfx1FNPmX2EeeHvQYMGmfDKK6+Y7WxhIp9++imeeeYZs8589e3b11wnuwMyzrvvvotDDjkEp5xyislTY/Lss89WOJqKoiiKoiiKoiw7TWaMGJ0mv9+P8ePHZ7YuzS233GIcETu5B7sy0vGhs9WjRw+z7ayzzsIvv/xi0qQjxzRjsRiuu+467LHHHiYOHbB58+aZFjibVn5+Pl599VXjbAwfPhzXXnstdt111wqn49BDDzXTtrOV7ueff8Z5551nzs30GYd5GTp0KNZdd10cdNBBxikMh8MmDzwHv7/F9X322cecl3A7W85CoRDGjRtn9t99992mVbB169bGuWPajM/zbLTRRvj1119N2jyGxzO/nTp1MumtaNwfdFYcWFXgri6gtKibqiiKoiiK0vDoGLEVCFt86KjQKWPg+m233WYcqenTp2Py5MkoKioyTg0dAjpOdFDuv/9+c/zHH39sWsM22GADTJkyxcR//fXXjYNz8803m/TZSjVnzhwTh90eGe+uu+4yTh7jDR482DhVN9xwA8rLy40TxOOKi4vRqlUrcx46acwTj6VjxvxwPNgmm2xijmW6dJS4/vLLL5vf7KJ43HHHGeeNThfzP3XqVJMvOjZsGeP5ie2KadMeMGCAOY4OIOO9/fbbGDt2rIl/zTXXGGfNOozKiqdi3J/cc64n2PrJn155fhL4XOyztM/GBrudcqXPTGko3DLnXif2t22ltyE7DvUVtytKQ0NdR9nKpfOsHFo5Je543Ka6UllRULZyyRfllbaYWyapIwm30fbkb7fcKiue5nivm5QjZieCsEYqlxR0dleko0TBZ/dAwv18SdiCRseGx7LViw7Svffea+IQpvf888+btEaPHm1+89gffvjBHMeXbfPNNzdOFLcz7LDDDuZhW6Pk0UcfNcc98sgj5jdb1rjvzDPPNF0UeU52H2QemEfCPPMYOmTcxnU6gF27djWOF7tYslWuQ4cOJv7DDz9sljw/02arnB1fxvMwPXaD5DXzfPygHe/NX3/9ZeIojQPlgs9gzJgxSCaSFUqYzy0RT+DZkc/iueeeM4GtlR988EHmSEe+2aJJebTHKUpDQPmjXH7++eemAsptMHCdXaops+6wcOFCcxzhkl2q7W9FaUgohxwOkEu+WC67w/fff19FN37yySem0lVRVgSsUKc9mA3ljsNERo0aZcpsVqjb4S+UY9ph3EfbzupbRVkWmpQjRuFmS9GkSZPMkoLP8WB0TOhwlJWVGYeE8ayTQifHKm22GtkxZozDwP3t2rUz6+yyyP0vvfSSOf6hhx4y3e169eqF9957ryIdtnjRcTv77LPN8SxAuGRrHDnjjDOMM/bTTz+Zbo5sDTv11FPNPntudhvk0jpzPJ7rdL7Y6nb88cebY0844QSz3+aXcXhuOnAWpsmw9tprm9/2Ghsb5m1lnLcpwWf07bffGgU87kWnO6mF61TY9j4xcDzgYYcdZlpXqbC//PJL46QxHUVpSKhz2IOA3Zu5TihnlDs6aNYQplxybO1JJ51kKrisvNII5lJRGhLKHHumcMwzy1karW79Z/Uh5ZDh9ttvx/7772/28fdHH32EN954w/xWlIbC2misuL/66qur2JLk/fffNz2SrGyy3D/iiCOMc8Z4tCFpB3DplmdlxdIc73WTcsSqgy8BuwVyzBXX+RLwYWQ/EL4Q3G+dNMbjy8V4XLdjqTgui04eXzJ2a+T4MHYRtOPG7Pn++ecf/P7776ammV0Vbbp8gdn6RmeRhjedOTqKJ554YpU88dxueNyWW25pzsuChYEtevzNGj+3EuA5a8LGbUyhPOqoozJrqzeUBbaAUiFTXiz2mRx55JFmIhYqbbaictzgBRdcULGf8qU1aEpDM3/+fCNX1B3//fef2ebWD9x+9NFHm/GurGSi40UHjXJp47l1kKI0BNSR1JXUgawkYIWpWy4pc6yssoG9Qbp3746rrrqqUcs3ZfWC9tlvv/1m7D9ix+RbWPHPsUh2YjVOyvb444+b4SbZcskyXVGWlVXCEeMLw8kxKPw33nij2UblzcAWJc5eSGzrEmvY3NAgZmHAGmB2JeSMiuwiRjbeeGM88cQTpnD46quvKhy5Bx980LQ8sVsga5TZXdHC9NmqxXzRqbvssstMXjiOjVhjhk3X1nkjfKk/++wzs93mn4Efs2ZXRWKPdcPrdse3cL0xFQBb8VZnhWPvN7uWciIXGrapZO774X5ebDFlt1TKAn8ryoqAhqudUZU1vNQbboOBOpC6jHLI7dRv/M3t1GVqTCgrAsoajdq99trLyBgrJCl72bh1I8tb9mBRfamsKCiL1JO08ag3r7zyyio60JbXNpCWLVuaZW0V5YpSH5qUI0Zhp9GaHfhybLvttmYmQc6ayG1sfeJMiWy14n4G1vSyRphjujieinEYd9GiRdhzzz2NsdGiRQszoQdbNA4//HDjRLGLIAsGFhRc0jBhd0YaKUz3gAMOqPKCcrwFa5zpQF144YWmGwXzzpYxa+Rst9125mXl+bmdx9OBY9qcVZHG0umnn27yyYKJ10bsC98U4TUw/6traw5lg60IrK3lc+azY8toLuxz5JK1aOuvv34VGVKUhmbGjBk48MADzURHrN2lvLqNCeo/6iZus/H5LnM7K4dIU9Y/yqrJHXfcYRwryt0222xjxnmzzMsF5Y96kjMH22MUZUXAHla2goC2ID8HlMvBsvqTssgeUrQLrb60uCu8FKW+rHQtRwGmkLPbYHWBUDnTCGZrFl8CvjQ8jmPIbr31VvOS0PBgdz92v+H633//bRQ+x0Gw5oNxeAwHs6+xxhrGQfviiy/Qtm1bkzZfQqZNw4SwtYywGw+Ps7APO6fJp1PCrj18mU877bSKVjvGHTJkiGk1YVodO3Y0xzFP7BLJa6IzyJea+5hnOx0nu0R27ty5yovNfNNRs7UxFh7L6+D53PlTVgwcqMtxNpQlKmM60r/+9quRTbeTdfDBB5uw3377GSed48Mog4qyIqCuoE6j/rKGKyucqNPoaDFQP3DmV1ZW0VljoM4655xzTHzVH0pDQ5mi7HGMFyss2euEn5pheZctb+ySyFYJBs4SzJ4m5557rlZeKSsMfi+WthjLddpm1J/ssUSZpU6lDNKGZFnO782yQp7dEzk0Idthc9trilJfmsR3xOoKs0oD2L4EdLKs88Slu7XGKnoew3W7JIzPF4/Y7VT4NGLs7eA2tmbR2WENnvt4xmU++Jvntd8MI9xuHTkeY/PEpd3O43msTY/XwX38zWMYrEFF7LltHi3Zv1c0PB+vg9fI5eoGWxnY/ZUOtkfuezgYEqPidVxx1VXYYfvtTRwqbc7GaZ+7+9lxyc8OcHY69jNXlIaA+oNdpTkWka211G9ssWdFD2dHpG7huBtOgsTJYwj1BuWTlQTUhVxnxYHKpdKQsMKUDhV7r7CspA5kZSTHZnfp0sXoRxq5rOAi3E9ZpExTRvmb48o4MZadWVhRGgLK3RZbbGFsPJbXdLo41t9OwMHKdA5D4PwBhHqScsmynDAO02CZTiirSuOg3xFbwVAxVwcF3TphxK7zBeE+68y4Xwi77t5mnTBit1uHxh7P2cf4wnGsmN1uYVymYc9vnTBinS3CY2ye3NttAWOxBRTh0ubFYvdlb8/+vaLp27evuY7V0Qkj7IbIj2qzFq1jhw5o264tevfpgzuGDs3EcLDOl32WXNK4UJQVAd9JtjZwIiAWUG3atDEGBuWQhgOXDLYygIG/baWWXVeUhoRyxu9csjsie52wtwd7dfA3J+6gzFH2smH5Yss2936u54qvKHXFyhAdLOpGVl5RX3IoCuWSepRlNQP1KuMoTQvqleZG41ry1dAUFSy7+tDZck8jv7rTHF+A+sAxNXTG2J/cBo41pIFL+XUbD9Xdq6Ym58qqD7u9sjszJyXizKY20DGzkxspSmNDR4u9CNiVm+Ow2WpLGeXkWuzO766cJNXpTNsCoSjLC2WM5TT14k477WR6uHBGRHaN5WzHbKVla21dy+maynpFqStNwhGjIDc1YeZ3T/i9sezCQln9oLLlOAfWltkWLgbW3DJwPA5n3rS1aDUpccZnK4TKldJQcJwru9Fkyx1nUWSXLsocK5VqM2hVJpWGhOUnKzLZqsDusrbVlXLK8TevvPJKRW8W6taasDqXQVGWFcoe5fDHH380lajUjVauWLazksB+U5blOeNWJ3e2/NfeLo1LTfbVqkqTGyPG7OQS+samqeSjKcHZH/ntNDbrr05QDigPNChsd1Q33Ecjl0YFFTcVeq7Xym7jfttNTFEaCitfVq5oINiuNnZcLA1jrufCyrmiNARWL1L+cuk+u6xND2bLtaIsL1amuKRMEiuT9rfVmTYuy37aAIxDuGR5z+7g3K7y2XjoGLHVBPtS2ZdQqZxkZHXDrYhzwXtCY8PWrlUnM9zHYBW5oqxIKI+2lYsOGGWvOieMqK5TGhKrFy1WN3JJaPDa9ZpgnLrEU5S6YmXPOl3ELZvEjp/Nxi2PdNR0HJmyvKgjptQLNdYUZdVCjVhlZaMyqDQlarJjuM8dqoOVDG5HTlGWFe2aWAtNLT8rC3sf2JrDKa+bmNisUth7p3KlKIqiKE0f2zXRQluIzpjt4aLleeOhXROV1RYqHNYA0ZFQR6zuWAWtilpRFKVxUH3bvFje52krkxuKmtJS2VPqQ5NzxJqaAOsL5cD70FzHNvHabM2We0xDQ8E07SQezfUeKssOx3FRRiiHDDQYOL6rIbBpsibXnkNZPbGVZ9XJgd3G/Y1Z0cZz8ZwNja00VFYN7DhWtjxVJw/cz2e6LHrMysKyHp+NOy/u9FjWrwh5Vhwa4tk1NbRFTKkzNBhrm2Z4VeT222/HFVdcgbfffrvejlJdCnpOkHDooYfiq6++qnGyBGX15P3338ezzz6L0aNHm/Dqq68iEomYfctb6FA+aZDym3f8dpNWBKzePP/882bq7lx6659//sELL7xgDMnGhLJ+7bXXNvjMc7fddluzLK+aKywb3333XYwaNWopPUW5oHND+aV+XJaKqkmTJuGQQw4xaa9IPchvkn377beZX4pSO+qIKXXmqaeealYfuKZCP/DAA9GpUyf079/fFAD7779/nZU849bFEWMhwmCnw1UUN6wAmDBhQoWB8Pvvv5uPiz799NOZGMuHTZeGzPIYunwvWKFAma+L3CtNj5EjR+Kyyy4z8pD9HC+55BKMGDGiQl+tKObOnWv0Liv2eB46YHQCl/c7dgMHDsS///6b+QX8+uuvmD17duaX0tRh+fjaa6+Zcvj777+vkFHCJcemP/PMM0Yv5pLf2rB6sL6yTdmk3uPHyetybH3zpdSP5nhv1RFT6kxDGYZNBRodzz33HAYPHoxdd90Vjz32GPLz8/Hyyy/XSZnScKhuSns3buW9Ig0cZdWFHwUfNGiQCfzQ6NixYzFu3LgmVejQkWNrSV1kXmm60KF2TzpgdRK/D8lnTJlbXqeoJj3Hc7OVli1hNIxbtmxpdK89pr460sbPbsl79NFHsc4665j9NaXZHA27VZGCggIjDx06dDAtpMRdKcpeK2uuuaZx2Cg/NT3T+u6rqSthOBw2+eBSZUVZETS5WROVpgs/6PzWW2+hpKQks2XV5Z133sEdd9yB119/3ShZKmcq9zfeeAOzZs3C0UcfbbbRMCZcp+Hw4osvmq49LCiovFlwnH766dhzzz1NbR5rnFlQcF+vXr1w2mmnmXQPPvhgUxO93XbbGWV+zjnnYNq0aRUtZA8//DBat25tfv/yyy+48MILzXams+2225rzX3rppWab0ry4+eabjczdfffd5jlTPhjYnZC1wz///DOuuuoqIxs0lllRwG6Gxx9/fEUtLysQWKnAdRqk7JbFrrCUbcoQl+z2SAOb3XMeeOABdOzY0Zz/vvvuw/Tp0837QM4880z8999/Zp35ePDBB01LA7vwsqsXW8XPP/987LTTTibvX3zxhUmfcn755Zdj6623Nsfyt9J04LM86KCDsNVWWxk5u+aaa8wzYrjllluMfvvyyy9NBQD381mfeuqpVVoCKI+UQz5vttquv/76pvWCzhX1F2WQ6dBopfyyFYMyyVnOnnzySXMenoMwDepTxqG+5fp7772Hu+66y+wnzBvz8corrxi5Zn4WL15sroW/mZ+ioiKjp/lOkE022QQ33XSTacUYMmSIySPT4fsyf/78itnv+D7wWKbPuNTNlGX7Do0fP95ct9tpVVYcvNcs9/j8KAvUc4TyxufBMpT6hc+UXWj5TClvrLTisYyz77774qSTTjI6ir1cevToYbo7nnjiiUZm6PDzWD5jPvN+/frh5JNPNnqRXQqtbFEuKFs33HBDhbwSnovyzu22hwvT2n333U2LMmWJLbPcz/eMthIrepkm41H2KHeE5+S12PT5m3YF5ZXXw4oEyqDV4dTD7du3X+5KkuaAzpqoKKs4VGpUfp07d64oZKkoqfD69OmD4447zihCKlAaG2PGjDEKnzW3TzzxBDbbbDPTrZGKn0qdDhfTZIsh49K5ozFDp5XK1w3TpdNVXFyMl156yfR5v/rqq01hwIKFadLhosFCpc/wzTffmH1K88fK4YwZM4xs8jcD1yl7lBnKEA1Xyid/02hhLTIrBBiXx1JmKFuUH8ql25ikMcA0LDSaaUDQsKDs0umiXNMQuvXWW3HGGWdghx12MNusIUEnjLL92Wefme08z/33328cM6at8tp0oX6h/uNzorzwuX/88cemoohyYmWDRi91HuWAckYDl/qQx/DZ04GiA0T5o9zQEWK3QxqKp5xyCjbeeGNzHHUlDScawddffz0eeeQRkz7TpZxYeaFRu/POOxsdykC54j7KFN+J4cOHG1mlXPOcBxxwgDkPdSbjUwffe++9phLCXhvzwrRp8Obl5VXoXF7rUUcdVfFeMM5ee+1l9LZ1RP/6668q742yYuHzIpTHDTfc0DxLPgfK2uTJk02vAfs87PNlxScDdRJlYOLEiWYf5cXG4fOmw2WhDuOzp+NNmWacs846C5tuuqmRVQbbSstWOFZaEVYGUE6YH+bDvhcc38txvnTiKIsWrrN3AytpGZdy1aVLFwwdOtSckxVsdPx5PO0L2gXXXXedOQcraemEsWKY7xZlmhVk6oQ1T7S0VFY7qCBZaFNRU+lZ3L+5TgXPWjgq3QULFmDdddc1hgb3cZuNT6XKdRYEXDLuwoULTWHAlops6KDRMCCMT8eOSxrQNIip6DfYYAOTR8J1buN5GJTmBZ89W6TYUsVA45bODw1Qd8FLQ5Lyxm00Wtm6QaOFsHCfM2eOWWfLQ/fu3Y38UF5sra2Fx7jTtb+ZDxoDrBSg7PI9Ye0sjWemY2XQwnRpGHOMG8/FFja+A0xL5bTpQqeIxujnn39unjGdaT57Pjf3GOC///67opWU+o6tDZQLBsZloO4ifN6UgZkzZ5rflGcasdZoZc8Atky4DVU3PN6my3SYjyOOOALbb789Nt98c/ObcknjnPupK7t161bxTUuma/PAdV4Pf9ttn376KW688UazzneIFQlcp761cekE2mMp2xwbpDQO9lkRVlJS59D54rOgDD300EO48sorTeusjUt5YS8Uygx1GFs7rXxaXUVHnbjLebbUrrHGGqZCgvF4Dj5rtmgxLf5mjxWmXR02Hs/LLpXUg1OnTjXvlYVp04mjA8V3gPp5o402Mr0NeOydd96Jvn37GtlmemxRZh6YV7boDhgwoOJ94XGEaSrND3XElNUSGrVWqVusgrfbfvvtN9N9gd3C2E2BCpQKNRsb/4ILLjC1tGy5YCsElTK76eRirbXWMsqYUAlT+bIGlgUClS8LEze2ILHHKM0HPlsaBmwBsIE1rayhdWNlgMYuC2RbKHPpNkBZWcBKA8oqj7HyVVeYF2uwcsna6Wx5JNzGCXxY40wHkgYOjQ2e1/1eKU0LyshFF11kKoOoo2gQ0knhM3MbenyOjGvlgEYnl5wAw8bL1kfcTnmjI0NdSLlgly+ei8e703eTLS9sXaU8n3vuueY3W9uoS9nti60YbIGlA+nWxzav2dDZYvps5eB+xmPgdk6M474Gu0/ld+VBOeEzoGx+99135rnzebDMtI4Jf/NZ0sGnjLHbHifysM+aMmiXxC13bLliixP3U04Zh+diWc+KV04kw9ZgKyuWXLLLbcxT27ZtjV628Zk216kPmT925WYrLm0KC/X02muvbY636WyxxRYV+1ipxe6VNlDf5pJvZdVHn6pSZ9icTwWzqkMFScVGpe2GipBdCaiEWcCzxow1cRwbw25fHPhNQyQXbAX7448/jBHNfu7nnXeeUe4M2VCh/vTTT1WUPNfZ+sBzEHfNNPOVXSgozQcWwnyvbOBzZuBzd2+3+zhOgOs0IKxM0HhhoJywpYCtGRam44bH0ACx2LQoq9zO1gzC4yirlEVWXFh4PPPMY7iPtb40gth9xnaPrO49UVY+1G3saspnyDGH/M1Wdz43brPw+VoDketsSeNvtnxSVqw8Wigr/M30uI+GJI1POuq26xhhHCuDXNrzWkeNFV6cRZTHWD3IJXUzDWV2UTz77LNNdzPmw+bBvWSaNjDvPBdbTKzOt3HdFWKMy3Uru/a3suKxz4xwyefNMpQtQ+xGyiEDfI7EPhOWt3RYKGOMy8AeKJSJbJ3nlms73pCt/1zyfJRZyilli5VgTNN2UbWBMK4N9h0glFnOvmzPy/Mxv2zF5VhM9ljgODW27trjWdazeyLfG/f7xLy0atXKtJa588IWOnu+1Rn7LJoT6ogpdeaYY45pFoqAio5Kk0v2ybZQiXJ8jK0NY4HMiTloIFBRchxFLiVARWqVqC3E2Q2HhT7P4YbxWOPGbju2dotdMBiP43y4jYUJuy9aWCtImH5zVEJK9YWLfd+4365zSdliJYGVOxqp22yzjTEAWOCz5pUyxf3z5s2rkj5ljAW7hV0LKeOUf7ZAcJC4TZeGArtKsruQhfGYBvexhYJ5oaFLA53GB98Bm1elacHnRhnhkmNXjj32WOyxxx6ZvVVht0A6PHyWlCW2OlgD0+2sWOw+Ltu1a2cMY+5nXLYMcOyNWw4pN4zLQChDDGw94NhEmxaDPQ8rsLhOGbQzLdp9XOd293GE+nmXXXYx44CoWxmfLWo09tmtzOLOG+PY45XGxT5PdhWl3LHVkg6NG8bhcya2/M2WL4tNz0IZ4ZgsfleMkyRR91F3sTsiK5yYBlt96QTZcxB3Wc40+ZvvESthmcY+++xTUXFAuJ/yxcm3mCZtCDqBFnZZZB74fjBPPCcrGpg2nc8pU6aYePzNOLwH2deiNA/UEVNqhS+/DYQKhQoql9JbFWD+mXcqbjpedIzYfYAD0TlrEWdM4vWxFosz2dEQpYJkrRw/1GgNAxobrJWlI8VuL+xKxnEN++23n1HiPAfHMhCmx8Dj6NCyCwLTpCHLWes4YJdQsbNrI8/LfYyz3nrrLfUMlOYDnzllxYZs+MxZENPgYFzKLwd/c0yClRHutwO96dBzfAG7CnI/C3XKnjUkOFkCWyfssfx0A48jO+64o5FpHs/ASgk6fDRgeQ4OmGcXHso8u9XstttuZtIQbmOLObu8KU0TK1+UBcoQnW7Klu3+R71GR4gwHnsE8Lmz9wDl5M033zStBpQVa4S6nRXKBw1Sps+uhUzDyhKNTnZVpAxTPhmHOtfqNP5moIFMB43jgWy3Rh7H8zBNGuXU15Q3Gr5WFxP+ZoUEz8W82LSZT8ol5dXqerbg8lzMI/NkK9sIj+F2Lt3Gt7Ji4XOiDFAG+Vy5zjGIbdq0Mfu5nc+V8RjY8s8KVeo5PldWWNKhYcsnl8QtH3SS+DytrFFfsrKAUMcxLuXNjtGl3HEMIif1ojxwO7Fp016gLNFBotwRps/9jE9YtrPSy+aR7wJbz5gntoixIoRjfamLOSPo448/bq6R+6hPmQe+ewz8zX2rO/Z5Nid0+nqlVqyIcEkFw0KL67YmalWFSo2Kk9dE5WmNEG7nbypmKnyuU3ETXi+3U6lzu1W6DNzOY5mOvUdcZxx7HGvcqNwZj78tNg2eh33iaRTY+8sWDs7MSEWsND/4nIm7kLXvFWXCyhP3c6wMB4ZTLik/jGdlyb3OwGO5jYHrxB7HJbGGJuPwPFbm7H4ex/gW9z5i93M74T57LqVpwWdL/WKdJSsXfGZ2nUvqK8qRlTvCZ0zdZY/lktusXiSUJeotbmMa9nxM38ov4XnsOazcuM9v5cvuc8M4TJdxbD6YT+aF6dl0ic0PtzEuHTzuY1yrl+21M02bH3sOHmPTVFY8fC72eXDJ31YG+Ez4m4HPxcbh0m7jks+KS5bPVk74m0ubjn2+hHLA35QjG5dwG+Hz5zplyZ6Tk9ywyyQrs3g8sTJij7NLpmfXeU67zrSYNvPN7sGs8GC5z9+MY6/byq9dt/p6dUenr1dWO6gYGKgQuKQy4LpVFqsqVlHzmqjkeD0MVvFZ5U3laGFcd+FsFafdzmPsfWKwytfup8K3MK4N3E94LGvaWFtLJc6WD3YtY6uD0jyx8pELyiNlxsolC36uU664JLnWbXpcWvlisPu4ZKD8MlD+3fHtOnHLqTVMbLD7ud3uU5om9rnyWfM58TeXVnbs0uo76nn7nK3ucj9fbrPHECtD9jimz/1WB3KdwW0Yc8nzcWmDxZ7bBouVM6bLdabHdK3e5XYGpmXPzaXV1TzGbrf55zbCbcRem9XzyorHPnv3c7EyYZ+bW3Yt9llxO/fb7oHcbp+nhfFsXKbB52vl1W53H0PZsnLlPifhb+63suQ+zmK3MzA/PIaB64RpW6fRXhuxx7jl1JYDSvOjqmQpSg2wyx0Vj7J8WGVbHez+wxkd+T2zTz75xDhjyuoLC18W3rZwVpT6Ul8DriY5cxusNcXjPnvemuJZastjdWm4j6vvdSpNl7rITG3y5166qUvaJJc8sUeC/Rh+rv1Mm9vtPvd6feFxbt1f13wrqxbaNVGpMz179jSzWbEJ3SobpWr3AypNYh1W+9t9r7iuClWxZMsKccsI17lvRb9vPJ9blpXmg5WdhpAjt5xYWbEybLHncZ8rl1zlOj5XPEWpD1aGrAyuCJmqLl1uc8v98sLWM7aMKZVo10RFUapglXFdlf2KKBSUVRfKQ7ZMqIwoTRVrgKqMKqsCK0pOG0v+sys5lOaHOmKK0gC4lbLbUOF6Q9aOKc0PKytu3L+tHK1orNwqzY9cMkaW53lbmbRy4w7LwvIcqzR/KGd11YN1jacoTQF1xJR64e4+pTjQeLADg7UAUBSlqdLQ+kn1ndJUaS6yqe9Y80etaqXOsIlcm8lzw/uiClNpKFSWlMZgRcmZTbe2Fi7GY9CWMKU2KCMqJ0pzRCfrUOpNSUmJUYgqOpXo/VAURVkaqxfViFZWB9QWWPHoZB2K0kShAtTCXlGUutDc9cXKvj7VxUpNNPf3r7mjz6/haJaOmNZGKIqiKErjowaaoihK3VmhXRP33ntvs8xWylOmTMmsOTz77LN47LHHKr7Mb7N05JFH4vjjjzfrlj59+mTWKuEEEm+++WbmlzNe58knnzTpWmwejjrqqKXS5PexmIadiMKef+LEiVW6VTz99NMYPnz4UhNWHH744TjxxBNNXHsem6YbfguC+QwGg+Y3448aNQpPPfWUWbeBaRx22GE44YQTTDwL8z5z5szMr0omT56cWXPgdT/88MPmi+3ue8988trd25hP+5V3C7/gzmdk88+vvzOfI0aMML/d8KPDgwcPzvxy2GeffVBeXp75VYk7TT6j5557rsq12/Fn2c+I5+/fv7/5Aj5xp/HGG2+Y+2mvaeTIkeY5ueG+QYMGmby66devH6LRaJX7QaZOnZpZc2A+H3/8cXOfmE/Ccx977LEmrzzepsE07XVYeAxlic/f3uvsfNp7QJnPzidlnunzeHt+wufuzjvTo9zbbXbJe+l+Rtzeo0ePzK9Keff7/eZ+2uN4Pn5Mmu+mG8rVwIEDl8pnr169zNKmZ9OZNGlSlXxTPocNG7bU+2Hvp5vevXtn1iphvihLTJPrhB/BZpoWPgPuZ5oMbpimzZsbPiP3s3vmmWfM+864VjeRI444Asccc0zml3OdlPlcz53f3bPr3M9nRJl3p8fj+Xx47e57Yp97Nu40Cd/N+shnNnzuL774ojnent/qOm7jPbbbc8knr506g+kQm4e33nqrYp3wPaIOsXmx+0466SQceuihZt3St2/fzFplPL7/fDf5226zssR82nSpDwYMGLCUnrfymS13zCexafLaGezztNt53e7nTtzvkYX3wV128P6NHj3aPHdit3PJ55OdZnV6ie+7O+/UIbn0J2Upu+xgmu7z2uX48eNNfm0avG4+Jzc858EHH2zKODfVySev3Y1bfxJ7/qOPPnop+aSepyxlQ71EbBp10Z/2PJQlps/nYLcRvkdWZgll6YknnljqmihH2Xopl/7kO23tED4Lbud7la0/eQ0s35uS/uQzct9PwvPzflKe7Lm4zd5PwjQYeL18JvZDx4T6076bxMonr5v55Lnte5utl2y6blnib6bJ82TD8j3X+559j0j2+15X/cl9++67r9nvhvtYTtrr5Dl53byf3MbrZByuW5l3Y5875ceen0u3DiF87tkyT/iuU54It/Fc1vZ2w+2UT+bPBupjtw7h+8B81iSf2ffU3k/7fJlPtx1i85mrLK6L/uTSXrt7G9PnvczWn6siK9QR44PhzbIPxA0LVbfjZW+s/U2yH3h10FB3K1T+ti+Fm1z5cGPP6z5/dtrV4c4/sdfuxqblvk6uZ5+X94bGbjbZ56gLNk33edxp2JfHTfb57bOicnG/nNXlxebTns/Cbe7nbu+HOx7Xud06qxYaJvY4e17Gcyuv6p6VjZ+dH/7mM3Zvd8e169Vh49h7WFd5tccxv26y74XFnqOu6Tck/Hh3OBzO/HKwzzBXXlno1OV9yQUNMKbrvu/2HNnb3L9Jdc8+V9xc+Sa54tltvGY3VhYtNek6C/NIvZR9fj7X+spQTfJg80K4rC3t2tKy2Hy6r5Hr1d3j7O38nX0eey/su1wTbt1B7DNnGtaoI/Y8Nm031Z2npntgYRwe79ZNuc6Rfc38bfNqtxF777Lhtlz5Z/y66E/mM/tdyHV9jOvOa3X3wG7Pzk8ubHrZabtxp8M4TJ/Udv8tNj+8fjfZ96Iu12axx/GY7OukbPHYuubPTbbMEntvss9DmpL+dOfTHZ/30j4zYo/jNne87HNkp+P+zfVsuM+dB94bUt39caeRfe5sapMHYs/tjpsrn6S687nvU01puPUXsXGy03X/tvJv70d1x1jclWXEHY/2la24z6VXLNyXS38yrk0vOx/2tz3WvT/XOdz5sula2XLva07oZB1KrVhFxBpQ1iI215dBURRFURRlebAOhLL8WBelOd/P+lfxKKsdDf0C8MVS/19RFKX+qP5UFGVZWVX0h80n7c/m7tSqI6Y0OqvDi6UoirIiUP1ZO+qoKiuTpvx+rir6Y3XSc+qIKbWyurwMiqIoiqIoitJYqCOm1Bk6ZHbArKIoiqI0RbTyUFGUVQV1xJQ6w2lsq5uxSFEURVEURVGUuqOzJiqKoiiKoiiKojQy2iKmKIqiKIqiKIrSyKgjpiiKoiiKoiiK0sioI6YoiqIoiqIoitLIqCOm1Jm+fftm1lZvOKgyISFlfimKoiiKoihK/VFHTKkzOq+Lgyedgj+dhFdvh7KSoQiyQsAGflzCHbiNcdIV/xSlcbEyqCiKoiyNOmKKUg+MQVFehq+uuAifPv6wMXYVZWXBltm4BMqldbzcThhJylrKOGHqiimNS0TkLS7/krIsld+UV0VRFKUSdcQUpR4YQyKdQrcvv0HxN9+jxGxVlJWDTwzcUDoO38/fYvFzIyQ8g5JnR5pQPPIZ/DN6NPzJtMTzwpuSoH6Y0khQ1MIim6F/fsWcCa+hwNYMKIqiKBWoI6YotcDWhYgE1ugax6usFAmfGLf5eYhl9pVL4Lrb1lCbV2kYqpckj/wzavy9N9HuwZvQ7uHb0ObhWyXcgjaP3ILoiIeBeAQJ+Zf0JuQAbcNVGgfqRETiWHT80Ujdfj3mjBkFv9mjKIqiWNQRU5Qc0PS1DphP3KtwPI6CaATBd98Gxo5CumQx2vz7B+a98DzCf/6OvHgMwWTcdAGjAcIuYB4mot6YspyIJBm5csbaZAQqs6CsJT0+0eR+RAJhLJQwNxjAnGAQi4JhlPrEURPna5Go+qRIssV2X1SUhkUEU/5TVr2iLxfcOxSF6TRmtmiLDgfsh2gqZkS3uqAojU/VDttcZ88XVqxGM4HrDLl0pvtolWFlWfCkdQYGpR5QXDwe1sI3U/g2SIh7ndVgfD6Sr76Mfx99Gt3LSow5G5F95V4fgmlx0BLifKXSWBQuwh+hANY+8QR0HHgUYmkvgmytYCJa3aHUkYz4ZTDuvGnz4igvThCTEksg7g8YkaKj7+fOv3/Ev9dehsL/5op0JuSYpNNOlvaIQxZC0f6HYI2Tz0NCDvDLATQyaCgHJfBcpsKgGb/SSmMiwiRyVy7ylLfgX8w6oC8CRe1RcvgxaHnsSWghMSi7lTJeFRVDpbGhLqSzRagTK6qr6HXZHxkdyfG45WIDUReHvH6zm/qWepprHpFuR2MrSt1RR0ypM6lUCl5v8/YqaKRSuRpVGluC2UcOQquZMxHJLxBl7RFVm0YwKRparFe+OGmv01oRkAMC0SQKgmH8GGqNVmechy779ERStle2QyhKzRiZclYNbAfj+C7E44i8/iL8eS3h790HcW8KgUWL8PtxR2C9+TNQ4g+hzEdJE2k0nhWP9cKf8qJdLIHZgSD+63cAtr34MrMPxSV47sILcMQjj1TYG06Lm8qrsqyI9KQ8KBFxLUyU4b+TD8ca/8zEG+HW2PeN8bIvI1m12alqxyqNBMt7OmHsMhtKyVpMtOHHH+Or119Bye8/o0UqgWQihYW+AAq7rIFOu2yP7kceIUqyADFPxh5Ii+vlsdULFF4VYKV+qCOm1BkrKs26RUyUKdsTfNES/DKgLzrF4ij3BuBPi+GbTMm109bIvDIpWZp1mrApJDxst8hDi6QX84Mp/NFnIHa84GKETGRFqR1KEwPfMLukoRBePA/zB/SBX+yEb9t3wu4nnICFd92FsDeJ0oRXXC6RPQ9rZnkc/zqkzLtK2U0i3xfCVwWtsM0eeyH62ouIp0W2jzoT7U88SYwJtqBJ1OZdz6IsJ9R0dNwpJjkddpGhhIic/4cvUH76CfivsCO6Xn8z/NttIzIWE4EOGv3qxv6y4ld1r6KsGOiE+SnN8Tjw3bf4dcgV6LpgPkLJOCLeFKK+FHwpKftTYZH1NAIi/D6JX5oXwrfBAqx77NHoOGAgyvyFyKf00j4y+lYlWKkf6ogp9YLi0twdMdP/65knkBj5JBbFYkj6/MZAyJPtXEtKiHm9YtwmkPYkUO5ju4UHXjEyWCOcJ4d/2KoIfcdNkDdM2xeUZYfjEtgFdvHF56Doy4+xUJz81n4/IrFyFHt98EtIUcY8Mfjk3UyLhJrKAr6nXg/SqbRpleV765W9rRNJJONplBa1REEiju/z2mG7ca8gJaJrHDHtp6i4cEsDHTCOlzX60SMmrAgaDVR2RXQipURevQiWFePnIw5ExyXFmNJlXfQfOQoB2csKBUZzp8n1bLiPWpMhZ71AroMsNmFFqQGjVynLxQsw69gj0WbefMQColfTScTScQQ8XoTTAXHGOBQhgZA4ZKGkHwHRo2WeKJLJJFp78/Frq65Y99LLEd5pOxFLsQKMcLOlTDsoKnVH6z+VOjNs2LBm7oRRQcv1Fc/GNHHESuMpBOV6QylxusTBiviD+DVYiCVrrY0SXwCzZX1mfnvEE0EEkxJXDJR8UeQzivLR9/GnxD4RU0KcNUVZVtIiT5g1Df4fvsECKeVT/hTmIo7ikB/w+1Duj0twPqIQFBnNT8UlJJCfiCFPZM9M0SHGA+WXFQicyGNJfkDEshQlYmCsW/4f3rnkZKcgMAYu2zwUxYEiQQeMmCqlebPw9ZEH4penh6EsnUKKThljyX/KVxDFwOvPY/3FC7DEF8XG22yGULwc3niZyGMEYSSQJ/IYNgGyLkFSqAxJiZMSg1eSjNJcFtjzwAbCIqi6oCg1QO1WLn+CoiPx5P0oPrA3ihbMwaKAiLYngYTfA3+AlVuiEb0tMLP9JujaYwD83gLEvD5EPHHE6Wjl52FR0I/1l8xA/KLTMPn0E434lcZZ3eC8E07PBPv2KEr1aIuYUmf69euH8ePHN2tnjLPQ5c2fhUWHHogEuyeIQmb9ViiVwr/+MLYeOQ4oDOP3gw/AH1vvgr2H3ITggnLE7rwJJR9PlKP9KD/+f+gw+FAEEqKUvWIwiwJXlDqT0cim60zxAvxx8hFouWguYsk0vGmfvH9O/RkbIrzinHnEGPakAyj1hVDs86GgdUsUSJTSeXNRmBDHLJnEEvmdlONo4FKe+ZfvMQ2SmYV52OjxsUD7zrKZpoqTvqIQmpLU+F7OVPDQfcALI/Bxy/bYaewrSIhjz27bbB2LSKyC4oWYe8QAeIuXiHz6sTgt+q8wH+lk1IwvTlK8UkyNge0GEkQc7bhGbg+KwzUzFMKOw4Yh1qGLqWBgK4Pp+uXlcYqyLPDj4h4ERI4XXf0/hD77AMWpIMLphDhXcfwq5fvOQ27HtKsuRF68BGl/Hn7odSD26t8X0TPOFPkOYFo4hM2uuhLTbrwK+dG40aQhn/wtTeLTzmui59gXZJvoaE6sZPQ0p+9QlJpRGVEUF+aF8HsRi5ZQb5uBuCExBHyyTOfLXjPgKyROlgd50aj5tti8VnlI33gD2rz4Bj7YdBt0HTwQnkQJImKDxNVwUJYRjrXB119h3Xmz0UJkMSSFOgeVW4mi7RoU58wvsvlDKB/dn3sZncdPRd6zLyHwzEtY+/X30P7cK0QOfWjlT8vxSbFjvcaRoxNGIyIm8rluaRlePOd0xEzCWiQoLkRIbBfBBPsXHn0oZgQ82HzxErx54UWYzzgiiHSp+MHm+G03oVUiiYQ3AI83jZa+CFpEFqAoXozC6EK0iRWjnRi57RPF6BgrQbtEOVokJU4ijiIGcdgKUqUolG1lf/0j55Yz24o/u1SUZSBBJywVA264DEUffYRyTwp5ngjS3qjRiSFx/tGxLToceBDyRJ8moimRwyQQ5kiyCPypCL5p3xXYYicW7EimEkhLeuKDoTwvgG3n/YG3jhlkuoWnxbljV3DqWEWpDS11FcUFOxaw1jWcX+C0OKTZtYsbPdhgcTE+Pe5EYMpEeXGiyE+J0SB7gl5+P0wUclFb9LvnPqcK2V8ofwJyrL5iyjIgsseplLHdtsAuPbEoEeIIBAlsUrA4LWS/tO2CPV99E8VtW6OtbO2UEAMinsISnxel+++Lto8+iSXJPDFqmSLl0TEPaNaWiRH9aX4hBtx0F7xJfuMp0x1MUSwZa5KVAGjZCl0uugyhoBcd/vgZHefOw2KRLDaWYcEcLPjkPcyPitHq9SHhiYujz0+J+0Vqw2KcsuNhQAIn7AijxFeI2I67ov0996DDTTej401DJNyItjffho1vvhX5W23r6F4KqvpgyjJCETLyyW6070xG7L23sDAYRNwTwpxgWByyMHziiK1dNh9jb74SoWOOgz+aQFFAHK2fP0PZs8/KsQH8Fwpg8FnHAhPGoV08Ampkdq/1Ziq1POEibDNzEd676GKRe6dHg6LUBe2aqNSZ1aFrIh2xUEkxZh7aH+FYqRgTXtPyYGmRYMeDNJb405hR0Ab+PXqje99eCG+yCeBjc5mjlEmaqYkj5vUEKowZNSiUuiNyJgJD16jdgvlYMGg/RBIJBMzHw9hKm8JCfwt0u/kWLNlmG7QSJ4utFyk6/2mO2PEg4hWTVwyQ8iHXI/nOJPBLeHTnDOXliO23D9pefr0YDSG0YM0DURlVqmGJhBaJhfjtsAPRff5ivNN5A+z43Bi0KI/gl8EHo92imaIHvcYIpQQGREY5yRFnn+O3GVMefuxDluKQTc8vwhYjnsN/bdqB1VZe03GMwud8nylfghwOUcGKsmyIsLFnQalIXMvFc0SHDpINUST8PiwKpbHBg8OA/+ZgzjWXIZAow1xfAm3adUN6zlykPREUiR71pLxYJM5a3B+Wbc5n8fPjMaR9QcRCYSTLFiPP6zN6Ol+keH4gD2vffBviW24jUk7hVYWq1IyqOEVxYXoehsUo3XlbU3drlSj/MiwWn2p+gLW9AaxRtgQbvjYW4ZNOxqwDB2LqyScA0/8Q3R8TQyRmzF26bYqyLLC7V5Esw/zhTSApRkUwbNrJDP50Gr/m5yOw+XZoKcYrjdhYKmGG0Xg5LtHLyRMCKPOGkHfS8SLAnDi8sp42HApi2oISMX/DyKN0y3/riylKLiiPaX9rrH/bfeIghbD+ormIj3wOmDQJay1ZjLgYreUeH/ypNFqIAox4A5gdKECpiCNn74yKQRvzOK273ZYswkunnIw1RK5bJovRAuVi+KbMOThxB1EnTFkuMvqsZTKGfy+9AnkihGyt8ovMdS1OYur/zgc23wIdrr5aSuo4WqeLEJhdgnTaj3QqhBKRxMWeIPhx/GA8hTy2lJUtQGk8gR/3GYROY0bBF/bDK6YCZ1QuS3vRIRLFS9dfL+eQjaxJUJRaUDWn1JnBgweLgmJ9ZnMmgWK/DwUX34hZgTaiuJNm+vAKOFmCcbFiiIqpPNsvjlmhH6Hymdjz1y8QGXw43jzhWDF//WDnBY7JYa1c9TT3+6ksK8aGsOIh/lORlOtJMQCsdcG214hXDIaA13T+4pgEnxjCfEfte8pZE02XssJWCLZqS4k02y3FxWXG6DWz1MlSpVGpGZE5LrpsgOJ1NkDn8mLkP3EnYndeg0SyDGFxvHyiIyPipP3QogPWHDYa6742Fe3GTUCsU3ckUjEkPKzgEvkVoduyZCEin3yGJb4iEfEWsjVohNDdC0FRlgWrzzgBF0ojKPrtOyxMR8znZULJhBkfu8P8mfh88KGY/cI4pDwB0aIxlHsjSHv4zVD2fRHt6QkhKXqWFVxBkd1F/gL8s/8g7HbW8fjtiMHimIk94E0jPxFHYZKzKgKbli4BPv8CUf18jVIH1BFT6sz/2TsLADuqq4//n65m4wkJ7tLipRSHIEWKtTi0SCl1o4J8FWq01CgtVUpxp9Di7lrcXYLGZTerT+Y7vzvvbiaP3WRDbLN7f8ndmblz5859M2fOnHNtjjjiCDfz1YCGGlkzYttr67XWZZdp9korm2I2R6tcctOC8+HcWMFTq1tjS7p6sZ3TzGyd5pje3nHi87p3/73U2NmlLlPOjth2dvghvCz59kgcfFwfiAvQcwgMKLqrANImIzlqXRGkWJhoMaPjYqFMF1hz0CJmQsTtsqXJQiwOJbW5taxmTm5WJ2m8oJhlkaul3dcsk1SnyzV+uuP9yCSfiC5aKRgFGZvPgcEOjntXXZ1G/PYMdWRq1G625gzTfe3pejNCM2owUXynpkFbXnqJ2ldcWV25vKYPHaGx/zhfXfka5aOCiappvSit8R0teuj0U2VHxpkbtMpizNLVq+f2hIr8GqyRpmQ6m8BECYEAeE05BAG58FylS51qNAU33WTwhbpGzUpn1JbKa7NCpNqnnjRZyitXyitVskSmR6lQqCtZbLls6ymT26JaMzm9sc8B2uZbX9Xkg/fX2i2zNSef1VSzEV6sa9DsbI371tiKHR26+ve/S/Q/CAR6JzhigcA85J0S5ls3HUNHaYULrtLYy69T+0c31pRsTh2mnBm4y/u+1hyzpiLtEHl12jEYrmkzLgqm3LeY/b7u/O4X3XdJ3NsAbOldL4xbOi8ykxMxzjiO/y8Y/4bpKQSWa7j/2A3dwe4pS2VKygw1TyyFwRpLCVIzojhH+WLR5I+WBD4qbkmcLNBuy3TNeTWi5u//nxoyJqvm0MVVBzHjVlxFc1x+5sCVMH0rk3VYFA0XtP9CyXJyUmsyHxi8xHqKXgK2HDZSQw86Wpm2OSYnaDP7a6JWSpf0Vm2TSjVNqq1I2zAOzmU0ZqedVVs0OS2b+295NJsBu96UdzXxL7+3BCbbEToxNkzohDtXUj3Iqn86qBpwT4dBPELLNmWsRMV/AoMUN/lW+3S9dNVFpuEyauxq11NDGvTRq/6j1a+6VsM221zT50xTlym7oskTn6yJTCYVFSw1n2DocBUHw4tdajVZemOPPbXDV7+mV/ffTw0zZ2maCeh7w4Zp7fPO12b/uU4j9/ikOkxXt2XKGtU6WQ1qCxVYgQUSHLFAnxnoH3MGamMd9luZEYl2ghkjRqn2T//SqtffrxUvuFRjTBkXMzVqNcO2kI5UV+4w46NDbdmyq8ntMGu4HGVV+95UNXR2dpsKkMJYtjztCIun4wND1OOOZdgMll0g4EAUciY8TWYEtPzpD2qZZaZAqqb7OSzacp3WLt17yo+cwdGGNmeXGcoMKufj5HTLyc6Yrtf/8DOT1wKzM7l8yaOjXNa0h+/V6Lfejke0043G5JMpExyvvKa3Tv+j3v7DHzXl9D/p9SsuU4lB6vHewGDEKUhzx1KRZrJ9xKfVPHS08inTYamCabGS6bCSsma84rPzDWZmvXfuu23UFPi+EhtIkZNENZn2m3XLrcp2RSqn6WYbT5kPFUmsIo5lxGOqs10zLz5XMy67QLMuPV8v/fvyuEKB7uSWjFbjwODFOUGlopuGvpjJaFK+XntMn6op++6pG075sUqjxiiXQeJQnmnx8XvewVQ00OtlWq5RM/KRptREenXX3bXNN76pNz7zGa3Q0aE5ebMPTMin1TRq6lX/1dRP7qTWKy933cV5x4/mxf/iy/O8/wOBnuiXsyY++uijmjlzpjbaaCONHTu2EjuXO++80y1L9nCVzZhoamrS5ptv7oyLbJaHKoZ0K6+8stZaa61KTCCwIFCbkdpMleZxj+zxoLXL187OsDCq1K4X99lbzautqY8fdKjeOu1nGtrVorZU2QyQjHJmiJDLxHStNr3sahVGjHbGCDjTo6NVhZeeUceMWUp15ew4acRmGys9apR7HQQGL948BZaFm65S+szTVWqZoy5avcxZ6szE7ahIZF2prOlmXKzwnRNUs9seZvCm3RgeXPtcocMM2qwmffmzanj1cXVkhytbzqiYpj3WHC4TthGMOcukdc2aG2i/v58fTwxC1iVz7X7zc+mG65zRTXedB0aM0tbX3sRTEeR0EBJLHH/psgopk6+C9MDdav/hyeowOem0dzA6EwN2gzP+rvI66zp5ZAZEzZmuN/b/lIaZ8VrpA6Bae39H7pisHlxnQ338b//QkIrv1LMLFZ8fWk0KGx65S/r2l0zgTcOWS3pmyHhtePWNivKM7wlyOthB9mrfe0Vthx+gORnGL9aaXBVN7triXi/mNM3J8IVGc7ycKcx3Q8tqT9epbYsdtPr/nWxxBb339DMav+lmeumQ/bVS61TNNsFKRXlXsTWihJ6VmtNpV8lgOZiIltWVKWnOAZ/Vysd9k5hAoFf6pZ466aST9Otf/1pf/OIXe5wc4je/+Y1+9atf6bTTTnPLU045RXvvvbeOOeYYFQpz+5qTx0MPPVTZCiwqu+66a2VtYEMXm/qSOfU3Xq97991FdROfUabUpU4TRWdQtLdriDrV3FCnF3fYUatcdqmp6hrlMHIxRtJxrVrODFx1ts9jULiBw11dmvq9EzTkJz9W7S/+TyNPPVGv/P2PmDRz7YzeQmBQgMzQylW72VZqt5XmXIP7MHOXc8IYAxaPVuSD4ePb2jXrZ6fq7qOOkJ5+XI2mA2vb5yhz3Q16F8N34qtqzQ+zYyzfFK1isUTmzanrSNWpYEbwOuNXdS0RiJj7kLRytsyqxQzcmbmc2vIlTc8hoZjQgcEI8kPLFp1XMTwz5VhX6qPr653GnJvwha6syOS4rjY9/a2v6OULLlR9c7P04H16++ADNdL0aFzVFX+IfFa2VtOzfFcs0tjXX1TT5Hec8dybjCGfPlA5pnJanfZsMD63NVenZipiU2UVi3EX29AaMbhxFUsvvKSiyV1s7EZqztRrSm643s83mbyYM1WRSIL/e9fwRo3++SlqralTZ2OTxm+1jXT237TG7MluzC0twFRq5VN504s1eremQbMyw9WabrC9uHUmwYVOTXnzTVsPBOZPv3PEXnvtNWUyGQ0fbkLd2lqJ7ZlrrrlGt99+u1tusMEGmjRpks4880y3r8uM3WKxOI9jFlg0BkPXRNR1gfre159Sxy9/oW1nzNKso4/SLUcdoro3XzdHzNRqrlZdHabAy5FW5qCOTjcuggk7FOXdklaEFizbMaPNOEEVo+wrM9hZsrZcWa1mWM/Opc2IwKCOu1E4G3l+ITCg4RajlFk6I2LUWNXt+ikNLWfNuU+plOID47ERy3TgHZZ4Rk1K2XyHPj7xRWW/dpQ0YVNpt20U/eGnamqbombkrlxUTVRQXamoIaWShplurCkUTTa79GTjGG124s+6zxuLGR0U6fzFJ6QZ/8hsjEiv7zQWGBRQEUqo2Kp0uaJzNXqy0xwuJGhO00pa+9wrVDT5YIIDJjYqpYparWO61jz71yp+ahu1nfhV1bXPVqfJkqtCMDmOclm9uPZ6Wu2qmzRjSJ026HxPd3zt86qla21UtNPF43bciSuwFssnpTD4poP9J1UR5Uk5Uzl7V7EXt3HusYHBhbvz/Gkz5z+TM53J5z7yWu3Ky0zmrtT4Cy9QiRZZWmjpR2vCwxfwpmZz+tghn1XO7NCGXMFe12XNQeiOPVylfNnZQRHdX1Mttt6lrlS9VvnRKVr9P5dqlSsu04hNN1eX6djGdE7tU2YECQwsEKfL+gt0M/zhD3/oWsH++c9/OofsggsuqOydC/sJdENkmc/n9dvf/tZ1VbzhhhtcPgN+dr/AEgHDtOa9NzXza99QZ11J7+eZpkDa+e2JKn3+M3px3530xKHmlKXKGvnWm5r6rWPUevCeGlNsUWO5VUOLkRpNp9ebwduRqzdhZZ47r4pjE4KlH7uAwUBg4HpQ2IEkaDC6u+S/9CW9X+5SbdmMgjKdXGkLa3ctEjhkTBdTTplBnMlqSr5Gk2sIeVvPqc10aK15bG3pWr1SN1Sv1A/Va7Z8o7bJnLi8ZpuxsNYXjlRbjZ1vHgE0+aQJpFtSIUjoYINpvN2sLSaMRQtoKebZpA2rxi1d9ZM0ZLimDhuuvHvtxnJTMNmdTYuqyWRrzo6odFukGyJG8ZPm1+/ym1+rtXGIVvvrRZqTG6V8saAXb/mvGbc4/5mK2z9XAp2MWkCD4nzJnDmiYj/R/rmkXk7nHhcYzMROe5fJX4O9lx/8/nd0+wnf0ZNf/4ZqM3lnK7rvLhpF06PIdMvk99Vm2y0mZfGn8Y133lPR3u/lcqni6JvmLRWUL7fr/l//XPd879t69ITv6oXnn1XWHD/2ZxrqgxQGFohTm/2JadOmadSoUaqtrVVnZ6cuuuiiyp65eEcsl8t1O1wsccxwxqrHigUWD1zzgQwOV6atrLePPFb1xTY1p3KqSdMGllaz6enZpnzHtbRo7ZlvKx/N1npTJ2rsU0/pndxwPT1knF6pbdCbtVlNzqQ1yRT8yG22VydjFzxV14+plsuVb5QN9Gsb+HA0IRZDmrT6z3+mrDlODeU2c6rKmp2pcY4ZkyPgKqHz0t3BDAuCmCesRu/nGzTGjI7NrrpGH73qem3w3xu03nU3auxlV+reYStqxb32Ur1rPTA+IIbBjBjMOBPWHCekI1vq1JwrL9FzP/ienv6/7+nZH5ygZ//vBL38g+9r0sknKDVjqrqYmt7SEqguQLvFM39ajDn2ZdOjTEBTVJ1G77m/1DBCDZZGo+qV+fVvtO3F12n9HT+lmta4KxnS50WSJa3ABcuH9jJHObYFkPtAIAkSweRZWnGs6c6UyWFKq3V0aosXX9R2z7+g9c3ZyhQ63IQyUeU9nI6KGl3oVPtNN2l4Z7saVUv/FjU0z9ITX/u6Srl4tJdPT0UFOnnLmS3a6tlXtfbLb2hkZ9HkNDLHL6Oho8e4dIHA/OhXjthVV13luhL+4Ac/cK1c++yzj1OydFGcn6FKC9g555zjWtA23nhjZ5QEAguLkxr7s/KuO6glKjmFmjMtnTInvzOds5BXhy35lkjGjBMmT7h/6Bite8V12viSq7XR1Wbk/ue/WvPG27Tqjfdoo+NPimdTdjlbMOM4Vt8xEW8AIxgRgV4xOSwiRB/bQi/W5jWxrkGNx31dq115jaaNXsmMixo1loomj2VLF7e0ZiJm/4pnAKstduqZhmGq3W4nzdpnZ83Yc2vN2W1LvfCpCdKMydrjvH+ZMVHrupVh5MYz2hmx4AYGOxEGrC1Yb25T9Pdz9ZG77tVG9z2oj95zrz563z3a8N7btML/7tIaqU41dLRrWJGuryUNL5Q1vFjUiK6iGk2cmMgoa5llyiW92DBUH/3Cl1SIWk0nltReM0yN63xEz35mH729zy6auO8EvbXnTnrur2e6MWlII2Xge06mfV0Hx1iZIrDs6d0+CAxeXPXSKquoaO9aJtGiFbVkum1GLq2X6hs0K5s35wsZytgy/oBzc7ZeH53Trmf320cPnvxtvfp/x2vKgXtrjbbp6qTyK5U1GzOrMtPc2zt9Rq5ObzbkNSdXUJQuWXysj+eYjK620Ub9y8gO9Ev6lYz8/e9/d07U+uuv78Z4feUrX3HxdFfsybmaMGGCdtttNzeJxMUXX+wcstNPP72yN7C4odWRazxQoQ21o65W+v4pGnXhf/VW/RCVLbImVVRdia5hzElHK0TKda9hMoWV995X0e03qG2/T2rS/ntr+n676bojD3Ozh7WbUs6m6TATG8i8FFx3mipoGcMpQ8I/KOWBwYsZl8iQyUe5tlGbnnuW1r3+DunAozV76BCtefFlGv31b2pKhinns27GbtojGNXFvJ2M8HJSZfuZbTFXMKO6VGOySacyE+xynYY0DHEy55LEJzW5NilNRfM6ZoHBid1/N/EQXs+QvDq221zPN+b0TH3GHPycnrXwXOMQixtlztUovTZ0jF5pHBmHISP0av0wvVjXpEkmfwzDyRYjvVtTq0+c9BO15xtNPs0QtpM4Q6RY0NBSq3LldjWYMVtXbFE+6nJ6s8XCHAudVh7ncpnx7ETTdZ+tuGmu8sDtDQQc7n1bN1Sz80OcA8bY7Yk19Zq14+7a6OprtOrpv4+71qrOpIiJO5gIqai2dKdW7JqpTR68Rys8cK9SpU6T1yYTL8ZB0r02r2LEDLV5lXfaV2tddYuGH/NVTYmYtKasWpPDWfXDNXznPfqXkR3ol/Q7GaFLIrMh/v73v9cZZ5zhuho+++yzrptiNXvuuaf22GMPfepTn3Lp//Of/8y35SywaNx8883dXUEHKjWmjnnxzxy/stb77w0a8fdz1bH6umbs1mpG2gxb88zqi8wMZuZqPq3xuZxSrbMVFdqVLnSottCp0W2zzXljbFnafc6x3XJsd/lWDI6eCAZv4AMgFJgJ8WQZnaPXtKg6mTmgoWpQIZvTnH0O0mo3Pqwx+xysocWy6lxFSSxMmaikd2sbdMA/L6wYrlQg0JWLNIYtc4VIrQ8+oPY7b1XxtlvVdset0pSpbkAQYyMqKQODlO63aSltIlGj3I9+qaE3PaCmG+9zYegN96rp+rvVdN2dHwiNLG+4W9mb7tGaGKq1Q9SVK+vxEcNV3HJTM2GR0ayTTacX0znXKpEvp2ViqWaL6jBjl66LQ2dOU9NTj6rGQup/D0lvvC5XN9tDBW0g4HEdCfMZta4wwrVS0Z37mZHjtN6Xv6WXv/oVzfr6dyxBrenNojlQRdWUIzUw0YaFvK0j/1Rn1dt2U6nL9T6os3R10Ww1WF6Nxayyt9+oS4/8nJo32UbrHHSopbGjUl16O2/as7a+Ms4xEOidfmNV//jHP3ZjvorFopsJ8Y477tBtt93muhti/D/33HPdThZLWma++93v6tvf/rYLG264oXPiQrfEwKKRdopzuIlawWyE6auvpdw/ztfa19xgxsQNGnPSj9Ww557KZtOa0lin0tqrW+pYYbulGRHtKXLgQ6VpNU6aqvr3J6v+vemqfXem6ly6GD+mx0MecT6BACBX9jJPFUwm47YuBpB75yhnpmwjTheVI5kuFTNl11UxH9meKK9aW3ZmzNyttZCO3LT0OHRO4tL2N2XHdczU7J99X/mfnKzsz7+v3M9P1JN/O8OMlxrVmfFdW8YMCVI5WKFFwXWNNfmhQ+BI217RxGFVgkWvXAkr9RCIJ+36OP733aZye7PeqRmqA846WxlzutzHEJBD1zXMMF1YMllG2rJ2SL2FDPqxvU3Fk0+Qvv5l6VvHSd/5oq777lfj8T/OWK4cHwhUQS+XllxG65mNWGvyNDsX6VPvvSbtv4tGv/GiyXbRdGaX2rJFzRjSoJYVV9WMldawsOYHwvSV1tK0ldbVtPEbqDhmVRXsNd/VaOo1atWnp7ylIV85RM1XnKMW1Ko9LSM2/5g6LE2QzsCC6BeOGN0Q77nnHtfqdf3117uWl2SgVezkk0/+wFT0OG2BpcdgaG1EaRKYJjxn/0YW0moqldVVN0zNDY16d9c9zRj4jppLKU0av64atpqANWFHEMxUtoPL5RrLpNa8uPdUPmgvRQfvKx24ryZ//iDp/bdsXxq7xnWT4Bj3XaeoYiAHAt3QhoVTz3Bxpt4o21rRlqYHzbhFenxX1yiddbMgNmdrNC1Xq+kWpvFdJb5lxyibqMt954m2B46jOyyyR97tJqvTsxlNyuU0O51RuRR31mHMWZcJqn8mgnwOPrImIhizdOsqu65/hhcGlFhVMDVmy3hfZIGJNTRntqb88XQVamo0ZZ0N1NU0TMxMB+RIF1i3RcUAC9siEJtFt1qYYQbztHSbXjeDuTlnDluGL5aRxJ/QnpOIZyXOIz46MNiJdZa9j9ffQB11dWoqZDU7W6up5pzx+YUCH7dPFfRqXZPW+Pe1yl1whfIXXN5rqLvgMkUXXqIhZ1/k9G2mrUW5cklzsllNy2fUbuKXK5f1cn2jtjrppIq2DQTmT6y1ljETJ050sxzSzZBWMVq1kqGxsdE5adVjlGgtCywdcMIIPXURHYjEEydbMLnMmMLFcGhM12o4O4spzUyPUG1qqDNuZcYr3xzh1R9/e4nWC9uRSZkhXNLUfFnTa7vMMLbXguVlF9IZGjh7fE8nNiUwuv2LIxCYFxyyrP3LObPYHCUzWpEVpwFNL6aO+ppGX3mrVv/3lVrjsn9qjcvP1iqX/lPbXfgvFRjbgNx1y1xsADtT1dY7ozbVRJ3K49whj+l4L7LM5AjY2JyrX7wsAksXp5DoJWD/Ko7SXNg5b+geslVGC6bceK+WX/9IY9pn68mGrHb97enKl00W25pVW5ilmnJRmbLpy4hKVZw9DGOWfMEuqyKyiG4tZtWQqtXQcqPqSkywUDFx3bTjlIvzzzV7Xd0Wy3gzMEhBFN2snPkVNPLkU00gGMMVv3PrSikLpldLWdXSXcBkdpRJzFgTmjhU1i0TF2x9tC1XJD9aYlN5s09rzByotfNwfFp5k1NM1GiLbdVcrnXdb5nXlnIQgjwGeqJfvFtPPPFE1+p1/PHHV2LmhXhmUeTbYqEVbNmAQ3zhhReqpiaevnWwQE0wNba82TFI6S6DYbDhZf/Q9n/4Wfz+L/FBSHYAEXPx7Qn+X6yKWWPpJ3iGeY8LBPqMiU6xLq+OoWZyPPOKHjjiS7rzyK/ogSO/qkuO+6oZxAXz3fLYGc7AhXicWMUsMNmOqwa8fFbiK1Lqt/wyEOgdJnoxeTNRcvLS3KzSI0/qnXyjVvrM4ZrFZ2VaO3TvwZ/RHZ8+TA/st7cuPmQv1XR0uFqFsnlyKTOWMZj5OH4cGCNJW3DetdIyNTjfXZyv5gzCOuiJRQA3SGpHSDbdSlNGj1Gu1Kl0iVmQa9SZYeINvnlncpspqN1St1la0rebrLFsNSuZwHqbLWeTbZpPOphOdSa0l8RIeTvZk6NX0LYnnagmFx9r1UBgfixTR8y3slx22WVuPJiPq2arrbbSTTfdpOOOO845BDfeeKMbR8b6/Ljuuut05JFHVrYCi8p5551XWRs8uJouKJb07O9P0+Nf+YLu/8YX9MCJ39etf/6jopIp8Gyu0tVr4fDyHwh8GGh1jWdHpO1AbgyEJr2nLZqnabPZ0/Sx2VO1Rkur6vl4U2cHJrJrseBjpPOMTaQlzOQwlmHi431+bW7KuWuBQM9gUqTc7IY1bZ2acdw31dRR0NPDh2vFvfazveZwdb6t7UxGN2ydrk3mzNRG5pgpVWPKts4MZFq40LoIM623tkxTGRYHHDUqFPg4dNwtF5lM6lC24yqveeMDgw1kACcro0738fE59fVa/e//VLPpvzxNVbbMlNOuonWIvd/V3KLGYrvqCx2qI3S1WWhVQ1eLC3Vdc1RvccNLBamrU4WOFpNz5DSWthqLe7O2QRP+/E+1Z+sr0cERCyyYZeqIVdObY0UXRFrCaHXwXRf7YsDSehNa0BYf3IeBPH19T/CAYBqgeIc99JDWfOJhbf7Sc9r6uTc069771UZNWnjfB5YJjPiK/7musE5YS+q00GVyybI5V1YHTbkl9CBdE8vOOHGmqtO3cR6pyhjF2ACOIS35ulY09kekYH9S4IPwB+YSISspWrCMclHT22bq+fqM9vjZT5UeMVp51dr+BrVl8pqTLViIP3wbt6KZLrVQShUtH5NX4mjNFdtdJoedJn38Q9DjvzhrltCt8TftWnpx2HgcGEcW7wsMVqiiypgslNRoawWTwfGXXa6W1mY1FFuUM11Ir8SVOueo5bCDNGmvXTV1zwmasseOmtwdJrjlJAvTdt9GU3bbSrM+vYdG15SUysffa6wxu6i1pk4f+fEP1DxmtNLlguXLd8mC/AUWzDJ1xHCoCIwP805YT84YcThgpPPbPaXrCY4LLB7oPjrwwYTgdxJigxVTAG9sWtcclevzak2bcZvvVNGMXT4uasJIioWmumUiEFgYkJyUGZ6EuS98utBigJpsmfNE20LspGXM6MDlKonxONRjOQPY3gB8ZJd/6cgMC8sLBwxcFzCTUfLImhNGnvGsi4OrMiawcKBB6cDe0tigta+6Wh89+2Kl1vuY06jxCOM21UZtGtGVUW0JY5XUFkwWkTVau3CkiIi7hZu8mcDi5DF+LJbCdks528TdcrT4kqWhtcw5b+mCO44P9fqnIjA4QSbiz3Aw1RFfT0ypfcQaWuHaWzQ5X1YxalemjDOWValQVK7QoVSpwxypLnOw+DAz42QJUfw9x3TO5DDjnKxUV15D2izPYkFvpfMa8as/qfUTE9xMtnlLh2THehnN6cQ7yGOgR5apI5ZkYZyrQGDJEitPT/UaDhSq1S2R2T7KbXcrbpDzwGIjfsV3K3KTsdhwKLvABBx1TO6RqTUny4yHqBbJNaOiy5ZFs1QsTdoMEDMZ4skYzFTh205GbYn+O6TmC3hxB0jXKkZXR0vv3DHXShYIzAUtR2gwWezMN6h93KquMos4V5UX1anFpKc1i8PUaQZrh0W2m6iVzB1Lqd5klpnokM+4EiGtghnK2WJOdRZfozlO9xY01I7DwO5Uyo5NMRGNmw4/42Sf1jV8s8DgBe3kNRRL5C9r6mv60HFa46p71L7SBsplmjSkywSlnFMhXW9ylTVHK/eBUDIZpHcAVVsZyykfdaqUzuqZprH6yFXXKbX5x9XQHlc14IDF1bhzzx8I9Ea/ccQC/R9mrRzoH3Suhvd4V7zqxtB4xZoyA7aUzmASWCKLt23iXScxDAc3i6LFmOHgj3FjcJjly/bzyQY3BXklz4IZFpgjzlAJBBYC13pQaFfppiul5x5VhxkHXSZPnSZnwwpFNd/wX+mO2+LvjGXNUEiXzdhNq/zQQ9K997pa4mI2b7JbZwZGVg3vvaOum29Rx/sTlaHrWC6j9lxeq5nTVSCfqW+Z8RvX8jLLYiDQI2a01pjK49uJyEo+Kqr++RekZ19VvlivDMMGooLqcJpeeFJ69B5LX3YyWFNKqbGU08jJM0ymn9eQOTPNqTKnzeS2U7Ua1WmO2sMPSK++oWwprZylz9iDMLLTXL5HHlHN5KnqcJUGpo/JPzDo4U3r59UcYaLR0jBM48+7SA2/PV1vNg5VR6qgplKnhpbKarBQb6GuElivL0VqKnQqF3VoViat1/L1Sn3xW/rEtTerc8hw96mHUm3ezhKfIxDoKykzBAe01DhDN7RALBaYrOOwww4b4N09eRz8I4HcWODl/v5beu7zn9UqhQ7zpeI+4XeMGKPd/vJP6T//VvnKSzXHjIqaqKSXGkdpo39eILXOVPPnDjYLJJ5ueVpNo1b7w5lSQ63ePfowDSsx9iFlZkdGM7feSeO+ebw0ZIii2gZ35kBggZh+68TgbZspnfM3qaberN6sxVeMTzMgaPhSrkblXKRShlaCdPx9pi7bl6m1tG22tG2+w+TqD/Imu8TRzcu2M8xgZ0sqe2k123ITdWyyFaN9bJvM4xa0QMBrT6+/vJtOi2qmbZb0N9OX5kTNYcIDZM5kK9/Vpbw59GVz1DqzOeVqa5XuLKpgspuz/ekuk7H6lGYy210hqzqT7zzVVpa+nK5RK85WNjaxm0ykU8WU3hy7glb6wnEmmTwHc1snAoMLWlT5N++9RxqRB5z+stpNSuqQ1LfeUssZf9C7zz3tOstmS+jKsmtVpbssHxAvUIm64gra6GvfkDbbQq0miUyPjxXNfrp+MyLNn9n1nLF/gcD86LeOGN+rWtJTpTPxxOJu4QmO3wDDZESPPCFdfJ5m1uZd61iOMQimZOsLBdXzMUdzTDvSGaXMIOC1X2txjeZkdWayarWANKCUMy6e7jNpF1+0J4++5+V0SsOLRXVkutRwwo9UHLFqMG0DCwVy2W4BZZ7UPn7bx8WyGNOT4vfpetrn86KFg06LfjsQ6AvIqLn3rpsicuNlca6zNm88b2bW0ang473c+W1gPUm9BSoK/H6PPy4QSEJ1kteftSaQeXtXq2221DLLIk1isEWHNqpU06Bmc7XQgVRHM/GRl9C4j0BFutyCXIlbvDZmYODRLx2xhx9+WG1tbVpttdW0+uqrV2IXP3feeaeGDh2qzTbbrBLz4fnpT3+qgw46SOutt14lJjBQaLFAYwAPCgEd69fBv9irHyQf7+kpPUYJAccLxT7EgvsAZSAQCAwwknrTk9xGN3r92JteXRCkT+YTCPQVXCpfMYD7hHPG6NgaC8wFyif1Aat5wfXt5BYkMbBg+qUjtvvuu7sxNKNHj3bfGFtS7L333lpzzTX1hz/8oRKzYHDeisWidt1110qM9NBDD+mHP/yha2G7+eabu2d3DAwEIhXtXxb1zLiaFB0P6L+1GLAnj9m9vJp2KttbEYFAIDDAQL0lDQ6n8+LVmJ70X/IAj09TruxMWsXVxwcCfcWZw/Gsna4dyzbj+YjoomiOlb3/GeuddhMbBQKLh34lTTg4U6dOVaFQ0PDhwzVjxowP9R2wvvqWOHtMyb4w38b6+9//rt///vfxZAsVPvGJT2jzzTfXb3/72+CEDThS5nYxRoaOLnnTy4vJCQNT8OSGtFIL56Q2GBGBQGCAgnrD6PBhiag7FGkyBAJ9xRz6+NMJRkV+3Bgxk1amuId4Mo4gWIHFR79z648//njl83mdc845zkmiRazaUfLbLGfPnq2nnnrKbQOOG46cB8fu2Wef1Zw5c1z6pAOFw8Z4Lh/f23mSkDfnqN73s5/9TBtuuKGLTzqCjHWjfK2trfOc20Na9jc3N3dv91doBUxe28EELVfu2zS2zp1fmODVtg/V+3DGgvseGAz0Z/0W6Bvcw0W6j14R9hR6oidvzaenJay6Naw6BAILQfydOhMvk53IVljyfvZu2BKsQggMUvpd10S6CzJJxxVXXKF99tlHHR0duvXWW53z41ub6Lq49dZb68EHH3SOjv8g9LHHHqsDDjjArT///PP6zne+49LjHOFAEH/DDTc4R491HIv111/ftXBxXhw/uhYC+7k0xONEUYZPfepTzpnKZDJu5kDyvemmm1z6nXfe2Y01O+2009yxpPvMZz7jyk0+Pr9///vfamzkG+/Snnvu6eI4L+n43VdeeaUaGvrnKKEJEybojjvuqGwNDqrtA9Tvwqrg6kcMWQgE+gNeNy0Nvvvd7+qXv/xl+Mj+co7XZ0tNjy2MhRJUa2AJszR1ZmBw0G9axBDuq666yrUM0bqEoO+4445uVkMcoeoufw888IDGjRun2267TX/961/d8f/85z+dUwO0pDERx4033uicq9/97ncuryOOOMLt9y8TYP2QQw5x+x955JFKrFwrGvnhgLDvN7/5jXOWWD/11FPdtm8ZwzkDyk3AgWPCkZNOOkn//e9/9X//93/O2cK5xCmkPBx7+umn65ZbbnEOGtvXX3+9y6c/4n9jYF64r4FAbyAfPNtf//rXXYXNJz/5SadTjjnmGKcL0D9JfbSkmTJlil588UW3znl/9atfabfddnPbXp8tCR577LHghPUzqnuI9CaLxHk59kaoP7an9B+GD+RCxNJ7LAKBQGCZ0C8cMRQ5Dg8OVW1tbfdMid/85jfd8sc//rFberyz9be//c2tr7HGGjryyCPdS8IbxT/5yU906aWXunXiNt10UzfurKWlpbt1zINx4FvSTjnllEqs9IUvfMHlz0QcOF90PaQ1i+M32WQTrbvuuu4Yzks6/0L6xz/+4ZZ0r9xhhx1cC9y2226rM844w7UocT6fnhY/lpQNJ4yZFwNLBgzgZOD+9hWkhdvbUz0YedGSWY2XB2QkGTx+f2Bgg+74xS9+oddee0233367rrvuOqcHpk2bpu9///vzyMTSgN4GtEwBuuuEE07obtmnrEuKIO/9i6985Sv69Kc/7d6P/r0JvDfprbHHHnu4sP3227v3IyAfvP+Ip3KUe1otv/RY4Xj0IulY98MHkIBk1+xkmEc6khte8c4v+DSBQCCwnNFvWsRQ7ih2nJY//vGPrsXoT3/6k3NUnn766UqqudB9j7S+WyKtY7wkvIPzzjvvuK6EOEC8EHCIJk2a5AyP6tY10tfV1WnjjTd256MFjhcT48twkKrxx/sujh7OzTYtcKyvuuqqLp5ycY6PfvSjbhsYC0cL04knnuhqyXnRvfTSS5W9gcUN95TrjRHM/cHppcWSD1RDb0Yid9f3CM9UbnV1WvLbb7/9KltzIV1v+SYNH5/Gt44ActobpJnf/kD/wd9PZlvFAWLb649rrrnGjV8F9AayOH36dNc6T7dp9vvjAfkgDYYu+tHLEL0CvvrVr7pW+p122snFk/Yb3/iGy+fLX/6yk3/47Gc/6+SVVjFa5CgLLfZ0G/RwPK13tJIdd9xx88gaeb3wwgs6+eSTXd7f+973XDzHUFZ0Jl2yMb5x8JKEFvX+xSuvvOLeU9wX/x717zPir732Wtej5J577tHHPvYx7bLLLm6fB7lIyqeHOIYAoGPJA1mlZ8isWbNiv8n2RyYv6FW/9MFTikqx0rXANxv9eUoVWfTbtMqxXih9+F4Jyd/gZT0ZF+g7vV23nmSF7cV5nRfHOzHc98CyIKn7lik///nP3YPEmC9qZ+muh9HMg8GL4n//+18lZfySwLkhPQYAwb9ASM8648XYf++997paaF4KI0aMcI4Wx3KMh/TE0UWHdZyjSy65xL2c/vKXv1RSxfT0oPpzV0NaH8jfw7Z3Cs4880znJNIlE8OJbpmBxQ/3kuvOvfIK2xsHvMyJP/vss+eRi/PPP9857x5kkNbZX//6187Q9VCDzKQx5Iux/frrrzvDGyOVPKq58MIL3T7fCgGUjZZSPqXA2MaexuLRqsI+xj8m5SnQf0GukCmedyqP2E7qC+5jeztfq4knFvrSl77kZIbWfiqi7rrrLrcPcG5onUdu6Ob3gx/8wMkcTtYbb7zhuk2jw5B1KqGo3GFs6xZbbKH999/fpf3Xv/7lKqaouGIdOaaXwLvvvls5S3wexuCig0m71157VfZIb775pnP6jj76aKe/cCRxADknzwBdv6lIwxCna/fnPve5ypGB/gTOFZWMVD5yv9A/Sfx2Ulein5BRYL/Xp9X4OGSewDhsPhPDOx54txbsmeDbm4+aHHsYWsB5kNlMOtNdhow9IwxFoPLy6quucvrV90BgnQoL3vMc62E/FQE8Rx70POfmN6Fnyc9XhCDLVEbQiyWp2wMLx7777uuGWVRD5RJ6xbeQoieeeOKJeeSHfT3BPaKymsp1L49J0Ef+2J72LwxUciFTSaqfjb7Cs4L+THb/hQ+b35KA3wuLet0Ci0a/seYwchEGXuA4Thgb1PTefffdbr9X4sBLHwOGh5iXA8reg5Aj+KTBGcNpA4wUnDy6PkLymCQrrLCCXn75ZV1wwQWuPMkWMbbJn5aw+YHRQ7nojkF6b9zjDGJ0UW4C49jWWmstZ9xj9HAML8j+Ci/I5RXuA064lx22MXTHjx/fvc39YL8HGcBB5v4xxo/uXNzbIUOGuJcJ8oCskY6WDLjooovci4FuaAceeKBz0njpe0WHYubFQrdIDA/fPRI5pYVh7Nix7iXFpxDIh/yRGfZ9/OMfd3l+7Wtfc+cMLB/goPC8J518D3LhW6vg8ssvd3qA7tlf/OIXXWsC0EK1zTbbOKMWLr74YmfI0KqL7JAPhuWWW27p5JxWL7qUAS1f6DvSkTdl8bqMeMrly4cTSBxyRhq6ruFA4rQBx3z72992hjU6FRml0gGGDRvmzrviiiu6Yyl7siIj0D/gHvI+xXGhKz4totz/JKRBLxKQC7ZJQ9d8lmz3hpcllgRkAR2G7HHceeed53oQsO31LYY2ckuLL137Mdw5FnD0cdoYX82zQqssxj55oUvRr+jStdde26XHKKfCgOeBXiYYm6TlXDha6GB0Ka18DH+gldi3ROPAJR26wMLB+4p7UQ0yQIUzn/9Bl3BvuKfYPuyD+ckUuotjvEwk02Kvgd/nIY3Puy+Qnu66q6yyitum1wDvea9fPf48/Nbe8icvvoPLkBkv9z6e/Py6j/f0FLewLMzxvvzV1y6wdOkXjhg1/EDXB5QlQpEMGAYo8qQh05sjBThKPCQofA8Kl+P9cV7weNEkYQZFysDDgkL26YC0KHuMH15gKHX/wgG/xJAm7be+9S1nMM+cOdOlpebR19zQfYc4zsfD8Pjjj7sHiOMW9UFcUiyMUuuPcH+4/nTfQsHyUmdcIjLBvmqF62E/FQW0Vn7kIx9xrRZMtjBx4sQenXJe6FQCYBTTukrlAvfV1fRaXrRabLDBBu6l/9Zbb7lzY7CSBkOE8YwYGrwQyJ/uQRhAPB98r45WWl4SgeUDuj0jW+iVpA4DHw9ef3g9QKsW6amhf/XVV10rGAYrAceciiXkwusMnzf50cKFAUqgiyH6ENmb3zNMPrTAcV7WCZSJiYeQQeA8TILEPs6HM+bLDbQs8Ixh7GJsky7Qv0DmuGe0hlExibzQ2pAEOUneV3prcO8xKpMk03iqZYwWK1oZfFdVjqH3Ae9X9BmOPRUMdINl3DWVDHxD1FeCUTmJs8jkXThNfrwaUKampiZ3DK20pOc8vHup1GIyrORvQR7Rwzhi6NqVV15ZY8aM0eGHH+4cM3qoUMHBNQosHNgyyBT3hMqnatCDvNOo7GaGaSp9Hn744W4dwXE9QTz3DzsKnechngp7dCD3CxlO6hsmJPKTEiVhbC5yggPnnTjgHAxl4Xmg/KQjX5z0ZL70onnooYdcXFJOSIes0TuBdcrHO9v/Li/Pb7/9dndLbBJ0NLLnW519Hr1B2urWO8rGOQjYLPR2qIZjnnzySZd3kPP+Qb94S2LgYiRUjynwoLARehwrhJWXR/IFwDqBh4D9QEsDDhMGN0YLih0lkBQ88iQgkF7gUd7UzAHGdvI8gBFNDTFdJXz3Rc5L+ZMPKzNAonjohoZjxhKjmlY+wNDmd/CSonz8do7vqXayv5D8fcsj/npTg8/LmJc+DvGCrjf7uT90XWFyBcbIIJN+UplqvLHCcb4FFjg3++heSO0exg2yRqBlDhlC5qgxRHbovogRTiscTiOyjMxhtPiJbAL9HwwFr1+80wXoDXQCLUleBxH8c8aLG32FzJAWmUFu6THAsrr7KvLD8ZyDVrCrr75a//nPf7orAjz+PNWQBnnl5Y3s+jQYJPX19W49eVy1Y4fBTFcwdBiOG+ODkvkE+gcYzDggwPsS/YJeq+6ShxOPU43eoVs/MpeU395AJnDeOZ53Gz1BMLqRc+SB/aNGjeqWC8aA40SRN4E0pMWpZ5tnALkkPTJKIA8vW8l3Ouk/8YlPuB4MVAZQCUEaDFOfnmPJgziev5VWWqn7d/GsEue3AwvG6wDuM71GuPe0Yvr72xPsw4H2925+aX0aWtp9TxDuJYHPBflzcR9ZTp482cksFZYEWuJw4NhHhSf2GJVE7KOnARVPHvbhSFFJSsseMuJ7Y3E8x9FLgB5MyJafOZv8cebRu1TUci18V20vqzxnTMbG0AYmk/NdvtmP80UFA5X12BlUOJAfx1VDCzDPFu8BbASuN3lQvoMPPth1X6dHA88c5aVnFs82+ykz5cOO8I0CgX6A3ZxliglQZEIc2cNWiekZ0pAWelraC8Wt+3z8PjMq3DrBHLPudTDh7N72cbDTTjtF9kDME1eNP5+H85JfNeTBeaG332iGuEvnyxNY/LS3t0dmFFS25mIva3fNCeYEzXOPdtlll+iVV16Z556YAx4ddthhbp+PN+UWvfTSS+7YfffdN7riiitcPDz++OMuLXz1q1+NfvGLX0T2MojeeustF9599123j2ORccr517/+1ZXLnD23z2OGeWRGlJNPeyG5uCAvywfIxde+9rV5dIQZLZG9UN068chJUv7Yby9Ut27GQPe6xwwOtzRny8mgl2NkFPlBR/n8/H62zzzzzOhzn/tcd3pz/CN7gbt0yWM9bN98881unTLefffdbp1jb7rppu7nygyA6IQTTug+5+uvv+72kQ54vgLLHmSBwP0gIIPoFO454eKLL+6+V15e0U0e4riv1e9AD3nPD/L272Lg3M8880y3PALyeN555zlZSso2EO+fhcsuuywyg9ate0j/wgsvVLbi/D2UmzzJi9/xhS98welUn//7778f5PRDYI5E97POdfUy4OXGnIzIHAi37uH95u8Nx6FneoJ3KOnmzJnjZJX7R2Cb83A+7hl5ADrq0UcfdeuAfvTH8c7lGNaBY/z7mXzMOYlee+01t81vMifOrZPu3HPPjfbZZ5/u34T885spB3AOrydJM3PmTLeffMFfE+D8pEdHYv+x76KLLnLnYR9lTh6bxJy0ylqcD+XHNuBY8jHn0B3H9p/+9Cd37eHaa691eSZJ/r7AsmOZN3FYGVyNb7LGtieopfK1Az0tfSsE+ZCnhxou9hNoZfDrQFq/7eP8eApa1JL5VOPP5yGvnmrRyJfzQm+/0Xfv4Xhfjv4I45+WZ6jd4p76+0pLVPLemzKa5x6ZkuveT2uEKTfXpYLrwL2ixjaJT8txHs7lt7feems35pFWV2r3qJWmmwZQA/fnP//ZyTk1VrQm+G/a0ZeeGjbkhG48vp99Mu9A/4ZuyIxXYZwLLRIMaqdWlfsKyBP3l1pSamKZlZDxVhyH3LFN1xxqPLn3HM9YQUBmSePljy6xbDPGzNdQA/uAyTvoxkM5fJx/JuieRVmonaX2mSW6zl72bj/5mpHR3fOApZdBupbRfZLWYsZasO1bIoCxlTxjgWUH3ZK4f8gdNerIGOu0eNKKmXyvIRO8CwG9tLjxcsGnYOjtwraPo4sVrRr+HZ3Uc5Tfyyv4Y4BWWYYxrLfeepWYefdzHDLI0uftqT5PYP5wDf194P146KGHunX/DqXXUFJuaFGlFcacJtfNFH1Iqz73I6knegM7intL1z7OgZ4hP/RVUm7Jjy6vHnQlceTvW/H9uVgS+B2+R4H/TeDlnzS0IjHkgPORB+fkXe4nJ0F20K2Q/N3+eiQhjvRMaITe55wMafD7/HjHnuD9wDWgPPS0omw8Lx6eJ8pNPDN3++6J9I4wZ9ete6rt2MCyYf7ezyAEA2W11VZzD0dPD9BgJjnmbnkFJ4ome8Yo0FUAoxVQWtxzurTQfxpDkjgPckH3Gbot0C+dFwcvk6TS9qBgk/F+nTEJrGMgM5kHBvXuu8cDyTE6yBeHjGmlmQQB44jz0J2BiUUefPBBt49xZ3S/oXy8FAL9G+4vk/7geNGVhW5ZdKfBCPEyxn3GqaEbIV1mt9pqK9eFFuODlyXpMGQwPtjGafffSSStn9QD0Ft0gaZ7Cvtw6pn8BQOWfDAW6G7ju9ZizCS/1UgFA91fKDdjbOhm7cvJtxB50XMOnxd5A91rMerZ//nPf979FtJ76IIedOqyg/vpPzsAGJPEAV2vGR+FjCyIxX0P6ar16KOPOgMT/UaXLOSe7pCw3XbbOQOSMS9UDlx++eUu3pc9+QyRlueDCT+QxZ122sml47dW44/z+PwCCwfXjTGpOAa8zwhAJVDyulOZQ7dl9CBjUUnPscgT94z1+d0D7hdj/+hOCAwRYNsf4+8n7/FqvMOxIEd7fufnt6DjkqDX6VZIBdWigOPU1+cKh5eujUyYxHPBb/IO4/zAIaP7pofnJejj/sEyvwsIQrVCXFTIry95Vgship7plnkh9Xb8/B7Ugc6ClFh/hjEGtHb6+4cDQ21S0gDFEcL5wVHDWaL2C2MAJcuMivTbZgzMfffd52qXqOFHToj34x9wtvjwN0qOc6H4OC+wzTkwFsiHcV8YCxxHyy3r1HQxgQjGEi8tyskHyzFAqO3FAGfWsOSHxwP9m6QuYbIXdAxL8PuSDjXy4VuxkjoK+WEwPPKGXPl9OHZM8JKEfH3tMyCTGCj+fDjyjHUAWmWZPAa8wYKTRjlptSXOH8f5mQ3Ml5dj/bkpDzXBGArUSHMc5/Uk1wNLH+4h42EYV8L9435xj1gic9xvZIT7xLo/pieolML4Q89V42v2ewN9mJR38qGSwU+exLlpZeDcyDyVY5QZB4w4KqbQ0+yj0oJt1j1UZtHyR8UVrXyUlTHiwJid5Lm5HlRWeNDDVCL09LsC88K9IDAWlWtKhQ0trDhaLBmjn8Q7G/76oyuq5asnG4M0Pi06jcoCxlszxszvT0JPF0AmcJ7Y9q2oXmf2BfIlvZctHB/klDL6eJxBesl4vflhoRIOh87/lp4qDjz0jOA5YcIZWuSS8twTlJPAd2yZZMSzMNcisISxGxRIYA9sZW0u9lDM06d4sLK8953n3lXfP/p5gzlb3ffYQ99tII0/Lnk86TkOiEd2kukIpKnO15PMq68k8w8MLOi/P7/7yr7Fcd8XVz6B5ZPe9NHCgK4jn4WVI9J7nevx5fHxftvLKeMWwe/fb7/9orPOOsute0jnj0v+PuLR0SyTJHW61+GBDwfjku655x533f17lPCZz3zGjXcG1qvHiFVDPj3diyeeeGKe8VXmyDtb5M0333TbHON1J+E73/mOkxEvB3vvvXd02mmnufWJEye6MVVJeUgeyzi1V1991cVPmzbNpfW/hzFfjOvyY8gYn8ix3mZk3Rx+tw6sJ3V68jcA+55++mm3zthxxjpyHuwOczjd/p6uB/GMm4Ozzz7bbT/33HPuPJzDnMXuc5rD6uLYZlwm+fq0f/7zn7ttOp8+sGwILnEVyb69HmopfE1Fde1LYPkheR/B5L+7NolldQ2R7+KQbBFIHk96fzzxPdXwkWZx1jz1VI7AwICa5PndV/Ytjvu+uPIJLJ8sDn3U03uyLyB31a0Hvjw+3suml1O6cdMFiy6LZnS6fXyfKQnpfD7J30d8T922kjqd/bwLklRvB3qHa0UXf667f48SGNtMKxnQKtXTda7GHILK2lx4D5tD0n0s3aaJ89/7SubJOt2/GTaArNDiSSsos4ICcksZ/b0Hf7yP8+/9kSNHuhZ/ulTye+j1wpAGxuaSN71iaPnzzwJpzJFy68BvSbasInP+XMkyAzMl8p1I5JyZnJn5kLzIsxp6bNGVmG63XFPKy2cAKD+B3+fzp2zsJ57uvnQDpjsnM0nSs8Hnn7wegaVPym7YvBIR6BEu02AXVr5fxADvgYIX/aCEAv0FXtzeuQ8E+jMYmujOpaU/6V7mjeSFYUF6vnp/eC8sHMhBTw6DJ3k9WZ/fde3LfiCNP68/xu/zDozPJ5lfT/mjc3FofB4Eny8Q72Xd7+tNFpP595SX314QjB9nbO8VV1zxgfcBZQHKjaOVPGcSnFdfueHXk2nJh0D+ybSBpU9wxPpIb8I+WOD3n3vuuTrqqKMG9XUIBAKBwNJ3xALLL95+Wpx21OLKCznui3O0sOcjPWFBeeNQ0crH+DNafRknzuzKTGbCx/MXtWLOl5sl+N9QvR1YdgRHrI94YR7s9FVpBQKBQGDgEhyxQF/x9lN/tKOWVJnIl9BXe4nniRYwuhDymZPFhX9OPX6dskF/ux+DkWBRBxaKgeSEeUU0P6it6ku6voJSDAQWBN2AmV2OLjDVMIscYxSQpa7K97zmx1NPPVVZ6xlmIguzcAYCgSXJ4nyPLm0ouw9LCmwrvhO5OJ0wCI5W/yc4YoE+s6QV0dKG75H473j1BPtQivSfXhyQX2hNDCwInH/660+ZMsWNQ6iWTz6aTHcVZKkvkybwEfD5wfe+giMWWBA4/nzvkAkFqACoNvDeeust7bbbbu6zG4sKMs/36ThXILA46O09v6QcFfINTlCgLwSrsI+EByq+BgPJEeO3YFwwC1E19957rxv0SxrfR3t+rVl8O4fvkgFGCsa0hzwIfN+mr9ePc/nWuL4eExgY+FnekLuLL77YrXs5YGZFlkn5QlZefPFF17JFIA3w8XL/PSjkk5nLJk+e7OKQVf+NMRw1P7sZTJw4Ufvtt58zghm7AF72+b4TM5IxYxffxOtLi1xgYID+93oJ2aw2NL/xjW+4+OTMcT3hZRmnjfxYT+Jliooyvq3o8TLolz3h804+H4Flj5eVpLwsDZKy4uWsWt76Qm/lX1BeS/v39kSy7MnyVG8Hlh3BEQv0GbpLDaQWHV74tFLxccikQYly/eUvf6kDDzywewYm4ljyUeUTTzxRZ511ViW13MeW+Rjpk08+6YxfWikwoN977z3n5LGOwqOmOKm4mXKWD5UypWwynpfHpZdeqh/96Ef6+9//7o5dkMIPDDz+9Kc/OTnz954lUzPTepU0MPioKFMSI2fIMi0JfMiWgd98nJzjkCc+ao6c8+HQJ554wskdvP/++935NTc3O0eND4fjaNH6xlThyCAVCeecc47uvPNON3UzZeHj5oHBgddDOOInnXRSJXYuyM7w4cMrW3NBlk4++WQnczB79mwnl1QMoC+fffZZ5zhROUDvg1NPPdXte/75553j70H/chw601ccJHsr/OIXv3CVCuhhX3kWGHwgS7TcIqtJe4V3Oc4/MrM4ermgP5HrQGBRCY5YoM8MtJcbv6e+vt4paGYqYjwOyrutrc0pc75E71sniMdA/cc//qEDDjhAL730kmsxQKHzrRHSMcPRiBEjXHqcMwxhjF5/3fgGiXfq+BbJz3/+cx166KEaNWqU+1YJsG+vvfZyRsjee+/tjJfQPWdwMm7cOLecM2eOM4IBOdtqq63cuoeWA5wivnODrP3+97/X6aef7mQJksYIXR4xcqlo+NjHPubicMKQY9Ijs5///OfduTknhi+taDwPjz76qDbeeGMX39DQ4J6FVVdd1eURGBwgI1REMe4wWXlFhdPKK6/sZCsJLadACytG6xlnnOFkcOzYsa7bLboP5w25ZcpuuoKPGTPG6WIctMsvv9wdD7T2onf5LtR1113n9DB5IZtUEq6//vo67LDD9J3vfKdb/v0zEBg80NUaffazn/2sEhOD7kQekJkF2TLJii7PD37wA6c3Pcj00Ucf7dbJt6djAoG+EByxwKAFg7K9vd05RRizGAYocGpk6baFUYGxgZL1LQnU2m6yySauNoz9HE8NMa1ga665Znd3L/jqV7/qWi8YgAu+Rpnlq6++6lovNtpoI2f8brjhhq71g32ci5cIBjctYttvv707PjC4wHD49Kc/7bp8ITe0Qmy99dZuPQlGBS1iGKq08GKIUrlA6Mk4QFYxRsgnmReyB9ttt51belnlezak5wOtDz30kDsH8kmlAzIfGDwgE8gCzn2yNZQuhHRjpWeAhxYqKrPQgx//+MddKyottTjxyBDyicxSkQXIMfu/8pWvuDRJ6E2ALPo8cdqoMENX0kJL+v3339+d55///Oc8TmJgcPGXv/zFvacfeOCBSsz8eeaZZ9z4Rg8608vxyy+/rEmTJrnKKCrEaPWdNm2aky8+iEyFAiCb7ANaZN999123noTj//e//3Wvt7S0uPVAIDhigT7jDbWBBAqRlidqYHHCMFJR4Hy5nn0YHPxuP76LL+BjELMfQ/nBBx/sNmqBOA+1vT1dM1rfgH3kzzmpwT322GNd/HrrredqeHHiUOjMkpc0mAODA+SDCgJkgHVaIeiuWg37aCGgJhhD9uabb3bfpEG2kq1hgJGRlCWOZdvHYdxSweDlHpBvjkNO+aA758LgpYKB7ouBwQVGKi0DVEbRGvXaa6+5CilatpIO0B133OH0KrqSQIsCsoWs9VRBgGPWG8i27xmAPALOHzJJqxtGMD0J6Dq70korufMFBh/IGzKIg8T7/I033qjsiXVfUu6oWGX2WVr9v//97zv5Yj967zOf+YyrIP3Sl77k9B3dvRk7i2PGOnL3u9/9rrt7NxUFX/jCF1yXSL7/Rast31wF5J1u5rT2so/Khy9+8Yvuu6x+f2BwExyxwKAFhYsBwYsd54cuXffff78aGxvdPowMDFKvnImnWw5jFAiMyaGFojeqDQ5vFJMX+3z+bPsAdPPB4KXrGM4ZXSCS+QQGNl4OgPs+cuTI7pkPe5MDP6kHkAZjxMtuTyTPkYTWXmqTkwb1pz71KZceQ4Uus7RcYPTiiNEyERhcIFe04CNbGL7oROQTwzfZ5Yt1jM/jjz/eBSqxkC1kyetC8Ouk9/JaLZ9+9lB0JoF1n4bjqHhgPBlOIuf829/+5vZX5xMY2NCbBccc+aASC9nsDRwtWk9PO+005yANGTLELT0HHXSQm/iIz4jQ9RsbYcstt9SvfvUrtx+5S1YezJgxw1UYkB/v7+TYWyrICDhvpPHDHyDIaCA4YoE+Q21mb4bd8grKFKVNLRfKk64vKFIMUf9bMRS23XZb15WAVi7GMNAtgS41OGccT6g2RCBpcHioscWAYR9LoEWM2lwm+GAsBcqZ2jWUN0rbl5MQGPh4uWHJuBpmRURG2EY2ks8hBigGLoYutazIDd1zvKywpAVj+vTp3YZD8njivFFAKyzdD6khpqssXW0xaEhDi8Y3v/lN1wWNGt7LLrssTHs/SEF+kI0f/vCHrufAvvvu63RU0qikCyGtYuhKdCatFOg+SOqxah3JvmQc56K77G233ebivY5lEhnkloorjFs+hEsLBmNxr7766m6ZDgwemEwLpx8ZwiFnYhhIyluSV155xb33ka11113XyZFn0003dT1ckjI9P5milcyDnHJOjn3zzTed/qQyAVkmzo//DQQgOGKBPnPXXXd94KU5EEAxMqMcyhLlucEGG7j4pPJGcdL1hlYAZqmjBpZuDThnHM9AdbqEMRMiyjqpvD3JOGqUGf/Di4CZwzgWw2L8+PF6/PHHnUNIX3RqdsmvtxdJYODBvaZm169jyFKTiqEAOPxUFnioDGCcDN1pkGOMUN+ChsxRy4sBTMsalQdMEsNz7OURY5rZxIDjkUVaYTkvFQHIOWAMs2/ttdd2k3TQLZEJEgKDD5whnHXG13jnqhpk9rnnnnPdt15//XWn0+iWhUwjewfv1/oAANTzSURBVOjb8847z1U+VZPUlRivOHpUWlGhQFdIxp3NmjXLlYOKh7/+9a9OHhnrw3hJ5Nw7bIHBAWOz0GvoQeSMigJkxs9aXA1xvGt9QD9uscUWlb2Ljn9nU5HKucI7PNArJhyBwKDEjMzojjvuiOxF77ZNkUfmYEVm6EamwKOXX345MkPB7QPib7nlluiEE06IfvrTn7pt4HjSm0EbmZHr4s4+++zozTffdOse8vLngoceeij67ne/G/32t7+NzCjpzo+8LrjgAneeP//5zy4OODZ5fCAQCCwt0E8XXnih008e9FR7e7tbRzedf/750UsvvdS93dXV5XSYOW3RRRddNI/+mjhxoou/++673fa5557rll7PPfHEE9Fll102j54lf465+uqru/PiHM3NzZE5aZE5YU5He5LnCwxsDjzwwG4Z4n1KeOWVV6JddtnFyRDBnLNu+frkJz/p0oJP7/ftuuuuTj79Npx00knu/U46OOWUU6ITTzzRrf/nP/+Jdt99d7fu4bwci3xy3iRf/vKXo9///veVrcBgJ8Wfik8WCAxKeAR8jRWtT4wZY+lbDfw+n85vs0xCHDVwtCqYAu6x9dDHk391jW11nnSPpLtDsixQfd5AIBBYWqDDPOglM3C7dVlPuimp1/yxSd2Y1JWskzaZT/KY5H6vQ6v1pt9mCcl9gYELM3EysYafpt7LFK39zFCMrDDOlW6I7KcHCq1VV1xxhUtHt+vNNtvMTbJBOsaP0dMFkCFmiqWbITMZc7z/3h2ttHzXjnh6DHjoScAYM3PcXKstsyDT+4AW4OOOO86dw/dcCAxuBl4/s8ASBedgoIKy9TNyobRR5MmXePV2NezDCQP/EqjGx1c7YT3h+5wnyzK/8wcCgcCSxuswv0Rnzk83JeM5xh/nqd7fUz4+Lrnf69Ce0ntnrKd9gYEHY2S5594JA5x2AmMVGd/KPsYRAs4R3/rEOWIyIroyrrHGGs4J8zLDN0aT4ES988477vt1pPHngWTeHl8W5JRZFemmy3mY+AMHj31UJgQCoUUs0Gfoa80HiAfay41HYEG/qTpNX44JBAKBwKLhTZS+6tuFTR9YvsHZ8j1Rqu85soCz4ytYwbeq+nd48l3ul7R0+UpVv5+WX5bVlajkj9Plj+0Jpspvampy5aAygfFrtIb5GWkDg5vgiAX6DE3pyab3gUJSEfeVD3NMIBAIBAKBZYs3e5Pv8GpT2O9b0Ls+2V22J9jPZDN8AJ8lkynxkWgmQupLz5jAwCc4YoE+ExyxuXyYYwKBQCAQCPRfvEnc1/d7X2wBnDE+QfLII49orbXW0jbbbFPZEwgERyywEDDolcGnA40P41R9mGMCgUAgEAgsv1S/+4MtEFhUep5RIBDoheC3BwKBQCAQCAQCi05wxAJ9pnq2q4FCqM0KBAKBQCCwIKrthWA/BBaV4IgF+sxhhx1WWQsEAoFAIBAIBAKLQhgjFgh8CEK/8EAgEAgEAoHAohBaxAKBQCAQCCw2lof63VAHvfgZrNc0yFJgUViiLWK77757jwLKFOh8gK+mpsZtn3/++e5jwb6FwR/zuc99bp7ucEwBSp58FT0J+Vx//fXztFCQ3znnnFPZio8l8EHi4447zsX585An+6qhnJzLf+uBL7FfcsklH0j7+c9/XgcddFBlKz7XrrvuOs+YKsrG9jXXXKN8Pl+Jjb8If9FFF7ljktfq8MMP15FHHlnZimHWQj4cCKT1x9x6660uzsNvP/fcc935knmSH7/fwz6mpE/iy3nTTTdVYmL47eQLPk/Of8ghh+iYY45x257e7jt5Vt+jnsrJfef3e9i31157zXPdieNDitwjfyz3yZfTywjnYz+//YgjjnBxHr5yT57JfIHr2Zt8+nOxrC4n+STlM3n/k/eIYy+99FKdd9553dtA/twf8k3i5bOnciavnZclIM7Hk98BBxzQ/Xso33777aeuri637SGva6+9dp6PX5599tnutyN3yd911FFHzfPbYc8993RL7ksSnk3y9OXx98hve8gv+dv5qOb+++//gXRsJz+jwDa/m3w9xFFeruexxx5biY3p7Xm/4YYb5vmuC9eTe18Nz/uBBx7YfX85V1I+fXn5ACjl9NeT/cnnCHxaZNP/dh/XWzmrn/eBpj+5bui6ahobG518Jrnsssv0j3/8w50DeeaeIKvJ6+lZWP0J/jfC0UcfvUD9CZwDWUrKB/KJPPn8WBIOPvjgHuXTp0uSlHnorZzo4+py9kU+iUcvJe+7T/vZz372A9eT397TfWdmXY7zv39J6U9+ezJPju/pfZS8R8m05JmU+d7kk9+O/uQDvxxP+QaS/gTy8+8jf00pB/n1ZodUXyfe7xznrynlRO6rz4+8J5939vdVf3J//vWvf7ltD9eTcnKfwB+/uPUn14MPMCfvO9eB81fbNl4vgZdj9vO8o+/An4f77mXDx1Hu22+/vXsb+qo/2d8X+5O8L7/8cve8V+eJLC2q/QnJ8i8t/bk8MvdOLQEQLm5WdeACeqPQg6D4i+sDx7P0+DTcoGQgXVJ5cQ4M6WQaXtQIoBekJP6L6T2FpGFGPpynOk01xFHO5G+mjByfdMKIR1mypFw+UB7ieoK8fZ7+HNVwPPtYJvG/E3zZKVcy8PsoZ/K6Q/U2cHzy+njIx5cxGfy5Pb2VsxqOq07jz50MPp5zsc21JH/Weyo/1769vf0D5YS+ymdS7nwaL3Ns+5CEbY71Ct3nB9Vpwd838uQ38WIiVN8n1v1vSObHufzvYZvr0dbW5sqeDMm8gG3k1f8eL58c769TEq4loRrKWp2e/KrP7+XB4+9bdeA3JPPzvxHYT15+u6dyct/ZXx04XxLK2BOkTe7j/D3JMIYb18vDMRxLWv+bKS/xPZ2La+nT+TL29HuAMiSvEYH0LD0+jT+fD6TjHB7OsSz1p5ft6kA5q/HOF2XgOP97k787Cefj9xFI09P19HLI+ZLn55r48vqyk6Y6+HN4fDqPv5/QUznZ58uYDNX0Vs7qtJyftNVUyyd5kc7LnC9nT/ccepNPzkc5khBH/slAeo71+DT+d7DtQxK2OZb7kcyP+Orzgi8bAUiDXPaWlryS1524gaw/AZ1Inv7asp+0vd170lUzZcqU7jyAdSAff/0JlDUJ6fsinz2Vm3P481SzuPUn5+F4rqsP/vykTdLa2tq9j7z9OqGapBx7fLpkvsTxW8gvGaohjrwoqw/kw/FJ+xOWpP3pz+nD0tKfyyP9YozYgorgb95Ag9/d19/mBdOnT14zhHxJ4s+1yy67uFqapU21fFRfgyUtH9Xnr2agyufywrK6P9XnrZbHpSUXy7t8Vl+3JUFPBoNnSd8v//uWtnxUy8XSPr+nuhyepXX+wPyplk/PguSkt/R9pfq8CzrfkqL6d1SztMtTDeVb1mUYjPpzabJkLfjAfOmrIFULICRrGpY0nJeQfCCSIRAIBPorGBHJiixCUn/6uEAgEOhvLGvdFPTnkifMmhjoMxMmTHAtYuGhCwQCgUAgEAgEFo3QIhboM6HmIxAIBAKBQCAQWDwERywQCAQCgUAgEAgEljLBEQv0GfoDBwKBQCAQCAQCgUUnjBELLBSIS+ieGAgEAoFAIBAILBqhiSOwUAQnLBAIBAKBQCAQWHSCIxYIBAKBQCAQCAQCS5ngiAUCgUAgEFiMVI944DtE5Q/EfhBS+BAILD2QOKS0aKFU2Q4ElgbBEQv0mYsuuqiyFggEAoFAT3iTtmRrts4w9KjLtru69+CSxcFve8M3Fa9ElWUgsESZK3k4YGm9p+ZXzlJGbyCJgcBSIThigT5z1llnVdYCgUAgEKgGwxYyFtJmzNp2iric2bs5iylYnHfHaHeowtnEwQQOLC2QwZJJJRI6RXrqcI14+zjNuGMHqeXBUBcQWCoERyzQZzIZXq6BQCAQCPQEpqs3X83ZKnXZIqOSBeecmTOGI5aOMiqXsi5lyf7gerH0blxMMq9AYEmACZyNXf/yzdK0u5wQRqk6C2WVg/gFlgLBEQsEAoF+QDA7A8snSanFpE07h6ojivTOa/9Vy8tnKZOZYrsmW5hjyc3ssEOyqTdVnnym0tPOV6rlDmWjieagzXa5cHwxlVIxitvPAoElQbnSGpbVM+q895cmnyabJsIt5a2UatxGmdA4G1gKBEcsEAgEliUVSxODoMMCo2k6K0sC8UVL82ECx5JX3AnMIgKBxQqjwBj7VYzFCyfLvCgMi9poklYae4+GTDlOun2s3rvpaHXMfM0Zui5B+U7lXvu60s8cqa6HdlbpztXUftdKmn7vtmp97c/KFt92361staTIcSCwuCkrT6dZafKNqim8YNtltUSbaLVtfuj2B50ZWBqEDzoH+szOO++s22+/vbIVCAQWFyjhVNRuf6fbSrIa1q9/mKpZl2vFlhiuKFXLyofKKRDoiXjKjaKFvDJOzuxP6nnp5T8oeu8cpcols3bzKmaGqnOln6hhjS+7HopUDGRcNcNM22izY2wZvSG9c5NKb15t+6arnMpoRmYX1a/3HdWM3Flpc/Kc7AYBDiwWkNyUstGTartrb2VL75gOTql53C819KMnKBsnCfIWWOIERyzQZy644AJ99rOfrWwFAoFFBeXLbF2867Ozfik9eTLR88cPpOmLgUBaC7Maj1fTVr8LXSACix3kF7J6U3rpZJUmXmJOf0pdw45W/cY7a8adf9HQDb4vjdvHTeGhjDlu5mRh9DI5IsfzHLjxOMi0LWtLL0vN/1Lns/9STWGqmjMfV9NGZ0gjPuGcOOQ47rQYrOTAhwPVmI46pde+Kk0824nStOIeGrXjvxXl60y6iiZnSGyQscCSJThigT5TLBaVzbp6okEO3XG8GcAaBGUdWHiQIQwCltlZv5Me/q4K3e4SsRaqRMs3mLFI2W6M2SR+0+eNKTFt2AkascWvbD1ui4CqwwKBBYJMzf2bctKUU7NtXKfO248wycqrdeyXNXTDX6q9UKu6dIu62uco3zhO5XJZpVRaWRO8ubJnOUQZJ8NYImlbliI6iKUtLd0bLUnXpSre/0VlMy2anD1aY7c50yLr3NGxhAM5zs01MJiI5RFKJgNIQaxBfXxSLtwHFVwM8pvS9eq8+QDV5DpM7w6V1j5LuRUPtAyQq4pMzc0+iFhgiRAqSAN9JjhhhhkJBLrkMG6Bwb7xSB6Mh3l1diCwUEQmUfaIpXKZSshayCmVtXWzXlkqm1cpm1bZ0mVMe6ctsEwG4nw8h6QtRJmUk9eSmcpIL194YhkbssiwXwYJDvROrOMKTlIIOb0nvWSG6+2Ha05qgrK7TFHNhqdbOnPCciZjmSHKmhOGVKVNKHG0nIxV6n9dNRa1CUbKLSNlzFnLWXStreOgdeUPUXanqdKmJ2lM8V+afOtHpdZX3DFlxqS53OM8AoML7rrXY2WTpXiaGLdpwSQUOfPiUQlUnpI2VXpDHQ+fppqaDkWmX9+pOVDplU2WkVE3oYytcEySqrx6CpUSxNuBQB9AiwUCgb7iZlXK2IOTVt42064neY3bxUsAHR4IfCj4PIQzAhLBO0cR0oaMdTk5K0V16tAwdaSHqi3V1B3aU0PUkWp0oZ2lmlw6WXpaF5BWWsWylke6u1OYl9ogvYH5Q1tqyjQfo7VyelV6dG+Vp9yjyaucqYadbzNpalJNZHrQOVoYxrGR4SUrY/EpKrOcTDMJR9rkM+W6JcZtGd1mrBEflWeRMvlv+oVS2z+sptQbanlya7VMucUliSJqGngqfOVCYLDg5crcd5OkNqVmn6f37jhExfbnVEpnP9BbQGWLMBFzPn/HbUoX7jWNmrPoOo0etUFlnCN60Vc1VIfKwfMJaUvnKrvcuS0uEFgAoWtiILAQOBVtT0yNU7LtispFU/hDUM/upYChG8YuBPoKklIxS5Vt/o0Ztt+3F3g+YWDQZmAp+P5SqaDO3Apqq99OI9Y/TKpf06xcS+kSezXO0q/bDlerW7B066vLnDmfHJPCg6Gc8eeZx2wOBJLQkuq7fj2r9jt2VC5tTv0mt6l92ObdnQXnS0I0Y9pNGJmoY5i6svVuN7PYIYUxFoPxzA6LRP9mu16SXt5P096fqPoNzlP9Sge6hg+XZQrJxl0MDAqikqm4yJz5rOrKp0t3He9u/7vpgzR+u8ucbzQPqYJpuZzSxWfUce8Bqim9rFSmTl2FdrXnN1DtCvurWEb6TPNSaVDpB86SNbQkYV78tqWJzA0rdag0dFsNW2V3O1fJxDbIY2D+BEcs0GcmTJigm2++Wbmcm/B1UOEfkpSbDHyiNOkOzXnvfs1onqFyblWNXnFHNay2nQoa54wIVG9sREO14g4EYpCr3hwx4nixK8XcXubwl1dRdtML1Dl8e+U104wDc/uZca47B2Dp1y2XlElimueVOLrQYqiaY+bVfgonb6StjOBkcVyQ10AvOEdIr6vr3m2UKXYq84mH1Fa7juqdAwTzNzq9pLqWh9SLmnHvkRpW+J8ZzhO08o7nSx3TzRNbSVFmhEkhiSy4bmK2Cumy2kzD1muq9MQuapk6SdmNL1LN2F0qzpvL2K0FBgF2u8umt6ggyJWuU9fdBytf7lJnZqjy652p0phDlDGZcW2zTiyQJ1uZfor05E9MHebUiXMWZZTJlVyX2G416JfVePHqSdQQcGNyejuN3fFak9ehcUQgMB+CIxboM0xfjyM2uMaKmekRZVUwhZvTWyo8+nXlWq6JFbDZHu1m29bRM9G2OzRU00b9SGM2PN4dls964ySpuTEXqrV3YLCCRMzPEaMrV8mcpWKqVqVVzlP9qp9R19P7KTv9v7HhuSBx8tqdNKRN+mxsm4h2lNZVbvNzlBm5le23nfFAnsCgx2QhOU7GCdw0lZ/5lDref0K5be5VV8PH1eAS9E1mYkfuTbU+d7Ma8veo9PrFStWsoGJhqvI4c5bVrOyWatry30rXrWCpafGgW64b1ePGObpqhbJtpV5T+dEdNGl2jcZue5cyNSsH1TrY8KLnZNT+vHuiyi//2s21MTWzq0btdKM6TYbpwRL3LDDbJfWg2u7cTblojsVklTJZoqst/3DpTLDI7AMQW3ItY3QPh0YVo06l0oXuYlBxlovKeju1t1ae8B8Vyrad9nsDgZ4JjligzwxOR4z+3vQ/f1Et9+yoIanJmtnZpHL+Exq5+h5S03Dzxt6U3r5Ran7Enqiy3sp/Rqtse2XlJVGpIuvGqet4NTDoQUR6c8TASU+qS5O0u1ba3mRq1unSYz+0OMxfMy1MvpzxUMF1nfHdaSzT2LyIDQ22ShHffJork5ge2fouvd25mVbeyQzjYoMyg+nxDsyfinUQO1BG62nqfPBEzV7rXI1Y/UhlTZ5Ey2wfcOpQE9X6yIFqaHlEncpreu1hGv/xL9rOTum9q6TX/mzGa0lda/5FqdW/rBp1mPaNv38HmCtFk+/uPhnlJ9Vxzyc0tfQJjd3+OuVzjZUdgUGBk0/0mblGLDJPa/bdn1RjaZLpuoxmjfixRm1s+tJ2O+epPEt64xsWLlAhnYt1oclUGgfLVp1mZKajHoi1akmdqZWVGrKt6keNt80uO77GHg5agknBJ/nLKjTtrdSICa59OG7Z9Ro9EPggPUtcIBBwMMtcWq+q66FPa0hpsqZ27qLhE17V0G1vVseK31Ln0CNVHvtjafOHLPzTXgQ5rVL6t965+yvOPI4ny+UxC4o4sLAgPTkzdjGEG0yEZqv4zmOukaKYSruhM0ioGxfTHTAl4hA7aKybe5a2YA5dxkLaTOC5wQyJVmlk6X2p/TEVnU3trJvAIKdbCmwFmVPqVhUf+qGmN35Jo3HCTL5i6eqbvCCN0pPKtD2mWaURym5wk8Z84hx1vP+cXv6fyd7KZ0g7XGNG7RDNfu8R1RfndcIgZTKe6z6vPQfpTVS75d80OnW35rx6hjqwg/tYnsAAoPu1WnS9YiNtpKGbf8dVQtHCmp1xsflVb7o3MIMKlLpdhbcutZUaZYs1JkfmjJluLNG90Zaso1fdtluaBq0E4tCvU/JHqvNjF6p1tV+rtMYfLJym0iqnqrDyLxSt9DsVVjldck5YlxWPKgw7OBCYD8ERCwR6JDYvMijSt/+ifOsLml7aQaO3v0yzNNoM26Ip+C7lLRU9uRjf2zX0aGn7G9RRTGlo6Rplpt5ge5kGAagXCw5ZYGGgLctMThOgWqZiNuerzSyCDhOjKGXekwrOQIhbuJAy1x6mdFR2gdrYjGtRaLNjSV90hkfZjBAfSubglU2KO1P1Kra1Wwx4GY0lNzA4SWqqXDTDfKjfmOytp/Fb/UwFJxoZk7Osk9KeQIPGUhmHePTYmuosjteMzB4qrrCTsuWLVfvasVqx47sqTjpf5cyeyq37DY1vP0fT7tpTUTnu9hXDGjUFabeGiesMmNq9VDtud6UnnqPa2qkm05THnzUwsLF7HDf9u3Xn7DfuJdVtyppG6EW9fe8pThJq9JqaH/qFciZT1CzQpTDNvJ22M2cZ8GGPtDla2ahgaVja25vWsu4QnyrX+bCGaYYaTO1mLF0mVXQhR6WWCXnWhJK2tvi56PnZCASSOD0WCPSFTCYziLollt2LXtED0kvnqyVaWfWb/0hzsiM0zJ4apq3PRuaGmUJHyaNu+VBpSTurdv2TNCTzrl557nx12k7M5LltE4FA34lrVJEfWgZSypaKbhr6TIqP4BbNMGCqcKqC8c7SscFAOowIMwzw37ryK+j9aAt1rXyCtNYflNvwbOU+dmEctjhb6Y9fpOEf+4eyTVvG1m23kHojgggkmBAkeDDBjHRdWAmlG6WW+1Re5etmuo5SHosUqiwIXC9miuOrTvG/WKQIqfJMtT52ihrT72jU6M1iyc7UKzL7NZsepvbZs9TMILAVPuFEryPbbMYyFQhATj6Y0Wynz1nAOC5otLT+KcrnX9e7D/wkllqmyKcZj2ImQ2CAwd3GxccuMb1n0tBZXF/pjb7nRKWUzmhI1x3qevZE6ZUfqGnOExadt3g+Lh7xFjc5Mr1ZKqsjalRzegW1aUWVijWmQ4tOn1IZxscRcP8ZQju8dLtmPnexq3x1H2t0+tdCOu+Glzn5c3/pQEvZAoH5U6VGA4HeueWWWyprAxXTst0v7EzlmyIvmI6frpbMDsoNmWBGBHGxmsUIcLVkpvAJDBB2XxIbt7PmlPIaHT2husJzLj2HEWIlHQgsLE4YHa6bmOOD0lQyB63LBLErU1RzeYimjjhe+S3f1Njt/qf82r9QZtWjpbGfloZ9Kg5Dbb3pMxa2MrsBIZ5iQmyhaNYxRrH5XlGEA8a5gvQOPvhq2Azp2Qs1vWtzNa1xgDN55y8L8T5aBOhRkDNj1o3pSs9Stv0114OWTlvoTmkdtdWuqtm2HL7O4aohYapdRRPFmpETTPxoq/CwNvc58GTIUJuqfp2vqqH9DqW73iDW7YtdwMDgIecqRGkV6xi+t/njJQ3NvafslNNUeOdSlXJDKs5SpfeAKTk+bj85s6HqtrhAI7Z5TkMmPKb8jmeoNRrr0kCc2o4z/VqTLao45RKTs0muootZG+Ouuy5pILDQBEcsEOgGDW3q1hYo3XSqQ3rlYWeM1jZtFI/HdVSUs1kS1YHpb6WPKNO4q+pSb6ht8n0cbg5a/M9SkSAQWCS651jqfvnHcps2i6C2VFR7+aNq2u45jd7kd+ZQPay2h3dT5+3DpHtrpbvqVb61zoXo1rxKt6dVuq1eumWkdMdYzbn3o3r7wYPUPus2Z88yTX7R8owik19/3sAgIIrdmPLjKk9/WOlR+6szNdzErHcZwGDly0mYuGi9OKlv1x2hcuNm6jKZap1xv+lHi5r1kmq73tYQTdQrT9yqOrqNvXaROtKba/QGJ6kYNVgiy6cbMrRtjrWAAcxqmQ+ej91fjenXNPv5i5wjVzKHDo0bGDzwruU1XSw3qXbz7ytdM0zlYkklegyUamyfqyo1nZZyAVmanNpGI3e8R11N+6mYGWFxY02RfkEN211seq/R0iflr+RMhOGpB/TuE79wwxLoFQPoxqAfAx+G4IgFBj2oTh9QzDhL8fp0NU+faC/0lTV8hY+4GNdK4FQ5fz/4D8qpoapbZWPV8AHeSW+KyRYy9iIg+DT+bIHAhwHpcb3DnBjxx1S5LTKpDk1LfVxDd3pUqh2p9GNbSQ/voMaOWy1Fs6Jy1owSPseAcZxSl4kjIk13HT4ajSVT3zVV40v/VfaFXfX6bXuqvX220pm8nS+eezEwOMCpci1ZMx5QZ351Dd/wQOWdAFRLQawvXfdDCznNNFkz45eOYsyomOqytTnqKAxV9iNnq3arMzS6899qfvJbUlNRc4Z8QqXatbX2qp1S15+kt/5rjtVEzZlyf+V83YLumHcr/sR0OmXH5sYpXf9RRdOuUTTlRnXMfMPO7X5BYJCAXHSYJ4bfJW2i9CrHup4q3TN7lmj/isHBKkcjtMKqXzf5HOq6fGdd66oFegHktlP+o1/pbltFFOmgyBT2dB4Y2nyDneyRWAJTvpJ1rmQGAn0lOGKBPjMQa3vidqoiw2zVaco1nlzDff7R6FJr63TNKTUp1TjeTYxQQMm74+LQ0xVx43lqh7mdHZ1FU9y2SnD7PImjWfgQCMwHjE4eQ176SCn/8MjKroa3oJbUKI3a8mLT7CWV/7epyjMeMkcr7ab8ZormcskONkHOmmGSSWeVImQy5mgVVMqV1JUz4zmbU7mcV6aQ1RqpG9X+wE5mzMyyPDlXeGUMFpw6Kr+l8sv/1rTiyuqKxhNBbDc4XwWkMiqYMTtJqdnnq/n2XTXtiZ85Jy6n2dKkX2j6XXuoPOValbJ2fO0KqredTTPO0OR7/qw5w09WeaWfqPP1C9R213dMD6c1K7ebasbs5k4XRbRjYA4je+hnRuyAPQOMzXHxBc188nwV5ryjYZlH1PH8N9TQlI3TYUH7EBjQ4G7Vmlwge4WoUVrlMHVlV1Cu2GVxvIs7zfkyZ8peyGVztpq1itLj44k9YvlAnjLqNDmdyYfw2efezWmTw4q+tSVVC4251/X+I6cpb1FUO6RMNxICgYUlSE2gz5xzzjmVtYFD/G5OK28v8troBZUnX6jU5PPMeLhEmnKlMqV3zP6cJs26Xl2TL7d9tv/9y5SuhMhCKRGKky42g+Nyadr/XOZ1qVeUmXqNUlOvUGra5UpPvdreEO+bBYPCxy0L3lfgw+EkBwPBFikzMFDmk8sHmCWyqvTswUq3vCzl/TfJSBd3KnOhYpRmTAYzdDl0BgifNy26Z4H2sqKGqNOM7xHRU3r3/i9rTmluNUJg4MPEBEq9qULHNDWN2tJN1uT7CnjYiqcFv1PF28dJTx6ppvJjGj3zVM2+8yNqv3M96fmfamTqPtW/uo+m37mNNLNgBu6hmlNeUWPTL2jFiZ9S02sTVNN6u/LrnKSanZ/VSlufqxStsOZJpcpFpcvm0JmzRyVC2k6KtMZuYOySFdWo4Zvsp2z9cKdWJ6c/Zip2HWeYBwYZFeXmWreiTVWz6beVqrfXbtocqBT7YhlGH+ajVhOhGZVD6BsQ76O3gfsiXdtMt+2J99p+W6NlbFTpPkWT/mNb9BiYuz8QWBjCB50DfYYPOt9+++2VrYEBr3HMy5ye06w7dtWwrDlJNI+ZVVuwkLGdvPidlVsxXvuqbRkrgZHbfRzY+kQdqJV2ujw2JihA1f7A4AFRQgRY9vRBZwzfjBmg7+pgrTjhDLU/dpxqZl9j9mjOjNOUa6UtmcFRY07SnNJGatz+enO+Hld016cVRQ1mYHRawMAgx4ogY3VUThBFeYvpdNMvF8pmqGRWUFd2VQ0dO0HpEZtJw1axgtWatW0HZNdVlGG6cnek/aN9LjBQYYr6XOkCtd79f8ptcpZyIz9p9xtpRRnG0oSqZDxWQ/pK6a4DTRjztptYw+s2EqLsbL0tWkP1W96icu2abqY6N9f3Wz9SYeJfNV2HaOQ2f1KO7NvekeoZr/Oi2u/7njrbp6s9t6XGbfIDqWllleIiWEnIPJ6nsdO0eEPpGc28ez+lx31Fjet/x07L/iClg4PKvfaLqEOlqFbZ0ntqeeIADWl90MknvQNiiUC3SlMbv6zRn/hDbAjYdmTee6uJZmPqTXU+cLhynQ+oTLdtdlf6g/OXk+SjoiYVJmiF3a+zZ4GZFpkCP7j/gYWjos4CgcFJ2tWqgr3GM01mfZjFYIYwrllU5tOh9Wbs1pgizqhczphxkreUeXVYGgJfEiskQjGqccqfdWb86ko1WJp6O65eXQw8Nw2esuOYbckRbIRAn+hZUNxkBJGpcfs/Ob2iiW2j9Pq1lrpkRkO7pUDQvJonj7hdLBWxZMRDuxmrRfs7QrMbjlXDdk9ryHYPKL3Wz6XhO9vho80otjxzY+3w6XZMi3tiGF8W1wB7oyQ5tjKw/FO5l51vmzo0g3Pk+u5+VwbfuH2pcoeZnrPVoLelpy5Q0QSDiThaUuM1Q5uqMPZwFcceqbbspoq6aJLgmNf11mOnKR3PWe+cva5VfqridlM1xjlhU1R6fg8VH15DU27aVp237aq6wh0aoqc0LvUPdbz9NztzlxnQVHPFJUHWmYacb+DNyWyo4Ts+oaGr71dxwtyvCAxg/F1GEubF3t8mJO258RqyxXdVTpvbTq2qCTJTdpTpRpgqqrH1CpXePC/OxLIgl4ZomvT+6arpmuuEdWOH8TFzeg/g1I3O3aOpT56mbDmtdBknLJY5NGLlIziVqIqnFwhUEeuyQGDQ4seDZUw/44SlVDBFXTSF6bptmduFOkVpY7ZiwPKNplw5Dv6jjz5g3EYpZlbiA5B8FLLTApM1d9nRsVIu0xUs+eSh+X0IDDJ4MfuXM00I4AVhrmvDbIgfhOnB7eVu8sYrvjO9ulkIBbW897DT7JkId8mO51gEzhvRJt9Mu8GxfE/nTW2rum2f1ait/m5FeE8dTx+tzvtWkO4eJt23mvSA5Xv3aBXuMQP73j01/ZXzzAjpiItrecclK5qdTbtEYPkHmWNUli1nT1NXYZRtN5jR6W63w9UjlW9Rx90fU9dd60kzrlE2N1rNNZ9Tw46vKdrmcRU/eqGKHzlXdTs8rtSEG1Wq30Q5U4GrlM9S8e7V9fYd+5oOfcPO46q9lE5P1ez7d1dm+k1m0JY0KvuEiqZHO1NrqJAdqwI9E6f9XrPu21JT7/60Up3PmOzRJpa1wN+yGq3IpVSTVLumJaawSUUbGGigb5BFglNHFioKyci4STXqXOSuSq9wpFIZhMje7qYDI3vX852x2vR7yrx8rAp3b6fSSz9V51PHq+OujaXn/mjH5avey/aOT9txuTHqSg1XwRw7ehPUTfuP0qUpccuvveuLZVpoU2o1qaQ/Qgy2BK3FlNSX3BUuMMgJWirQZ9IM1h/IVBSuW5jF4QaFm7J2qjKhL1n1gXd9MjhDpTttnEe8ybVjp6UzJW3/A4EKsVzMn57SmGQlHKyGujoTrhYVim2uxTVyw9aziUNJTysv3XMKZuCm9Eb0ZY3d9l6zhIsqPraTSvdtpMZZ5ypbnqyOVM5CrbrSORUQ7EJZwwv3aey7R2nOXR9V9N6VVCi7b+diSlMXTOtaYPmGWeDQW5nydLMdX3b6SlGj02QpZ0zSIjBF5RcvVq70qvLZTrWblzZrxDfV9PGzzMSs1cjc68q+c4aaXznbZKRTXZntldn6BmVX3NUN7cqYw79S6hq9++hf3TmpGCiX6jR09Iauv2NHai1F65+vhl2nq2aH11S741vK7fRflWrHq77rSY1OX6PJD33d5H1W5WiwklGJZhsdbBIZK9/AIAURQB5mp4ZI6x6jjkKT6z6Ys5d1znQaDWToyM4Mztl9yrz3Y9VMPV11qfdVMP3XVXSKtJusKdb2jvHKbXqLard9QMX0Wq5VtzH1lKY89INKqhrTmWnV2GMzpDTbNGOz69lN7xqqv+ZC6QKB4IgFFoIB74j1FdOfKbNAs2bMUt/FGB6nrH1woGRjJ+6DXSbMEAmXMjAfkJlYbrzs+GW3gFVAkLww8ZLvUi6dMvmsdMNxH7qJ97o8UkzI0eEqDV7PfF6r7/QX1ZWvlu5eRdnZd5kda85bV42iIh80L5mc4liV7bCccikzJCK62WZVF71mhviBeufho9QWMV0DbRN2znmaegPLFyYo9j+WNFvJ5BQVxmtOal3bzMWtsqWaWJ7K90hTrjX5GGEyVtLU7L5q2PAE5U0EmT1xzoP7K/fqtzTi9WP1zqNfd2JY1DjpI79QS3acGbjkIdV13mNS+65JTqvSnZep9e2r1ZJeU/Xb3qTO8Z815/9+vXPfIXrvlf+qJdpHQ7a6VcWaNV0Zatuel2bd79oW5pIyA3iOuYJznIyXzDELDA5oX0KsfGC2YsZ5t9l6rJW2Ve0G5rw7lck09KQxPVvOmMzWWSSVTnkXGEog04V8Q9E9EC7QoTGj4tCjFTVurJbceiaPp5pjR35SrnCDyi0ParYJZLY82+T5JtOrq2vObZ9QTcuzri2szc5Ez5oYn3FgsOMlIhBYIAceeGBlbbDQg6K0zbQZqJEp6TnRWpoVfUSdqaH2INEBoSfFipb28d4oqE4TGKzEnQ+9Kenq8c0B6qwEJkmOO7akzbDE1PigU+9ly3DNsRkxPXPKDFCms48nV4hhr/tEr+2bUf6U1t/+LOULl0oPfJreOiql68xgNmMDB8yO41i622JolC2vQqZL7elOddnx5TJzitVrTPE8zXzYDGajaKV04y4CyykmIfafLtRUA0QaosJa/9CKEy61+4qZa9jt5dtzKrebHmQM4iy1dzRpxTUON0Mza0aopStOVn2nyUIprazZsQ1t79ueeFZPaQsNWf0Y1Zg/h4+UKU5Vx7v/k6aeoPKDx5q8tag45lsma6urPvW02h84Siu1X6amt0/UkOwz6iivofrt/qDI5LW5Zi91Ne1VyZdC0QHcmPNbdd67udLliRZDfGDgEmtQyIvWp7dM1t7tDvnyVDWVp2hINNW8svcUtUxyMlzu/u4XIwxzpukYihBPbFSmmZ/xtSlcuMjk3NKZbs2aXpyU3krDt/yKHcU8iZYu+3EVh+/iegU02PmmPHWqhqbfVP7lb0j372HHzVR9+gW1PLS5Zj3+XdUXJzp5RVfGMot+rjxbgUFLrMMCgT5w7LHHVtYGDrEK/yCoSPbNs98i3dgvi52V2lWNO76i3A7Pqnani1RMjbTdKFUeKbrKmKo2S8PZxuTiDJmKUey+fRMIIBFuVKEZAUZpjMnRcHWkVrGwslt2psarmB6utsww2z9nXnl0IGBOyAxywVkzAwH5KxOQPbfTHZszi2F2aWWN2+aPdvIn1Xb3sW7WuyhTo6jElPWRGcFWpgwfeM6bwxWPjTST2s3SmC9nVFuydTNaaAlJWdxKxSs09bHvqlAR78DyTtzJlDZOvpFES4DD5IhWJiYpKGTN+d7iTJORsjqi9ZRZdXPXppBFt6Wn2pET3T6OKaTm2J82kx+pEyFccTOnCtujRuXWPlW1K2wnvfeK6ybWltpMw9falQYLI6055bxKlmUUmfyrSbXEl8erNRqvYemXlC+9ZqdAtyLkaTOpjY5WtRVsO1Xr8gwMXKg0YCxjNpqtroe/pOi2VVWw0HXrqiretpoKd4xT1+22fdsqKty9okrvn206tcbED5lB25GJLU2uiqq1eEYrxt+ti0wI6VnA+56x4OXUEDWteKg5+2Nsf0o1UVZzUqsqt/nPVCoPMVkcqhVoBbttden98+14vlzGU1GvIZmyxs34nQq3b6Hpj/3YOYnu/HZifkHRChJEdfDi1F0gEJiX2IGaC5soSvd9pfRoafwhmmO6vBbrori78qsdZkq7otjtb9zKQajgMgyPW2BemAw+j9GL4Az/skrbzZC2m6j0Dm9ZMGN2R3thbz9Dq293rtnGw81MmJ8M+Vd5LLxsObGrRFOLiyE9o+FwE9wVpce/p/pMq1LZGrfPYQvKEm9X4ir4mDhgnphER3UqFaR8y5Wq63gwrm8IDBDiNoOM3Ws3tsU2UHd05MJwVNM6zvd3X8ApY5q6TUs0Vi0a5WSvaOLamhpjRukQJ5bx/HMmXbbellpX9WO3lkotmj17jkpm+PI9MPe5BDKLRipTGuHybE3X2zlq4vNa/unaNTWk8KBmPHyMxU8lU1e+VNRiTl+LulKjbKM+jMUd8DBToQlZ+TVl259QyoQllykpbyGbKcbr6Q4XciZTWdNPNeVO5aJCJbg5kF2oidpVV+5SncXTEyFtjlbZMsRRMqHS213bqn7dLzkNXCrbsxG1qbE4XWqeqEJ2nMpZk71Uypb15ubVqmROXIoHxrWymeWQziqdnaGR038q3bG63rvtIBUm3W1O3hylSx12HqrRACEPDCb6jWX4+9//Xqeddpquu+66WLH3wJlnnqnTTz9d559/fiVm0fjzn/+sX//61/FgZOPII4/Ud7/7XbfeV3xZfR6effbZR//61796/S2BfozdMu5afOewCGLDAdzsiWUzXtvfNCPWDA+qblPTFDW/EScwK9bZEN1dHzxxPoHAPKAfImblZN2MBJOpWgt52yZgArjefohSMat8lDYjAH2T9HhM5my/ly6v1JFZDvPxVCK0aC2ttekXLIO7pJbbVSxjGtPVkJRzqd7uDQbC8wmHoeWJmvS/PwibKDBQoF2/6N5ttI45MCyNumiG9OI59FBUOjPHBKbVVTvx4Y/2rg01ZKvvO9ltjjbS6tv8TIUMrWyWI8KY7nJiXx89p9YX/mFCvrqGbn+eisM2NH36niWwTG1/qTBOI3b6nDtuTmp9zUmvEOvh4tvqmPkctRgq82F8ZknshmnHn1ZLaaQ5bUMqLWuBgUvGTVGvzBi1D91SnVpF7dGqdv9XUktxRQvj1FJewQLLFdVMKI3rDi2l8WotrWhhnNqisWrWWHWkRjrFRldFuohna7rUnhmpVT7xPRPLtDlO7yjX9l/NfupQlR9cSbr/ENWl3zU1Xqcyn1UoF5Rh3Jnpatet0cAWSNNDJm1PVNYcvHJR46OrlX9+RxVvXVPN//uqNOUGO26mpfQaOzBY6Bdqqlgs6pZbbtFdd93lnCPoyYG54YYbXLr77ruvVwdnYRwfnL7bbrvNXg6x4E+aNEmPPvqoe/H0Bc519tlnOycyecyTTz6pjo4OXXnllZWYwPIBshPLDxKRDF6qmOogVWpVzcyLlW5+Kt4x+zxF06hAyDrFyz9MmPhfEp+LXwYGO0yhHFXGVblxCxZwynwADFr3J9umVnN7YumJ5SyWpcgNOqc7DX1s4pd/HGLZtb/2nwkTmqNNzNMbJb10gZ0gUjZXb3LbN303L7GM84mGHM6cGR756GVlyy8k24EDyx1eduyWur9vaNrjp0iFN0RvP0YsMjJM6f9Kb19sclmn2tR76pz0kkufTrWqLj/LXurvuxr+uCXtPeXLLRxl2x3SxNtNbjJmvHYoPfWv0qxbLd81VDP8ExqqVzX5pcudvGZyD6h0//+541bW5XrvhYvpEGsneV0jhpkjaI/N1OgjZnjXWyTPADtnq7XlXaVqVo1bF1xcYKBid93EoGTys5JqN/2Xslv/T/ltHteQXZ638KKFVyqB9efVZMumXV7tDsQ37PKChVdUv8vratr5LdXu+KIya33ZRKdscppX0YRuSno/pYbtZHGPq/DoBOnx/TVs6jVKF+2JyNWp1FVUIV1Up8lk0XR4IV2yJT1kupSKaF2jtLFFEKVqTHYb3ZKJj7K1rWpq/5dyz+2lKf/7SqVVLDCY6BeOWCaTUanEBAjxC2DWLKaknZcLL7xQra2tLg3pvfMEC+N8VcOxPq+TTz5Zf/vb3+aZHbA67+Q2x+HI3Xzzza5Mnk022cSNp7rkkkvmKacnmQfr1efw9NUhXFrsuOOOvZZ1+cX/Hq61GcKVcQ1Ez510zmSksp2x+xll0orKb6vQ9lxsrLS+5h6k7lpjdzxGqju4Aiv+fvolKrc7QWAQgqgQkBxGIyBD8XocmGNrrryMVH74aOXN78kig85pY5+97k1Qu9K0OlhuZgQwUiz+tl3J0sQuG9kUatYzsZul9ncfMkO5RuWim95gIfByTJ4MajcZZmZFK8fw9Ktqe+v2+FyB5RTuXqyX3H2M3tfQmb/QjPsOVa74lrlVsXxKH1FrapzShXbVlmZrzkvnum82Kd1ifpU5+4/9yN590vDoCemhnfTWPSdWHKUHpDevNQHOOwFvz2wnDdvejr1bxbevU8byyLx3gTIzLU3hHTVHq6ktvbnaU5tqzWEdaoyuVcvt39OstmHSOr/X+jv9pDIDLW13RmR6udCp1dedgAq230ChAgMVHH0C7fpp1mvGWhhhOm+IhUYLDZVlUyWwXp8Ilk4ESyfbljle0SiTyfUr+XeY7G2oVT9+vBtLy3ivzhbTyqY2u9I1KpaoPGt3XRD5rmjeCR3at0tZc8RSUVoFmuwinDK6c9vzU+5UOepw33BkVsZSgWeNrrdSSzu9Eyx5t50VtOlgINap/YSuri51dnbq29/+9jwGPy1mF110kbJMwdQDODsPP/ywS3PvvfdWYmNhTubzzDPPuG6NtHr1xPbbb68111zTHYMTxJIyXXbZZbr44ov1xhtvzONYsT/pgHk4dv/991dDQ0MlZi6PP/64Lr30Ut15552VmA/C8e+++64770MPPVSJXfYMtunrq1Wg38YZS6Xytk1HHKP7y/vzHlF9/Fy8DM2VpUCgZ3jmcLpMDxZqlVvjULWVaiymJGbxyqmgmqigBjMIapkZzJwi2+Mky00E4hy1ePbEclSv4aNWNQGeaYbDdHueccLidosPR+U4c8bcx85LrZr+7qvzkftA/4d7Gut5dx9TL7jKgBF6WFPu+pLSXe3mvsOGalhzr3jQlx0yUjdo2mNM5jRMw3a+RK0Ne2tOtK5mRJtrZt2XtMrW31Mmeknt93/T/LxJKnW2m4DmlR25gwq0EKTWUHbF7V033FHRqyo+cbgmvtKioTs8ouxOj2rIjncqk62T7vmchqTf0/TaPaUVvm1FHRFrYfMdYy38gtKZIUqP2cj9CgzfwODAS+6iBL4Jlk0/oBlP/c5VHJTNWWodsp+KdRvEXcTLafex5m7V5+zBeIM+AkwCQnftoj01hfIotY/4gfKbnKQuMxOpECMFf2N4wnDCiDMBdtF+GRhMpMyZWObvTYqw2267OQdk3Lhxmjx5sm699dbK3riF7KCDDtLRRx+tc845xzlLf/3rX52DRisZ+3CYcBRyuVgdX3755aqrq3OOEvF77LGHOw8tb96hIC2Onz/XJz/5SZcn26Q5/PDDNXVqPBCY46CmpsZ1kYQJEya4/MnHO260jrG+5557unL6rpavvvqqjjvuuO7y8ACT7pe//KU233xzl2b33Xd3cThwM2bMcEu2Se/PuSzZeeed5+nKORCgVp/uhhk9oba7D1Nd8WVTwHSnifen09ynuY9ICtkxw7c9GqX8en9WZvwByrz1demVM03RMuMSXQ8sfS9PFd8ee718qFbe+WLlMJKxsAfQ9QwsTpAjkw1kyRkBFpyoPKyuZ39mivFNdRViJyidataUms9qjU2+oObHD1N9+0Oma5iWGTMaR6ykUnmcog3OVe14i7t9ghms5uCZWmNQuTvPh8DJup2BlrxsVNRb2aM0fodz7KyB5ROELH4/ltSu4tu/Vur1X6hUGKa6rU6XGg4yabL3pu1vLD6gjmdPU77zXaWbn1cp22WO1/Yave35as+s5MY7upx4dZbuUuvDh6mh+L7J2xi1ZlZUoWE7jdzw24pyq7keB9JLmvm/4zVU70ntzytd6nIZlMq1ypTiTzs4+Td/bGLnp7TqzhfZBp9RsIPLnOxdle7fTe91rqbxO12rjHt0aGUOBBYMIui6zr59vLpe+KvZddJbxQ216o73q71szn2N2X/Rs5p1+wFqSr1kYl1rTpvpVmw/03h0kkQfogdx4GZmttWoLW8zQ/MRzbl7HzVEHZaOxgGeMbMUXHcbsy+cCW7HmW3wmg7RKjtd4iYW4VlkFzM3BgY2/eoO5/N5/fa3v3XrjAXzMIFGoVDQoYce6pwdDy1khxxyiHOe7rjjDuck3HjjjW4f8ezHgaJ1Cj772c86h+aaa67R0KFD3XHzcyrq6+v1q1/9ypXl9ttvd44gjtEVV1zhjiVu9OjRzpnjvDhhQJ6UEweK9PDFL37RLWlZIx2tXfD973/fpfGBfDkOZ/D666/XGmus4cabPfHEEy59YHGTvP+xQpw/qNJ4WRazzcXr/q9bW1AWgUCfMOmi619spdqS1ivTJ6ktVdrwOpW2e1aZHV9QbqfnVNrpbY3Z+lRTWuPUtMqWTrEjmxHtF1HejFLa0CLla2pdHrFWItWivQJi+a88Q7YozjOJSGD5Y648MC14eeUfK7/t/2w9oykvvKSiOWFUdTYiktmt1bHRf6UtH5XWP8beWyWNLt8p3b+yuu5cX1Pv3ksz79pVXbcMlR7eSbnW9zW7NFwtY3+kuu0eV+1mZ6iEE0arLPmV11XDlterfcsnlN7xYjdtPbsyqQ4Va1ZRoeljKufGa0ZxL626zd/UVWaSDj6vkFEXxY4eM4dxuoaveaiTdybBSZnbGAjMD+ccIetu63Z1vnqJolzabLEmjV3teHVkhqgOJ4zdqayr4HIqz/QyYhu3cBWUTnWaO9blHDO62LalNlUpy1HrqHHU7mYXtpu0dlg6S2NOlztzt+r0RgNC70GoKwkCA5pFewsvZmjVGjVqlHOgfve73zmnBF5//XXn8IBvmQKcL5wXnBqcHx9OPfVUl47WMt/qtfbaa7sWLvKmVYtujDhL/hw9cdZZZ2mzzTZzrWK0ynE8+eJ0JbtJkg/n9U6Xh7Q4VX/605/cNl0S+R2kb2pq0k033eTWTznlFHc864Cjh1OK83nGGWe4VjS6XgaWLMx4hHJM8oHZ5NwYsrzqona1TrrflOoTKr37oD1JtISRYt70gcCiYS9m0w0OMwLi/jE0CkQWyqpLF1VnDtpQMwAaLXTKHK1VDlA612iiWDB5NQPB0pbLKeWyXSp0zrCjzXBN+U82Y7B+yJe9HcY4SAJ5QfbD5hXoJ6C/Yh3G95SQMWU2VH7dXVXffLmy5Smugcvdbks2LN0ZT96x0m78jceB2SFDMy9qbHSDhpduU7am2V7uWTe2UflxGrbaDs6ZazAvK+NOh1zb0kQxb9txh++NVRxztKZHq+vdwgSltnxAHR9/ROnt39aIHa9TR+2KyqRjJ4ss8rTRPX+W2qOV1bDKJ10rQ8T4m9A2G5gPWGz0F+AT5hm1Sk/9QTWFWaqx9/yk3CdVu+ZRqqlYye6piGqUzTQpbfZfXJ2VMplPqSM1VK3pcWrTGHXlRpvcbqRVNj/Kqdb21Bhpw4PtOalTa2mkZluaZo224+rM/jQZTpVcCTiBG0WWUKHYhYGBT79xxLwTg4NDtz6cDwJjqdj3hz/8wS2TgkkLGI7OgQce6LoJ+nD88cc7B+uxxx7TxIkTnSPG1PTe0QEcNPLHKfOwn/w8X/jCF1yXxsMOO8x1f6Rc5EULlS9L0vlKrie5//773e/yziTHETgX3Q8feeQR53RxPOl8GSgjgbRJBzSwrGEShHaNnHWaWu/YTJnOxy0Ow9fulf0LBJY8yBkBXUGgJtX0mTMXPiGtE3+GI5My48IMBuQyk5quGVNetu1xpmtG2RIjgq5bH1Jm7VRxXTITOESuy1r96LU/bG6BfgVyhEzx6W5brnys6koT9d7jP3XmZ8T7iFdSMa0c79XyMBWymynKDFM5nTWTdkV1NO4rjdldTKrZmSqaQdqoGaVV1Z7Ouzzsbe/+dlMRaWLL0VrKrf8vDdntdY395O1KmeM1BDF3Lbskw020jO3Uzh2bc5XKU25SR/2eisqjzZilcoB0QRoDveOlnKVKN6o06x4nT8Xy6lp5i++5llYvQS6NOVPZ+mHu4/ccl6IiyiStOdpSQ7Z6SA0TXlB+x6fUtMtDJosbmbiW3GdIpH1Vt+NkNez0iIZNeNnCxfZcjFU+56TdHLbY5ouiRneeyFUKBwYL8d1fxuBoJJ2kr3/9684p+fnPf+4Cjsn48eNdumRLFK1KOEU4azhltJD5Lop0Qdxhhx3cODFgzFW1Q8M6rXAeXwbOTWvVK6+84rpD0k2Q7onXXnutc9zY752lZLk91b+HbpDeSfNLIA3lpxw4XB5/LPlAT+dYFtAV05dpIOEur/3h5b1A+MgjMyFlqBHLqN4Ucalco1JUsK1K62qv2czd0T/uaGBgYVJl8lgsm44c/20zno9xxgLfwqF1zGwCdc18yWJWVGbo+ibvXU4ifacc1vvwBMzFdZlEH2fduIiCVtOoNXZduDwC/Qx/9+hwFb9rXVVleRtl1jpcjXOuVq78okppkywnXDnlLWUhtb0y2zym7NZXmPN1iNIbnC997D/S+jcqu/Elyq7weTNEX9XqO92gupp1yNCJazexIMartkyb41ZKtbuWsyzbbo/pV4vLmCxT5YXUckit3lH00hmaVtpSYz9+oigaMP43ThUI9EzG3HokJK/H1XLvycqUupSrzWjWkE9LDVu4FlqPezJSDcqNWcUJJHLKBByMEKvX65rz2h1SYYS6NM521/FJZ1tSaRvLaWtqiDqzq9vaUGnWK5Z2mgrm0DmbwmJLUUajRq3q7JGU061BdgcL/cIR6wkcqHvuucetM94LvIPjnZnPfOYzzoFhAo9kSxYzDuJEAV0dyYtvfeF0VXcppFUsCecgf2ZfZP2II46o7JHa2to+VMuUH8dGd8hkOfkeGuegtW55afHqL07h4oO61XiJg+UGxlb/RJSiBZRjKkXrAq0A5sSn6ZyQNUXLpM5MVRvfw5RdI9L0FOIErkNYTLBaA4sMQkQwXWYySoeskpqkNc+UNvqFWtMj53YZi+40e3aa6jY5uiLndIvhH125TLe6yoiKUFbkvjs4/DLGHwtt0QZmtX/EHx1Yrpl7FzE1O/FuVv2m0tEcvXfX15yB2WFJ+LYYs8Qx8RBGbZTfRV3rXaD8yAmqLZiJaoquMOQQta/1TxWjsbFtabannwTf4U/Fslu8aGmrQ1WaTHqTFN1MxWrOHc3nRNyhLX9S68ynVfPRE6wstt8SO2PWOZKJ8wQCH4D2LHhFQyKzGU1cZpY20qgNvuji+URILJReMBvN8x/hZCxl8h67cnkNSb2q3LvHavrzP3f1E07qzMHy1QVkQ4VGTdQivfUN6cmvKFueHe9z48XonDhUQ0asXOma6B+KwGCg32qp0047zS1xlI455hi3DkmHZfXVV3cTajABBq1odAFkTNVRRx2lb37zm5VU0q677uqcq7322st924u8maURko5ZEro74uQx02Fzc7NzzHD8ko4bTsl2223nnCmcrS9/+cs9Oio77bST64LIt9AoG5OFUN4f//jH7vcw9izpoEF/dXj4rQMJ3KpY8VFzhULEoKB1i48w+lB0IcWybM58uUP5clG1xfiYSG12OK1hJdvusmPpttBTcJ1olEmX3DlR0ZU2tEDgQ4DgojeSSwtmNLuJFjJ16hh1suonvKCcOWQdQzZFqjVp4uNmIG+jZrp/WYwzM8zRKqWYzgPHyucF3gix4Jwx9qEDLUQZF0U33bbUSNVtcIza0412JOkCyy8VOarcd+ShxrRVV3pDNW53qUbrdr3/yLcYjegkgU6psfcTH5WjCSBr8pczWTJviRngGvMWhciY+EQ0cYE/TZLuOEtowkV6JI7ADpyyLoJtuVyi/0hP/EEz649S4wp7W4SVhUMtDWVzWQUCvZKqtHrtIK36FbUVR6o45vPqqF/byXXZvaEJWAolpuKQhm/i5KqMnPNRfLPVilFe+WxJI2f8UFMf+JrbX0yhhXN0UnAymS3PUvElc8Je/JOZClnbx7ltpz06aQtt2VWVGrue6VNLb7rVCX9gUNAv7zRO0zrrrOOcJByYamfJOynEX3XVVdpoo4303HPP6Sc/+YnbHjNmjJtQg3Q4Djhl++67r3Oszj33XNeVkRkUR4wY0eNkHeS78cYba5ttttHbb7+tgw8+2E2o4SfO8JD3V7/6VQ0fPlwzZ850aXtyVCjHdddd5xzHt956S2eeeaaeffZZrbbaam4GRcpQ7YgNNIenv+LNTqlJxfy6mlMcoTmpFdVqYU5qnIWxmmOmxxyNcqE1NdrcLrYtnv0ap1Zbb9UKtk6wdTum5zBGXdFwtWtVZ0hAz9UAgcCiEst1LTqwNEqdo09W+8ceV/1Or2jsmp82K3VNNW35Y5KZrim4Wt2Uvfwz6jTDIa4wcJMo8I08t7TcLDAyhzY3xoXx+nBLy6O1YXc1jN1Fdc5oCbprYMB99PcybRJiZHdTbp1va4Xmv6rl5b86KaCFyk2K4SxOjoj/sYaxaTtcPMSxPs8FUZ0ylmnKkTfDNaV7NeuBw/Vqx4Zaeeufu31ZK0sg0Ffo24JzX4pWUGHlP6t+52kaud5XVZvhA8z8QwKRrHjpJDk7Th3lUU5nFphAycXSbhzPN9Da/qY6SpbMohlD5vIgSXqKsh1vmz0Yu3VZTswzE9WY31WyvEbZAWu5PAKDi37xHTHA+cIhYbZAD9vE45TgRDFRBkvicFx6akWanwNT/VNJyzmSjh7bOFs+H38ulgTS+jggT1q1OIYl+30XSPLw+fiyJfMDv9/v8/uTv4246muzLKA1kTFzAw3GEmBcpkuzTFm+azfDywPykgyA4pyrmGO4l/F9jNPF9/YD0D8hGm1a3xRu1s/UxJEc448PBBYnZhE48YqlDNMi7WpbiZstTT5NXU/8UvkaJu7I2z5bdg8Uj+U7KdnxX0wLxj+YvrKdM6OtNWq7K9WVH2emCbI/V3cFBhImPSYfqfJM6bVDVZh0jwqr/1l1Kx+tNrvtmXSbuUF1JhtzdVlshnqZWFgdF0tcUgLpSOu6JHY9qPaHPq3Z6aFaYcubzDNbzSdZ+NMEBi2xhOEWUfkUT3UU98KOJ9BgNe68iFD5N/VENT9whBq7HlI5qrVnosM5XCk+NVIeotZxP1XNet9w39ETvWUsX8Z/0Qsm1fJ7RQ9/R6VMjbKud1fc5lbOlDUpfbRW2upfSmPmxQWLTxsY8PQLR8w7H95ZqYb93snpaT/4PFj67aSDBT4fnDlIOl1Jhwq8Y1RdLo6pztdDOr+fpT9PX0ieo6frQFmIq45fmtCdM/l9t4ECihCV6O9qLEE9w9VflDvAsfG8XxgmcY1b0nAJBBYrSe0eWxHOecKYdaSmS2/8QMW3/6asCX45ypnRwAgek1Gnh5hVMWOrDEl3B9ge08UpuuqmND31EY3a5kIVMxub3nMJAgMUp61MePiiR1qTpacO1YyZ96l+9d+qdrVv8Clc5Z0PjmHrnXi0K5LD9tzeJAtHrCfRmpCN7lLbXQeoXDtM9ZuZE1azlu2NcUZ0UKeBPsIo70gMJ6Dl3+TTZCcpQhXX39YqMX5n2y/U+dgPlCvUm26kfwtv8YJatJGG7niNPQurqjbzmtqeOVGzZ2c0erO/q1g/VLW6QcW7PqWojF6lUszyNl3aWR6hug3PUjT60/4LJfMWJDCg8bd8mZJs/ekJ9uPUzM8J8XmwJF1PzpLPx5N07PwxLAneGWKZZH5OGOl9ORfGCQOO8STX+xPV12IgwC9CcqiE4qqzzp3rLdApy4/3yjgFHpsXfQ2uji3h6fXPOx0YMCBgFsxninsXOoGLu+Mw41dBI1Ve/UxltzhTHdFYe8aR606lyybjZnHzPNDpJs1kDFEp3lcsqr1Uq6m5vTRqwp1mCJsT5rozlsxIn181RmB5BlOzzGCWTNkc77HSZtdqxNh9VPvaNzX5wcNVm2qrOEsYmRiwpuvcKwOZoNdBXyAVrr4b7eU2yYl1dG+242/SvTupvTxKjR+7X2VzwlwLGYH07k8g0Deocsr40Y7Oi8fln4vvsxITCxmpVL+dSgU7OmqzKOQ9th3aonhWxNryrWq9e1vVT71S4wqXqfnhXVXT8abtG6329Dom1Eh12c0+WrZTNGe3lIbvFuftCbI8aEB2BhyL6sh4pyoZFgRplqSj0pcyBD48C3fnuBc+fAjcTB3BYA0sDZBsjIs4xNtebjEzCq5Kob32q6rd4QFlVjxShfJ4c7eGqMMMBSalL0ddKjA9farG4seY0bCJMh85R41bX2t58D0yI5OzrDOW44d8JgLLCRidmK9ldalBWu9CafNTNbr9YjXf8xHlZt+ncqnTnKf4g+GlVNZkiKk+GD+DzluwpqWqC3C+mJWRyQvyekrlRz8mPfBlvd2xr0bu8Lh5ZmNdLwZXycDS/gzAusLAUgPdNT/9xb7YgZI+rvp1v0HtgEGX3VjwMukp0uRTFN27m2qjSZqZalIxSmtE+RHNvG9H6Y2LLHm7MlnTlHZIttyprqheheG7qpxvVCo993NKgcFDvxkjBt4BCnyQ/nBtBmLXRIQ/+QAsSBXHqamv9UfRTrYwVM7o+vf4sy3b+xoYyFTkrYJ3yTys0f0mEt9naoxt5cwcs4DvkKY9JrW+ro6WGUo3jFd+xEbS0J3Unvuoy7HGdJKbaTSedtQyslg3vnJA1u8FHOi+StOq/cdZ6jKZaUjfq9IDR0ltr2tK7QSt8JGfKTX8Y7Y/b5Jl+y242eBMciJ7j8WVAjBXFmNJTMXpZl6uqFRjeWwsvfkzadK/1NxZp8zaf1HDKnYe0qQ67Q/6N8hbYClisoeaTKeeVcfde6m2+JZKTFWfYhxYp+tt0JaqsXRpZaOySSijwUt8+9x9RsQ1Kts+ZrCtKxc1uby/Rux8sUXWOr8u+UQEBgfBEQv0mYHsiCF1fjl/CSQVahhY77mrau9UzuiMVn+2+Z8xEFhcVKTP4aUO8zceM5ZxRgSwKCKmtsTP8sd1FaVaMyhI7/wvl8AC+AwDAxhcr7JJTNyZm7YrRKBkf+g6qOLfpfu+J3XMUVtufaVWOU51a+9vhw0xn2mEM0RdeguITc622I5FyRw0M0zVcrqih7+vjvRoy7dFuVSHik2fU/3H/qGiGbjM0diZKquGGT0hyF1gqUGlVdpNY48M1xeuke43+S4x2oxPm7M018sN9CqYIxYLZykVKVvOV+S/U5mUybnZAK3Rmmra5j/qqPuoasg1sucqyPOgo185YoH+Dd9BS37gOuDxpkQgMJCofjV4GffxcbtGkPwAMkFXRBr6s7amrrOlx06T2l5TsUZq7lpH5dymql1hMzWOWk+qG2thLXVFI8zRiju0Fsw2zXXacQ8f67y0slm66RW/IK39O0XmyNHIEM886z1/IwhfYKnidR8VCGknjuo8T10PHOW+R1ZK1Vq8CWWqk6fBkvEdsbgfQsTMiS5YvO1vzYxT3SYXqTR8J9euGxi8BEcssFD4mSQDgUAgEEjCp0AKZnbSVkZrWbrwrNR6h/Ty1SrOflRZNwbGgu2cWP6Uxu14bTzTovPoZ9ufl6Tpt6vw1g16b0aDVt3hfJXTY8z3Itdc3PiatFiCIxZYqiB8XgCpfIg/ap8yZ0wPHycVTLZTJtwR4yNJEX9bTKkO28gq61qUU2qJNtKQTc9UceTWC92nJjDwCI5YIBAIBAKBxUDc1RBjEx+J7lu0krEkorY4w1ZmSdkplnRl27mieWscQStClxm2eWeqQmzCNlu6JrebnPlkwjxUbQYCSxZk1ZvMdOqOJ5bBGUuX7lLb/Z9XpvN11eRtbymvouqVVrsbO2YblnCUpuS30tgdLrTYJtW6aovQHjbYCY5YIBAIBAKBRcYZE/YnZU5V0dyqyEzNjP1lVE3cQSvvWrUYf5jBuSoXlU670WWWuugctnyljYA0WedoFRUxGYKLraKnSFeIXgiOW2CRQLjmClj8gY9YrPCzsoXp0ozfquX5c1QfTXGyD51qUGfXKqpb79uKVvuCOypuHQtOWCA4YoGFIHRLDAQCgUDveHOiB4+HXS56Pmkcve3vziAQ6JfgjNECnI9mSS1/0az/naUo26ThG56s4rCD3aSyrg0tiHIgQXDEAn1mwoQJuv3228PMloFAIBAIBALVMIGHWdW0d/kZZxkvlrP4dNyTMRCYh9C8EQgEAoFAIBAILAJ0rS2ZVR1lysqkSxbMyLZQY45Y2ra7G3sDgQTBEQsEAoFAIBAIBBaB2M/is+QQN385I5v+ihZL18VAoJrgiAX6DF0SQ7fEQCAQCAQCgXlhmpnKhxviD95XiNhIpSuTzwQC8xIcsUAgEAgEAoFAYAkQ/K/A/AiOWKDPMGNiVxcf5AwEAoFAIBAIBAKLQpg1MTBoQfSXZVfLZX3+wPKNV91BhgKBQH9lceup8N4MDDRCi1hg0FIqMcdRrNj5RtrShvP6l1Rg+QFZ6UleloUcefkJchRYGnjZX17krVBgEvHAkqCvMlAsFl1YWJaFPu0LvlzlMu/vuXH9/Zno7+UbzIQWscCg5b///a/7LtqwYcP0jW98Q6NGjarsWTq89dZbuuqqq/Stb33LKclQy7d88Lvf/a7bsKivr+/urkvc9773vaX20fP29nbtt99+TnbOPPNMrbPOOpU9/YPjjz9ev//97ytbgWUFcnnWWWfpiSee0CabbKKvfOUrlT0Lz7HHHquPf/zj+sIXvtAv9ZU3Z5C90047Tfl83m0HFj9nnHGGvvnNb1a25sIzn8vlnNxx/TfbbDNtueWW3Xrxuuuu0+TJk/X5z3/ebffGb3/7W3cfq/XpbrvtpptvvnmZyR+6Ntb58fm33HILbbPNtm69v8J1/PWvf61slulEAv2N0CIWWCgGSg3jHnvsoX//+9864ogjtPnmm+uoo47ShRdeWNm7dJg+fbref/99t07rHC8YXlCB/g0O+8orr6yVVlpJ119/vUaMGKGhQ4dqhRVWqKRYOnzpS18yA2AbVwacsGVdp/bJT36yshYb/8i3d1gDy4bm5mbtueeemjRpkj71qU+5yh+2ceI/DJ2dnUukooEyJVvbFkaWKRPHA3oUA3327NnOGeiPLSrLO9gAV155pW666SbdeeedLi55v4hvampyerGxsVF//vOf3fvW34unn35a999/v1vvjVtvvVW33XabbrzxRqdDlrVuS4IjOXz4cI0cMdKFv/zlr9p5552dc9Zfyrn77ru7+8S147pjV2QymX51HQMJ7MYEAn3i3HPPjexFV9lafrnnnnsiMxrdur3EXWhpaYl22WWXyJSpi1+cmCKsrH0Qrif7CeaIRdOmTavsCfRn/D3bddddI3vhzRO3tEBerrnmmnlkaFlixtY85VgSz1Kg73AfzCCLrrjiCicjXnf/6U9/ivbaay+37WW3rxxxxBHRWWedtdhljecIvPz0Of9KWn6n/42Lo2yLI4+BzE477eTeozzzPOdetgC9VM1nP/vZ6KSTTnLX9Re/+EV09NFHV/b0DPk++OCD7j1dLaPIysLen/mlX9i8dthhh27dViqV3fp3v/vd6NBDD53nOixLkvaNJ8h0/yW0iAX6DC1GS6vb1ZKEWrqOjg5XO0RTPd0niKMWjlpU4ul+RgvVhAkTXG3Xe++9VzlarssLNbD2MpK9FHT33Xe7eFomkq0C1Eix35Szq5linS49HPvGG2/o2muvdXHso8aQJS1zdG+jFpFaLcpCPgTKEug/UPPO/fHPBNsE7hv3EfnhPs+ZM8fJhQ/77ruvSw/I0v/93/+5+B133NHJ2i233FLZKycL5IeckN9jjz3m4okzA0B///vfXX7IB3J2wAEHuLzYj3xybsoIxJtB5PKZNWuWTjzxRJf/Pvvs4+SPQE01ZeB40n3uc59zxwK/hTzYjwwfcsghrrYVWSWelgnKQrmAFhjKBbTI8BtIhxwfdthhLp7jL7/8ch133HEuX8pAOnMWussdWDQ+85nPdMsm15SWVO4Rcov+4z5z/bk3L7/8sjvGyxH7uB++BQ0Zmzp1arcccC+ff/55dx/Jm+7e22+/ffc+5JV9wDmQG+KRr9dff12tra0uDn3Mef71r3+5ciIHPEMsSYcc++eAJQHuve8+7b333k72kOPnnnvOlSMpe+RNespMfuzzZSI92+zz++nGFWRv/tC6QndDriP3a0FsvfXWeuGFF/qUFpCzj33sY25ZfS+Q209/+tPuXnHvDz/88O5WM+4lrXTce8qGLiUd+RB34IEHdssusoRccSyYM+XkHVlBFyNTPeGfJUinU85mIH1LS4uLJ/9f/vKXLv9vf/vbLh22E3lTFvQy1wIox7vvvuvW4W9/+5uOOeYY91t4NsiDNISvfe1r3c8Zv/ucc85x56K85An/+c9/3DZlZx96l2M4r4ffzDb7efb8+4h8H3jgge73Aedk+eMf//gD9yCwmLELHAj0CVqMBgLUEpkid7VGZkS6GjeCKWu3/5VXXun+rcSb0uxuLXvttdfmqfEzA8XV0HGsOVauZtZDHGlNEbptzmcvBrcO11133Tw1waQ1xem2OZZz+jJRC33wwQeHWq1+gr8PyXvk4T7efPPNTnb8fTUnv/sYe7lFZrC69VNPPbW7JYl8nnjiiW754nhkxmNGcmQv/O7zITs33HBDZIamO/473/lOd00z2w8//HBkRm/3Nnk9/fTT3dvU4u63335umzztJe7KYi9qF0caWk5Y8szwW718UjbK+cwzz7ht0lAelkCZ/DMErPMcAecy5yD6+c9/7vL997//7faTJ8dNnjx5nmMDH45XX321+/57WfSB+4w+A+4jushDy0WyxYL74++tOdBOjvx9/sc//tGt/+hVwD7O5bf9fZ05c6bTjf445DwpL7SwgC8TxyHbfj9lvPHGG11eYIZodOWVV7p18Of1+5FbD7/VtwoCz4kZ7y5v5Je8WWc/x1Mun0/ggyAfP/nJT9y6Oa3Rb37zm3muF9evGu7P7373O3edF9Qi9qMf/Sg6+eSTnSyccsop0Q9/+MMP5N/c3FzZimXl/vvvd+vsu/32290650Lv+vLccccdTs7QMeR9/vnnOzmC++67r/tZAY4jXy8zSdDB1fJxwAEHROZ0ubyR86QeppcLZUDXcd6pU6d2503r9Je//OXutMS//fbbLp05le454Tj2Iaevv/66Wyc/b7sA1/eyyy5z60BaD+nZz/kIPBu0Znooqzl5Lp05sd3PA2Voa2tzxwaWLKFFLDDooAWMPu5mROjBBx90Ex6YcnI1RwQGtdrL29UCUWO83nrrddceU/u/1VZbddcQ1dbW6txzz+2uJfPxwDFsJ+NM0VbW4lo/U3Zu3dewedjmePrJA+X92c9+Nk9egf4Ltf7IC/eRgeXcd2pMqf0cPXq0G6vj8eO7SLvxxhu72mZqabn/xNFSy/Zqq63manurZcVjRqVOP/10t04aBsmTF+OEkDV7aWvDDTfsliHy32KLLdw66Skz52loaOiO4xjgmaF2mbER5EcLMftnzJjh9ifLRP41NTXd6++8845b5zkif8Jf//pX3Xvvva42mW3y5dmjTGPGjJknv8CHw+szQA64pv66mnHXLQfoIPSfB534q1/9qvtYWh9oqQLy8S1swMQdQFp6Eay11lpuG+hlAMgQY4Y4JzXuwKQhyJPPh2cFyB/Ij5p99rPunyFaCaZMmeKeIWr7PfwWZIfAOuk4jnMjX7TwsQ/McXBjZognLek4D/sph9fJgQ/CtXr44YdljpK7fuZUuXvj75+He2cGvHuPmtPg7v/Xv/717vs9P9ALtNajG1g+9NBDH8gf2fLyyzn++c9/unXivAyxzv336dZdd103udJrr73mykHvgGuuucbt+/nPf+4m7PIga16eqkG30SLFef3vQ7aZpMTLEy1vLIHWfVr32OY3McaY81M2WrloHfNlRE8z9tiXnecE3Uv6bbfdVpdcconbR6CF2V+XNdZYo1vPenyeHEu+QJ6UdbvttnPbQK8Krgn3kzL6cpM3vzV5DQNLhuCIBQYVKBT/Al5llVV0wQUXuMG3THqAQkUJYSRjJPAi2W233VxAGaHQUHYovSTjxo1zy56UdlKBkbdXwMSz7g3WnmA2xT/84Q/uOI7ByOGYQP/Bv7TmB84TXUAwbjFaMBKr72NyG/nEmECeMBR4+WIo02XEO0DVEIdM1dXVVWLiFykVBcgz6xgByJHHO2eczx9PHMueftfZZ5/tjHJmM6OCAIOVl3pPeLlnyfl9mX05MKTBn49AGvb73w99ub6BnsG5RYa83vH464yBx7Umjb9fHn8ssM8bh8n7wTZ5cA/JD9mkmyLGKboTfYr84biT19VXX+1kiO5jdKXCofLn9efyEO/LzD6cQ/LF2EVf01Wyuiw+PUv0Kschn2zzOz0+nZc1b6R6OJZ9gQ/y0ksvuSX3AQP+L3/5i7uGr776ave95PoyYQeByTaoSLrsssv65ODyfuXa41hRqcQMheT71FNPVVLMxd9HJk5KVghx35ENAnrEywkVPFQA/fCHP3SyhHOerAjlt/gui94W6AniGYbgAzqdLrmAvHt8+ejSTSUZFb6+ux+/yZ+bii+enYsvvthNHAZUMnC8tz8Id911l958883ufMFfc68vPT4+CcclJ+3wadDH/CauO0uuH2l98NuBJUdwxAILRW/KaXkBhUKNLq1hSX70ox85JYpyYvY7asRQsjfccINzypjmnn1rr722G0eRVEyse6XG9fHrSaM3CQrPH+PTAutJhUqtInEYHt4JS543sOxJ3r/ewAFjhk5qj+n/zwyL1ffR31uCNwzJm21aI3jZ0xrLLJ8Yl8nzemeetIz9wjDyzykve1qigGN46XrYJvCi9dusc34fl4SWXz638NOf/tT9DkjKqy+7/x0+8Mz48lI24qiB5fnwL3/292T8kjbw4Rg5cqRrAeCa+3sNjLniunLduebe0PJpkBEMQ5/eL6sNMr/uZYX7TKsDhjc6kyXjYL3Tjdwjy+izU0891Y0Bq76/1dtAOX/yk5+4vBhPiez19KkRjvWyhBzyu32NfhLSILde/qrP6X9v4IP84Ac/cJVCtNzzTvrIRz7inGpayLjmXLuerh/XGFlcEN///vddyw+yRE8BdBfjr5LjlKodumeffdZVqnJfOU9HR0e3bPt7zbHIKU4bvUtwEKksoFIA2EcLE+955NaH3uA8HFP9TCQhnrDiiiu634Pck7933rzTxicAaJE7//zz3e+kzFTusiQdz5J/nngHAPuq6e3aeygLto2/T56ZM2e6OOgpD46bX76BRSc4YoE+gxHoX7rLM7zMUcR+ADqK/bzzzutW2ihF3yUQZY4SovYMhcTg20ceeaRbEWL4oszZ5sXhlS/QxSJpqHr8fr/0oAxpLUkyZMgQV4tHmXpSkoFlS1/uB2mYspn7jfFHDWlvTnoSWhe8bAGtFEnDuRocd4xUv5/WXuhJBudHb8843YFoxYBp06a5svgXOFBO4qrxRjOGtL9eTIjgJ/vw9PSbeooL9A3uDUYtNfDIm7+WfL+J74El710SWj2ZuMDfK1on9t9/f7c+v/vxxS9+0Tl5GHY+HXoTMCIxfMmTe77qqqs6RylJtYHtIZ78aBVDNtl+5ZVXKnvnQt5J2UUWcSqRW3oWeI4++minq2nNg6QMBnqH60v3ap7dZG+Rk046yb0Hud6L8rySP3qF/MjfB5w8nCvuu79XvIM9rPNe5tzIFRNWUBbyY0ILluyjiyDPAnLH/vHjx3c/AziYyDlpOQeBZ6Qv9PSbk3GU/8UXX+yeGAQZpTIY2eQ30fr29ttvuwo2nFWvvwl8/48yEWix661HRDU96Xx+EzLPb/ddjYHfiTNNvuwLLH2CIxboM0ceeWRlbfmGcQ28TDAueJEwaxDdAqipQgnSDQfFTj9wXgR0K/P9x6llpl83Ri/HMvsbXcc4bs0113Q1bihW9uPMody8cVCtQFF6fh8ceuihblZFuiQC6X1NoK9VDvQPuCcYt96YS8JLMHlf6WJzyimnOCOA2mRqeOmqwouRfKoNUp8nrQvIEsdxDEYteSVbtZLHIrMbbbSROwcturRgUQvr5Y4yJR3A6m6xlJu8SUe5fPkIGAzIJbXGvLSZeY8PofsxP8CxyL131jivD7QsU5vLM8VzQ006ss45/Pn8MTwX/C7OGfjwcB1POOEEZ/R5XYY84awjS16OWHL9/b3i3qLHkCHk7o477nDdCj2k8bDuu8NSacQsoOgxxhsit+hYjF3yYZwM8kE843MwMpFHAmNh0MPeYUo+V7Qc0B2Wmejo2kW6T3ziE25GRi83dO9Crqj8okz++UOO6N7ruzaShvz++Mc/uv2kq34OiKt+JgczXgfQrTTZquXlhcD15z2YhHh/f4BtT3Ldc+mll7prj9wikywJyA/3zM/azLFUMnEvkQdka/XVV3fxdJekm6S/18iwd0poeeLdThdv5JDulVTIAvJExRDH8b5HhzKmDQewGsqT1KPVUEaCh4oAxndTwUHFGudG/gE5Jy8q2Q4++OBuueN3o7txKnluKRcOJy1/4B0qfx35jZSLba45+zmGyrxk93Hyx84hX34nAYcUZ5Fy+HInjyG/nu5XYPGRsos890kJBAYBGH+QVJYoIW9Ao6y8YkPZ9QQK2nctAB4j0hP8i5048kUpkme1ggaMTW90UC6OB28koTBRwHTN8S+UoBSXPV5tcl+5V9w77gvBOxce0ibvWXI/LzzkJZkmuc5+Lx/EcywyyToBfF7+OMpEGtIiX14ekS0vQ+DPUV1ejmHbh97gPOCfEY6jDP58/reRvy83x/hy9ibPPDNJ5yCwaHDNufdejqD6unpZIt6v++ufTMu94T4S5+XG6zDSexlj6eXHyyNwTHI7KV/IC/fdxyXL5PFl8pAXeSZ/GyT1qqf6WI5jOxkH/EbSVh8/WEneB64397f6mnlZYAnJe9hb2p5IniuJ1wnJ9WTe1TJGfHIf+P09lSlJcn9P5UmWpSe8zk6e358bqstTnd5TXc7ks1e9j21C8rpWn9fjr7/fzzJ5HM+u/3095RtY/ARHLBDoh6As6YZAqwHjcjBoveKtVtiBQH+GV0yQ2UAgEAgEPkhwcwOBfgizJjGWg65FyZnwAoFAIBAIBAIDg9AiFugz9FVmFp/A0sE/mqE1IRAIBAKBQGDgEVrEAn0m+OyBQCAQCAQCgcDiIThigUA/hZaw0BoWCAQCgUAgMDAJjlggEAgEAoFAIBAILGWCIxYIBAKBQCAQCAQCS5ngiAUCgUAgEAgEAoHAUibMmhjoM/P7EGMgEAgEAoFAIBDoO8GqDvQZnLDgtwcCgUBgeSe8yxY/4ZoGAgvPEm0R23333Xt8MPkWVWdnp2pqatz2+eefr4svvrh7hjh/zOc+9zkdeuih3fG0yJBnNeRz5ZVXducH5HfOOedUtuJjCeR33HHHuTh/HvJkXzWUs1QqKZvNuu0LLrhAl1xyiYtLcuSRR+rggw/uTke+1b/dz4B33XXXdacD8iQkZ8fjuKOOOkqHHXZYJSaGPHGGKCtpfP7kmc/n3Trw288991y3nizD0Ucf7X6/h318GywJ5eAcN910UyUmhjJedNFFbp3jktfz2GOPdfGe3u47eSZ/py9ntYPHb+d6+mvGvr322muee0RcsVh098gfy3WlnOTr75E/nnt0xBFHuDiPlyWfr8/n1ltvdUtPUj59GpbI5+GHH+62gXzI05872XpYnedll13m5DP5Gzn+oIMO0jHHHFNJFUOe7Ev+fiDP5LW78MIL57lHPp5yHnDAAd3PB+Xbb7/91NXV5bY5v19ee+21yuVybhvOPvts99szmcw8v4t7lPztsOeee7ol9yXJ9ddf7/L05UnKEvh47lEyz46ODu2///7d+z1sV3/PzstS9fU85JBDuq+n/53+elZzyy23VNZiuJ7c+2r40PaBBx7YfX85V1I+fXkLhYIrp3/eOX9veX72s591AfzxvZVzfvIJ/njue1KHkFdP8skHwy+//HLV1ta6bSC/RdWflJN4Xy7ue1J/+uPRS8in12HEV19P8iDceOON3dvsJz9/3z2scy2rn/fddtvNyTGQB8ezvOGGG+aReS9LwH7Ph9WfpEPeufc+P5akRc/19Lwnz+vpTX9CMj35VZdzfvKZ/O3IEmX1afySa8nzCT7uw8hnMt9F0Z/IEteTPH2+HI/+5PlMsscee7g8q8tarT+9fCbLCPx28vXySV4DUX+ed955bt1fT8rBPfL33eOfo+rriXxynL8evpz+/H6JvbAw+nNpyif44/ntPEc+nrx6kk/05rKwP/3xPelP8vT7gd9AWBT7szf9iU5O5slv/7D6EzgHOjkpH15/+m2/RH9WP+/LI3M13RIAgfECmAxcwKTQAoJAfDLwICYFpKc0wHmSjgjnwNHjRvqAoJDGC1ISf56eQlLAyAflVF0GzpVMx3GUgXL5wHEsvXAlId4rNn99WC4I0nFs8tzA7/H7kteAclI28L+PNMlAOUnL8Un8ti8b5SUkjTcP+fjfkgzV+HKyTEJaXz5gWZ2GOH53Mvh4jmeb8pE/69W/B3hREfxvnx/kSx7J4K+Xx6fx15ttH6rhOO4H6VnyUqe8yZeOx8snefo0hOr7xLq/1j6e4yinf97Y5nq0tbW5MiSD3+8hD54Z/3v8Pef4nu5ne3u7C9VQ1mR6X27iOC/rBO5FEn/fqgNlrD4/x5IvePmDnsqZvOfJUI3PrxrSJvdRnmr5BJ4NrlcS7jNpk9e9Oo2Ha+nT+DL29HuAMlRfJ9Kz9Pg0lJ3ANoEyJZ9jzrE49CdwrId1fosvH+chcD+Scs+x1dfT/47k7yE/ysnvTJaLc/QGefvz+jL4sno4N/v8ffbhw+pPn87jrwHpeoK0vozJUE1v5axOy/mrryf0JJ/kRVrKSCAvn281i0M+Odbj0/jzse1DT/jf5J8pL6PVcB7y8PkmA+fzsO5/C78juc9fJ/IZyPqTfcnfXy0fnuTv9EyZMqU7D2AdyIc8k8HvA9L3RT4pk5dNnw/461rNoson50r+Tp+GsvvfyZL8k3LHORaH/iRwnMefy5eP8xB60p/E+99M8NeAPKohnnL5/HzePeHzTqarzpPfwz5/Ph/6oj8J/hwen66ann7L8kq/GCO2oCL4mzc/yKMv6RYHvZW3+vw+3YLK1Zf8koKZFP5kmiX1+335Lr300u6WKh4MHt4ldc4k1dfHn7Ov17c3FvX+eJbGNQj0jr8/1fdzSd+Xarno7fzV8Yub6nJUs6Svw8KyoPL2xqL8jv6gP3tjSd8fzk/wv3tRDRj/e/pa7mX9+wPzx9+f6vvk70tv96e39H3lw553cVN9/mr6Ug7yWNblrT6/T7egcvUlv6T+9Pj9S/p39/X3Ls8MGJdyWd4Uzr0kz598oHiJUkviX6j+3Evy/J5//OMf3S9xyrA0zhkI9JWl9RwEFi9L+r71F/25LOH3La2Ks8DySfJZWJpysrTPtyRYluVf0tcvqT8J1bozsOgsU0eMG0zwN7S30N/oa/kWtN+TzCsZ/PVZ1vjy+GZy1pcm/vw+eKq3F5YFHb+45HNR7+GCjvfl7I3l/fy94c9bfR+qt5fU+T3+fNXBU729uKj+/b2F/kZv5auOrw6LwqIe/2Hw98dT/Xt8WFosrvP1NZ/FJZ/Ja9gT1de5mgUdvyCW9/P3hj+ut/uwoPvj9y8oXV9Z3PktiOrf31vob/S1fAva70nmlQz++iQhfmlRff7q8g0kBkyL2EBnIApfILA4Cc9IoCe8XATZCAR6J/mcLM1nZWmfL7DwhHu0ZFmmjli4ufPHX5/+cp3oJ1xdQzKQWVzXfVHzWNDxCyrn8n7+3ljQeT1L6/x9Lc/iYmmfL7Bw+PuzrO/Tsjr/4jrvgvJY0HkWtQzL+/l748Met7ioPv/SLs/SPt/yhr8+y+o6LevzL01Ci1ggEAgEAoFAIBAILGX+v73zAJCrKtvwO31reicJKfTeBKUTQHpvUqSKoPQm/QekFxFQRASRKgqICkoXBEGQ3nsghSSEtO1l6v89Z/aEYdhNFgiQ7J4HTubOLefe2fve73zfaTcEYoFuw7slenrNRCAQCAQCgUAg8E2wWExfH1gy4F0Upe+1CAQCgUAgEAgEAl+O0CIW6DZMWRoIBAKBQCAQCAS+OsGzDgQCgUAgEAgEAoFvmBCIBbpNaBELBJZ8Ql/0wNfLN6GwoOJAINAzCJ51oNtMmDDBjRMLBAKLNwXl3X8F57B6p5XPvCIdq0q3BAKLjsjXoq3S/Ap2Dr8UCAQCSzIhEAt0mzBjYiCwmNPhARcDMAu6lLPPZlvR2JFa3XaisYx9sDUQWDQ44bmUt4+cqwgoLi+KRF4OW0C3rPt0icTy/L0CgUBgiSAEYoFAINBTiNBinVE0H1M0Fzf/NK5coUbtkVpLfZSPVCsXbVdabYqZ4xrmQA0sOiLuf1Ks0Kx4oc3i/bSiLrV3JNNmIbuAxHa/b2kijzbLvN3yz5h2i6FZ4TMuTKgoDAQCSx5h+vpAt9l888314IMPhinsDR6aYgcclj/vAASXIPBtkJc5szirqla7yfPJN6RLb/lY03MDVIi0a1T+TZ2wzzitu1J/1VbizKLUBIcGAouAjCkwruZCRAkaqExetvhZisbz83S1vgS8lYSlVMwyL8SK+0eKbWNF3IriYiAQCCwBhEAs0G223HJL3X///b00EPOPiRXyHQ4DfoYfMUe9LKs7Ns1fNlfBpah94ztbg5sQ+Gp0BFB4uBF0haboaJi1/yqVtqUnXpMuuvFDtRYGKp9pVSbXqkQiqVy+QjFzXIclp2r/rYdr242HqTppx7piIGnJiKBsQNWdqLUo5M4J4u5lIAZ/09vVqJTO/3OTXpkUc6pkW7GDoqe4rmvYtyuBFXMcmHtTvz92TaVSptNYR34u2rPjXNbun0AgEFgiCIFYoNsQiD300EO9b6wYjwgzHPB/pNgV5jN/gakzlJn8odrTjcoWsopE48pXV6v/iBHSyHG2zva349stdIvZfynnOHQcG3yGwBeG1gDTYd7EE806bWaUUH2bdO9TWd14X6Ma8zHT3VwlTWf5QoVykRpFC/Wmw3blc7WK5qrssHYNrHxfu29eq903W1EDKi3rbIPFY4iywlIMwdtniUiDXgOfodhFkCqA+lxKF/2pVc98mDAJtbhyAjPn6gvcvka5nj4HxtIbx89DtUM2X6n+udd1/SlrarCrO6DigOfBPiibFpR9IBAILGaEQCzQbTIZc/cSvasbk3848A3we+n0VUk72CfzVHjkEc34512q+GSKqnM5RdLtiscStl9crcm4GrJZfTKor4Zst7OGbbCt8qNHmZObdH4C4Vx0fuYdn4HAQsDlJOyKo8yceaGmnXm2ePtD0m33z1U6WqXm9FxVmv6i+bz5peYiR6KK5CsUz2eViWZci1nCckgUEhbPVaglk9PA1DTttHZeB+yykvpYQJaMonRTqe3j9Bm0GugEYp+oKapVSZ1+U4tenVFlgb4F86w33SEbF3s5+IblW5CI2KejxfczsJ7WNdO15ZvLJDUi+bZ+fcwKGlhBGEglV9zsdEd3xUAgEFhCCIFYILAg3OMRUbsV7nEK+8Z50u+uV/19/1Ay26R0LGqBlzkGkbyl4r4EWPavuQ5x1WbTShZymlzZT60bbaZxBx6sxFIWkNke+Au4JYFA90BfhFFxtZvb+VGzdP3f8nrm3ajq6luUKzRYwMUEHGgrolw0oXQkrVi2XuuN6atETX89+UaDObJxk1+b5ZZXMl+wlFQmYgGZ7T+8qlUTlp6lA/ZcUUMH0ibGLIs0O9DB1ghObqCEnCmxSSn93y0tenZKStWRJtNL3jTG1vJp7Fn6soFYMbdcJKlYnsrAvJ05oaF6TzecvIJqIxkVYoliY1qHHQ4EAoElgRCIBQIl+IdhfjFuTgUtCjikkVee16zTTlPf5no1JiqUS2dVEYmpYF5H2hJjdaK2f96CsuI3+56PK2ufqWhehfZmfdh/kMac+H/qv+HG5pPg3AaHIdBd8syHqI/mStfcMVePvx1VJsfIrowyFuznIjnTHi0DFYoXTIGRiGkvqgH5ibrq+OXVnuqjoy+bp/Zsu+2H0tNOfRaKKeaEH7PALWH/JlUTmatVR07Wzw78nob3tXMk2LOj2iBINuAsZd6CsJjOu0N65gP7lssqbzFULP6pQD7vXLBtQQKi8+HnjwKOSpsdjRTiTt/RKJUSSfXPz9R1JwzVYN9ZI+gz8HWDROfr7DNfAoEvTAjEAt0GqbS3t6uigvEjPZOMGdViBxhgCoSCEkyb/MA/1fyLS5S2v0HGgi/Mbs6CLjd98vwgLGoOgn+c8rYl7VrLmEUsZt9q8zlV5NP6++ANVHvYsZqw2TLFYy2zYMYDneL0ZIo0gdSZk3v2dbP03NspZTKmv2hrseUB79cCq6LyaInNcITpsUZZC8aq8tN11n79FB88Uqf9ap5yuXZbT3utBWKm2ZwFXxETIVm5F0FHirrOqkYJNWjD0ZN18dHrq4qHgp2CWHsttFUVw3GmKYrrgjtn6dG3k+qTpCsrGipWQEEh35lrsWB3A1tIDl1R7G1Q1Lo7mz0fzbkqDdEruvbkDVXpxowVtwYCXxWUhOaBalO6hqMsN6zAFoqWki/A58JafAOBzxMCsUC3ufnmm7XffvspGu2oGe+R8DgUzS2hFO+10WMPq+3c89WeSKnVnNx4Ie38Yx4d9ibIilqQlY/xvRiQ4SBHzBGhhaLV1qfMk07Z+vv6bay/r3WKZseiOuJ7bdpp45HBbgcWjIksbRq57mHpxgeb1ZRuUTIaN9W1mdbMFcB7Nfi3gLtgwRc+cCFWaVLOqyI9WSf+oFqxfuN1znVzlLIds5Zy0aai25CvKNFgUf/MeYDI05ZRdTKpHVaZq9MPXtpW4o6kLAV6I6ijqDOppeMzap4qn8A2L6Uv7FnY/sVArGtc/uzQcRL33UTMJ7rOZTOKxcPrGAKLBjwBX/mA7LL2L5VVWN+oqc7pz9aQihTXBAJfhBCIBboNsyY+/LB5gz0YzCyGFlOayceU/HCimn56sOvOVYgWzPEluCoa2kjeQjULwHKxiBpoDYtXqKqiUm1tbaqwAC6eT7tgLGHeRU4Vur//d3XzqsdpevVIVebaNFRzdcbO1VprxWrLLbybLfB5aHegkG+yf4++tF4vftimQjyvZAG9WABlcRHvDcub1iBWSNj3hOKRNiVjTVqqb5XWX07af/tBSlcmdfXdbXr5tY80q0manatRIlGpmGnb1+3iYjDbXSxCa1lGhWzKdJ/QuH4v6ZZzNy1OVGP5B3opeAuWGs0zPfbSf6k9P9jUgHbMaTUbWKyWyrnUeYtYJxBZdVQmFOa37H7K/BY2S7Q+uN071rpu4PYsZCMVGhJ9TZefvLOtDfoMLDpMyUpbogoqmTWNm/4YpkiQFu/wFYoUFYpiA4EvQgjEAt1mwoQJevTRRzu+9Ux4GAibXJfEFmnGoYcoPu0tZeMZVRXMJEeqXHevhAVg+A6fJKoUX3V1jdtlJ2m1NcwOpywT2/DO22r+691qfvkZJZoa9Y/+m+j2VQ/XvJoxqso2utriXKZKK9W+oauOXMUc4mIgVjx/IOBBiTl9YkHXHkdPUUu+RtlYq63Pq08yrZWWHam3Jzersdm0Y6KicmBIok67b1yt/XcYqkJ6ipKVw01sFrRFbaeIpVxUjbFB+tMj0p8f/lh17Uk7R0yFXFYpzdI6ay6rV9+erqb2mAV4KeULSfWPvqE7LvmuhtD1y/fLCfQ+CsX2gTl2+w8+b5rqo0uZnNpNDYwztOC/QJ+BSmUiJhRe5VE8qnO1dARf/EtgRRdZnFteDRbJtdlpEsoUGIPLGXOKFzKm+oQdFnPBGM8GznHEvOJ222d0+gHdcdamtqLndp0PfL18atkYj1sMviL2L69WnPfcW3rn/uc0Z0a9Vtp5fY39/trKxFEkzwRHhSAs8OVAOYFAwHBGmAjJ/nfG9b8Pqv/M91UVjarCCvt0JKVs1IIwcw4yFpDNGLuWlrv5bxpyyZWa970JSlcPUKayWo1VVZq75lpK/fw8DbnuNv3vu/vp7lWO1JyacarJmSNMjW0hrlgio3fbxuqPT82zde3K2jlpbwgESmEexJcnMUbMAqNYm6mkWFWwwZhZ+u0hEV1w2AD1i6dVkWnVmqNn6I/nLatDdhqgWDSmusJYvTqVDjVGpFqvTB6ouflBqjVH99At2sxxHab1xictAMtpaGyKfnt0P11+cExrLd/fAjBzQyLtShXqzS+p0LOvTLN86JAWnI3eCmNeCxHeWifFIzigBFs5VbZO0pk7Veqe0wboltMqNaiy0fQXUTyatX3Zn1culCXLJxZhe06JSKtqkzM1LPWx+pjGUnmzublW9S18pDH9ZymW/8RsZl7JeEa1mqbBmmSarXOvZ0hEG5W0yKwiagGYE3og8AVAM67Yz8vCf1Nj3pXECVN2dHZG9Xe/rBd/dL3eP+M+xR+frqU+zGjabx7Tg2f8XnXvTrcjaKe1Z4GKhaC/wJcgtIgFuk1vaBGjqao9ElFqVoM+PHBHJTJTFa+Oqz3Rpn6jKlSRyirXlNdb8aW09rm/V656+eKMc2aDc/YftWeltRstFlnNjku/+7v06hutFshli7W8/Gfnypk7sVT0DV199GrqV0ErW8yci1A/EvDklTZFXfuwdMvD89TaNE+RWB9zYE1puQZ9d8QsnXvkuhakSW++WaftNuhjLkRUk+qk866dphem99Pomrf1l/9bTdlUQrud3qa6hulac9gMnXTwBho/PKe0BXj3PdGodVZNKV6V1Em/nqm3prbbqU2n8SrTd8GckmbttXG9jth1jJ27puPaAr2NoqnLqsFCqYMv+EhzNcyWGrXf2vO0//cHK59l9EyTZsQG68DzW8VrPdwgsk48VNbgu+ZVacHV67r51DXVJ/ORGhIjdeClzepfeEe//9lKimWma3J8nH50UbtG6CXdcMIKisWTmhKt0qEX8Jr8jDLRao3NPq4bz9jAcg1dEwPdpEOWvHqG9lam1bJYX5onfXz305r8yCuK1mVN11Z2J9JqT0UVjaeUbMypNlqpjyrmaen9N9Qy22ygRA2hW6ikCnxxgscX6DY9/2XORTcDt0F176nv4Pc1aO+5qv3xuxr60ymK7vyuMtt8oPY9JmmFnZ5S/Qubatazh9q+b3CEHVecTdHhvAypwoKw0WrVz3aSBgyKqy1SqbybYIHOOPQSy6k+MljPvzXLnkYrAYIdD3yG4vibtya2qq29TYkkgb7pJE+FwRA9NWMd7Xva80q0tVgQZq5EoUH3vSztftZcPT+tv2LRtCqijYonYhylaHK2muI1emLmuvrpJRN131NTlDRHeecNIuYUJ7XTyTP0v4lVihcqxavHY7lWZUyvTQVzld/j3WMEYR3eS6BXU6xIyiqVnaTvrz/OVtQqn6hUIVFrmpJSyXpl6W4Yodshs3N+NhUsRRnrmE9oWOZj9c99pFiin2lPGjagWSsMk+mv0QqeERpkdnFg/h3tvPEI24ezR9SXa8jNtSWmVaL6gY6NQZuBLwDlraVILqKKRgvC/jdTr535N/17v1/qo7ueV66uXS3RdtX3bVftJstp9XMP1Ka3HK9Ru6+jpoqCBrdUatb1/9XDx1ynGf+b5rKkSyNlfNBioLuEQCzQbfbdd9+OpZ4HZpP2LKYJr8xNUmbe/6n2gGmKjKlTqqLCHIZaczhqlcilVJGtslSpPrmZGtZ8vbLPbqLmV89XIpt3rgAOL/lgh91wGqVUmyvoxzsmlIgzqULxsWNTyhzqdGaA7n2+QbPaGdtQNN7FSUMCvQ5uurvx/GOqLGTVYIJ6492PzPHNKxJNKJkwxzOWUYpZD6Pz1FxIqiVfpULenOBIP621ovTdFWtUGckqlkmoMpbs6CImVaUS5rzGlWz/UCuPi2uj9cYqn6s3Z7fGvbS8ygQ7sKpBrfkGZex46olxt81P0dSZbWphXg/3tPjPoNLeRnFSl2IrgnvNQXSEnn55nnmzTRZENZsVzbouXvUt5twmZesiLrgqT/QkIJ+8aa4xsrTSsZH2vcZ0J036uFLvfGRBWmyw7VChObbv9Ngg3fPkFOUz/ey8lfrEDq6qGWz5ENBRCYZdxfAGAt2DiTjUnFPdP1/Rc8derX+fcq2an5ukpJXXzZF6za1tVJ9dVtGGV/9UK5+xh5KrD1JbrTTisE31vcv2V2r1YRZ0pTR8UloTz7xNj517q9pn1blKhuJLRHheQlkeWDCha2KgF4OBLBpLEiSy/1Xuyb0US3+kfCxu2xkn495Y42qAoeDes0SQZWujUcVFNy5pZsXuGrrBdbZDP/Zy++IYEJQxs11bPqVTbsnplWnMKubnwyuYI2N55JMakZqkS44cZ58cXZzFLsyL0Mv4VDYd5PTMlJh+cskMV7hHonR+LeovT5dBC852W7tFJ+83SvNazWFtaNYyS6XVXqjW3S8mde0tU7XOsOm69JR11WiZnnLNPL30zkydtlsf7bBhlZ2nnyZPkfpXWKA2IK5f3S/9+V9zzMluNu0VWyyo3M0rpWp9qGtOWkWrjua6mLWDSgUuNHQF6y14ec6xdODFUzQvP8i0EdHQ6GSdsMtgrbXsQAuqpCN/MVWz2pdSLMIrForHAGopTrTh87KwzeKnrKm6b6FOfSvaNaM1rkisRrFcQhX6WP0HRDVjTrUyUQvAzPb2i0xXKh7XzOZKJRMJ1/qQjtdqXPpR3XjmRpZneL1CoCuc5bREuW8lbD6mD658QI3/fEetZmvrY23KxbKqGtlH47dfT4O2XF25yrhqnL3rgCxMxO1YxbRZ4wff13O33qvs7IwqLOu6vjkNP2CClt1uPcWZs6Z4gNM+S6H1I1BOCMQCvZqiWaZToZnH/LvSSwdL9U8pY3FS3gr5mBXyUWeE6W7A3j4VcY4x0zRHM2rJSQ0DT9XQNS5wRtfhao0xw4z1ienaJ6S/PInbUXRiGfhOa4MKSaXM8Vgm+Zou/MkK6lOTctOIF881P7dAj4c2VSvNC8XgZm6LdM9r0pW3zlG80G4OqukwUhxjyGQa1YWpuuLY5bTO2Fpd/aAFUX9/XhcfNkrfW63a8sipJdJX6WapXx9mWqzQXPOSK03qldVUBMT174nSmVdO1TZr1em0A4frhemD9MNL5phszckomBNt0ovkLSDL1ygXbdQBmzXqqF3H2bGlzm7QaG+BCiKqj+rMgu1/4RzNjAy0QCuveDSqgpm0lGmr1aRAqxYBF+/28oEXEmHZK4XVuMSu90AEg1us9GInWtViMWZItHCfnrjs0nEgjmwybsfbIXF7XDLRdjUXUlo595xuOXMN2xoqBgJdgeqKguTfSDqqNy74u2Y+8ZYyFoT1WWesxuy9ifquOtyNw03QQbvDRS6Wx4bLoriu+EZ94xPpnT/cp7nPvq2auQVlE0nVL1+ttQ/bRrUrD3ea9pW+zMQYCJQSgvNAr4YZv2h5MvdBmvIbFeqeUtYcgmy82hxQC4YK5mCYQ4uXQctXnHDKgqeiSaV7DU4zw3xjaq7YRsNWPmi+o+EpfseoFzR0AF16zIvocKaLI8XYmlU6ltPUzHjd+tgUteOYOINfnlugR8NMhRTVzJesjEyGemuSacY0iJ/qwjScAPufQKx/RaNWHZvSPJPJg8/O1MzkMjr+1jbd9W/TZbyvqtSofjVMZ1Bpx+Q1oKJBlSnqfuO663np5CubVBcbqpfeb1EmV6NlRkjD+9H/sNjVi9YGKgp4MXlO1Zo8udG2JZTJ0AHXEzTaeyAMi7gwfHRkksboA43WFI3Mv6/hyXc0JPqhrZ+sZfS+ltN7Wsq2D451pOgHtr2YWB5q+y4VeV9jCh9q6cJUDY9ZHpGJGlmYbGm6huYmanDuA42ITtSY6Bsar9c1Vu/aPpM0JPuhRuUnalj0HY2084+NztSA+Ed2VaW6DAQ+C0VqcU5ERjeaNTXTlbAyvtLK2bmVMa1ywM6axztDG/NW7vOWMNvFArD5QRg5UOaDC8JoV8updYi0/Mnb6ntn/1DZFarVEKlX/I3peuj0a/Te02+ohVff2N4hCAt0RmgRC/R6XNtA4T61P3iAkkmcVFqrcsUgDHeUVqtClRXxA209XcOalIjMdUYaW8zxc/V9DVv/ZmVSQ82w2yOF4ebJcvabBUuW32MfSufdPldR87Bz5uG6LRZ0EeTFVGHGP6Gawtu66PAVtNwACxDtmFBd0lvJq95u/t5nzHDdtfLZtBtXQ5dBplhmTOOaQybqplO/p2ktce18xkxzAJi5i5k4P9SZ+w/TRmsMUpNp8Hd/mad8/SQds8+aqqiQHn5fOv43cxSx6I7uhwPNqb3+5NU0ZGRER/9qpl58lxdDm7I7WmwjFvTFLQAbn3xZf7psc3dtxbAQ1yIItPeAxUJ7uLMuJLev3k5ZAB/BdtqWggX+6IJZE13lQieQlWsiww6iZlZ4LXGMJSbzwB5HqBzAmHYk3qiLjaXCyq6iCJVXSbOnUbdXIICiiqoqLvEv5ToSffOFV7T0oOGa9sen1fTou5pc1a5dLjpFj9/3qGbNnqaN9p+goassXTzGksNnCH5lxw6ZbFaRRNzNuthw0wt6/S//VlPbPFVsubzW+9neiseZkzEQ+DwhEAt0my233FIPP/xwx7clH29To/lWacYZ0luXKxOvVSyfda1gNEbhbDSm+6t23NFKjt3XtTIoZ17s9F+pbfLNzjFujG2nAWvfqKaKQeYSMJrGOxOfpz2dU3Mypn+9Jd10b4vaCcYKTIpQnLY+Yu5uJNOu3ddt14+3HlCM8vz8+DC/RAj0TLjXVAXQIpXX+3Ux/fDMGRamRyz4J/DJWeCUtODICv14mzYeXa/Ljl5br8+Qjr5gkqqq8hrcN6ZdJwzVdutXmJuc1gOvJXXSdW0aEJmt07aX21YfTejxN6Q7/zFDH89qNR96kq46YX2NGVuhU29u0+PPtxd1aY50zJ4FWmxpEauOTNN1p62sFYbR8oBbgSB9CvR8sIgZNZiV2+eCd9UaHapUIW3aqLAttCAklPB6scCsYJ/F1+IW8TYVCLzydhxBPj0T6HIbMaUz9pYJPvIuiDPH1rZlLWDL2rFUQjAuMmv6ZzbGmNsvZ0dVavn0f3TDmVtYzqFrYqAIWiPIZ0IXAvfs9Hn64Ompev+x19Te3KIJB2+lGf99SfUPvq0pVc3a/bJj9MSDT2v281MVT+Q1ZO2ltdxO62vgSCuLzTSjX+oOMHfkXcyf4QsQdZ9N+TbVzq7QYwdcoHjWgr+NxmmDU/dULBHCsEDndO0xBgJl0Dyfz/tidMkH15GkyGS1TnrKyu+oCvkWM6xpbK4V+mk1R5ZS7ep3Krb0aconljYHoJ9atY4Ko29SxbJnaVZmK/Vb5xbJgjDqgHmLTlfQpSxlQdWAbEZ7rFjQeT+qUsqcjWKnhaJ1ZwhwLJnXi69OdkbeMnTrA72Fog5o1yqYgzpxiukwnlBF0taYDAqRGnM8B5iW+imf7qOCFfQxk9zw/tI1Z47RA5eO0y1nVGqX9VqUNC1VmxO80mhpTOojja35WN9bfSRCVN/MbO24yhTdcop07y/G6brzJ2jooJTrclZIZ9Uej6gxkTa9583xYNKauF1R2p7/lN58Y5qUTduOOBboPeiz98D95sUGZpoybWrPRTWvUKXmQsZs5ywlsx8pl2tQez6j9mxCmWy1snzmWC4mvrt1luwf01K75RNTm+2TzfRRLlNry1G15pJqMge6znTWkovbMVFbX63GfIVaswOVyQxQLmvazFQqkjUtRi0xcCwQ6MCV42jWovgnf/eQ7jrnNr1+zzOmm4zmxZuUtbI2lSyOd6UatC7bqo0P2FZjN1rJzGTSTUn/wEV36vX7X57f67XdIjHafcnbWUBXfH/6BrEkQw+s8I52TK7Unkm7IIzdAoHO6NprDAR6AcWw8mOlmyeZA1FwrQ2FQoUZVVu2pyNXtbuigzay4IiHJat4PqtKs7NMz1wYeoxGbH6P2lL9iw1XFqS6MWNdEMWTjjI+zByQfEQrDpA2Xr1auXyxNax4NTGlzbGZl6nSx7yl1wLDQO/Blem4BLZAvf4r71gwZPoopNMuMEvkm9U3Nkljaj7UJuOn64i9llUkk9PQKmm5IW3K5qTG9iGalx+gea3mYGRiWrE2rUcvXVp3nr+6hg/KKJNI6uPWQWrKjFaLhhOXaXRtXv2qip7GcbvVaLsVWrRyvxbVJlqUybeZk226LaRM5/31+tvN9mBQ7VC82mIK9A6417R4sZh0LVIWIZmKPtYdJ4/WXaf01e1nDta6K9YoH0+qIpVUn0RcfeNxVZp9qywU5qcKS3R3jURsv0izxqYm65jtolp2oOkrmlFVYZ5W7ztVx+5UowGRetsvpWR+rjZYuk0HbhrR0GST2eUqZc3JzSUq1W4eccG1GgcCRWgNo6qz/oWPNP3JiRawW7DfJ6qBa4/UbqcdqIHrjLES10I1V/5KrXnbt09Bqx24ibY68QfqO2agBrTl9f4d/9E/zr9NdW/PVKy9YHaWmY+ZuMaSlesk37nMjSez/5NmZ1mXwygHExlYACEQCwRy85RKFKeLj0TazIaa0+v6H/RVv4Hm6Lq4ycx5R8sARpU3fuULFoDlkuZKMJLMd2UkmOLYzpPLN2rnitDZTFpxefuH885/EgvEaJZLXOm0rYxyJoOdAz0cNMLkMHazbTFn6d33p6mQy7vuWmivpjBVfz57Of39whV16WFrKJWsVGusOALir/+NaZvj39RWJ03WJic0aNvjX9Rb00yP0aQFUAlTKKFdTq/Plnb4+WxtdmKdtj7uI+1w5BP69a3/E7UNOYbjZDI6fb8++tuZQ/X788cqloorZo40k3fwIt6Z8yxgi8dsR9/6EMTZe8C+0d3QJGoOJ4HYoHizTth9nAbE61SZqNUgs58n7GohVrZe6ba0WkxTrRksZMqSaawj0Yk7b3pqiaY0OPeWbj92rHZfs06X/qTWAq+YxkVe02+PGKi9VqrTDacupZp4kzYb+p4u2S+qQzds0rU/472ODXaenBuXkzJbzJjHQG8GZRb/RaVYJka38iqaZDSutlib2b09tOahWyg6th/m1speyn0LpkzLVLb2idoRSalq5Rpt/vPdtdI2aylWW6W2SXV64Nd369V/vaQqWl9t3+KZPm0NgwTtZDSKWRBG5Ws2TftZINA1IRALBAod08nnmCURo5pRFgcBIxpPOHOLqxvDByGQMquL4eXhodWMbmQxxjnYMdGIBWuML3NdZDigNFFby+gJcjNznbeCwlYlksVj3MB2ZqfDmcjTybHD0fVWvtTaB3ogBFs4uJaiBRGHfzyzwbRV1BrjZ5qjg3T0Va9rpzPe09qnztFO5zbp9nunmWzqNG75hObERqo1W6tUoV1rjc5qxVE5pU1aT75b0IPPzzAJtgr/Y7WRVYpnM5prmm+oGKxNN12XM+v6l6QJ5ye0xalN2vaUl3T6ZW8o196ufJ6JGBrtCqS3pn+idiTacVWB3gOVVVg8rBlubjZSZcsZjRpdYdqqUjRXrKiKmyz6JGgtMKGYgAvRvAXxvBg8q3w0bQFYWjn7ZB1dXJNqtv0anA1O2vEj+uS09LARJjJ0lzG7aidsnaVRS4+UMo0uUVGRci1g9txwWdhLO0+g98J4LSu9nVVinGHj+3V6//n3zdZJSStXacMakKjWnJc/VG2b7WXr48niaxISpqdIW9odX4T2NGnkbutph9MOUb/RQ9SvNa6JT5qRZBw5AZdrTytaQaa755iM/cc4hYyJllI8YvsWn5fiv4FAOc58BQK9laJZrDHTmTBr2mIGFeNa6fp9V8Za1Dj7Pbcmx794xGZsMacuYXct+WVvZl2rGfl1GOpPEy1qVkiYMxJlTIUZ6vem2v4Y6hwmnxzYk8nFG2XlQ6CXgaSALi1xE9PopWuUNi8iZ45r1FTaHh2gN+aO08T6QapMZc3hzeq+/85Qc7qf1uovHbJlH3Nw4xY4NWjz9UaZmJo0w/yKU69v0S9vmaW69v7qZxlvv3mVMrGIEpk67bVmUquMjmlOLqL77putPtlZisdTmtG8iqZ+MlyJuGv/NWe4+G67MUtVOXW7Z8U9QO6fQK+h2NLAZzxvFq0wXLf/7U3TmjmgBFNmR+lQncnW2n50DTOdMBEHQZmpGAe24JZtnXnACbVpXnQpTWzpZwF+paaZKXy7Mannp+U1L7KUbR2sSRanNcRX0APPfaImW5dJDNd/35FZyQpXacHMnuk8QV3RhgZ6I6ZLum+n45r1whTdf/zN+uP+V+m1v/9XicqU2uN5S2nFbPtTv/6Xbj7zd2qe1aho3HQY5VUdBaV5ad18oijXJQ2Rxoxfyim/sc3EaHaQORg7t3wmRttQoKK147uL0QKBLgiBWKDbPPTQQ84R63HERiqSXKrjYSiaV2ZZimTM0W38h+Lz/qOYlfE5cxp4LTN9w5lAPGZBVbRA+xbfqStm7IRtj7Ta34kX6DKSrDS12j60vtnfMJrSK3XS/S/Wuxqz0r9r1PKorchoaH9zqINj0atABU4JkYKSlk48aLz6VaZVSNYomk8plWtRMjfPBWDptrwy0bwmtwzX5X+caA5FWj/ZRtp5gz4alZis739nuKmuv/70qDS3tVUzCwN15V/MezWHY8Px0oDUx9pmjWYd84MRSpvj8OcHpY/nmtthwVs622CaZNKajAsKae1F+f0Tk3TaYd91FQkm+w56oE0ILBQCqkw0o9ZoRI99OEin//49vTunj/78Qj8dfGGr6mIJZZNxs4cmLlr7TTB511OASiemKMq5VotUnoBrOf3wF3O17UXzdPBFTa4FdlZ8Je1yobSlpWN+bXYx3q5psXW01cVztMXF83T136RkNma2OW4BIS0aVIAFLfZW3KRXaenOw27QnT+5WR8+9aGyNVH1GzPENGhBlZXplPEN2XnqM2CwGp9u0FsPvaZoVUrZbMa2F1x5+5kS17LEXkK0ptJKb9rUzA/I+VYzKG4vJxYrvoexvb3NZxEIdMoSG4iFWfe/eXiJa08LxNyvyQ9X5Yj13MNA7W2BrjA4C4VK9cu9qtkv7K/p0+5z72NiQuZ2WibMJLeZM0xqN+vPf+12dFpJS5XmAJMqylJxXWs+pic+kM65blZxEgRObM4MtcN8IVhbcdxwrsxWB8eiN1K86xmN6SedfMgo5TJ07YpYooNLzBxY3vPFmAZTXqRG9z+f1W0Pf2zBWp1O37VFN5w9QTUWzL85T/rjww2qtcA/FhmiR15o13ufRDWoWrrm5OV01mGrKGFOyiMvSjc8+InS+Qal3CQMCcXMyaZ1g+nB85wv84mO+8FyWmYQF5gojmvEyS6HVV2lwBIOykR3RRgnFreAvT1Spadmr6F9fyNdaQF9xvSRyLe5Vl1smuukFU0omaw0B9W0aCluqZAwTSeSipsZTFTXqKVQbfvybruYKux48kjFMspk680iE7gRxNVYXGf500XR8s9ZkFeUVqx4eYFeiWufsvgoN7lO2UROy+y5lg69/WRtfPDWSlbQ5TWq6nxSzfFmbX32Ttrkx5tJlTlXyeRmgDUbG2lqRalk86m5ogxGZ6bfbJ7xunamHAGZl9unoiNIQ+38H03Qb8DsNd0YXYXqp/sFAqUstu8RK9bCdi5cplAn8YK8r0o2m7UColis+E9g/aLIvzs88cQT2mijjXpckLMkgPF2AVD+IWUe21WJREHpXMaMNk5o1JzQuF6Mj9dZMwZremS0BpgDEGHmw/lwz7K2zhzlfLWq63dVVcPGZrCbbT2P1mdTzoKx1ly168qYZfxDgZYy8sD9IN+Y+hSm6vyDxmvF4XSTQJOuc0Sgl+ANctEaMBYhrhufki67c4YFUwXFePec00TcAqa8shYwMfFBbaZBh21VqQO2HWgHm3bilXrpI+mm+9N66833LZiKauyolA7afbjWHm3H5i3AMmf4r5b3L++qU0OuXYkCrbPOlXDQtSyXM8c4ndYx27TrgF2G2co+HVs7cEVIxxH+wECPBHeS1v+03ei/P9Oohra44maiGFNLRyzX4h9BsyWaKAFT6/XtKY6MZF8qoz5Vf3HCJFuyD59T8Xg7Ieej9SJnT0csrmyuUkM1RTtsPNT2Kk5HHuhduE6wrVHduMPlmpadrWP+fLLiQy3op2R9r1X3XHibmuIZ7XDyPqoeP9CU2m5KSSr/xMd67oK71Z6rV2ufjAZNWFMr7ru14v1S5mfmFIvmXGvr5Hvf0kt3P6W6vo068NIjlU8Wy2u0yXNB8EboxXUkclE9efDvFP1otiYtndUPfn+mafbTCoxAoJTFMhDbYYcdXOvLcsstp6uuuqpj7adsv/325hzkXLAEBFCxWEz77LOP9ttvP7cOttlmG+27776fWVfKtttuOz8P4E9Bvvfdd5/LM5lMdmz5+rj11lt18803u6CP8wa+eYpuQJ006URlP/y9rYgqboE+485fqFpT/zd5hKZEKlWdx+HFAfZuAWBaGZRuDrEFabXzfqiahu2VIRDDa3DbSdSV2b+Wr3nEbnB5Lor2mBKf1g1zbmIRCwCz2n6FBh260yjn4MREMBYGi/VW6ApTKLSqLVKtC/4oPfTUJxZ4mRvMmBvTBV0H6QYbLVTZ9wqzW2ltveIM/fywFe1YdNximXwiJelbi7vQV9l0H0UrKkyecV3x17z++Mg8E1qzmxU0YsKkUsETtXXRTFqbW57nHbGmmz3xc5SWIKWPRqBngstgTiVzwX39JeRCKBpvN3GHmc9AL8YHYjdZIDY9M0dH3XqSqkf1MzuYUeLdFt1z0e1qiGe13c/2Vf9l+nvpcKDq//S8Xvnr46pojqu5sU7zhha0yYn7qO9a45RPMcdnzAKxN/TqX57WrOoGF4ipKmXH03eGXjKM4JWoorK4TfqkoKeOvVr52fM0aWRae99wlqIx2toCgc+z2AViDQ0N2muvvVxg0tLSogcffPBzLVM+EDviiCOUSCTU1tamq6++2gVVZ5xxhiZMmOCCqu9///suODvooIM6jvwsm2++ucaOHatddtnFBV5vvfWWHn74YbW3t7vxUAR3sKhaqggMua7777/ffSffpqYm7b777u63EIAuzhAw7r///h3fegbU3GJIqWVNZF6Vnrff1/yKaBB7sWZFnT97db2WrVJNpE7xHMEUWig1pzw+uCSMf6hQdd2+qnaBWKOtYz9L8wMyzhM3f9gsdZTp6yOKmaObc46NOdbZqJbrM1nnHLSchtTa7k525hTTdSLQO3HWGQ20qVVVOvyX9Xrug1ZzDAjAOl6nYNudO1CoVqLQrn03ma09dl5J5/7ySa2/yhhtuNYIDRxiob7JqKldevjfOT339H90+nGb6l6T/FV31akibxo2HeYtHy83Wt2YtGa1we/r+v/bwFVBdEppCbJoTGVgMYVbHckX1ByNaLcLmjUvwivD6Ypo/9iCFZ1yDQVm4joLjDi+VC4eNGfZuo3Iz0nQjvdVAmRFYhcm5gC06dbZP1RprZx7RrectrKtxHgGehtUWsVbLBDb/jLNyNfpyFtOVOWoGlubV2JyQfecdYOaTaPfP2ZPDVhtoLN1tJZNf3GKmhqbtdzoZfTaVX9X/ZszlMy3aXahSbG1ltJWx+4ujRigSf96Xy/e9IjqKuv0w18coWgNM4YyC7Kb3ktuhpqJDXrjxn+o/uWp7ooSsYzeH17Qrtefbr5qsqjrQKCMxU4XP//5z12QRUsYAdiTTz7ZseXzbL311tpyyy1dAPPPf/5TqVRKl1xyScfWIqXdDcuhxWuFFVbQdttt54Kk448/XieffLI773//+9+OvRYd/C66VBIw+vi3pqbGtYTxOxZ3brjhho6lnkSxT7ebsj6+mrTqL1SwAOzZgWvozI+GanKmSgPz7Urli91ucIgZKVZMLFP9heeBzpjMI6V0gWk8qi1VWIrL4itLOTexQo4uYxaEKULwVuzCw3gKxj8Mr56iE/exIKwv0ztTvwbkW9RKoPdBF1be3aVCQpXpOp3z077qXxtRu+ueiOLM/XD7RNzoxNG5p3SoBWF/fkx6bMY6Oueh/tr6/Iy+e2SL1jqqTRN+ltfl9xX0v7mr66a7ntfuG0nj+rYxG7NlFjXnuVjVUJzvK6q+ekPnH/ddxcx2OamTyuXIrqRAL8HNl2maeN+sXJ2qC3VmIz/WyNxEbbVMm1apnaNhiQYNiDWrf6xOfSP1n6Zonfp9Ls1TTaFRffNzNbAwQ30Kc1UdqVOV6tW/MFuDCjPVt8A+lmT52n7983Nsudn2aVZNrll9GK6Qnm367Lq8D/RsnAmyfwrJlDNRDDEgkI9TPlekFElGVWF27i+/uVlvPf6qYlYwUwr3aa3Sv0+8U7f8/iatesnu2uC0fdXeL6k+kRrVvtKke3/6a03+y9Mas84yWnmb7yhXQxlPGEeXxagqG8wz+M8kPfHTS/WfY3+l/Jt1dhkFpeMFtfWv1trf30QJXkwWCHTBYmW1CFBeeeUVtzxq1CjXWnTZZZe54KUzfJDFJ8FTOp12wQ7Q2uRTVxAMlebN8jrrrOOu4/3333fH0n2RgI+ukp4pU6a41rSXXnrJfT///PPd92nTpmmrrbZyLXEEdocddpjbzrHkwflIBI5sB1rf2HbnnXe67++9957b1tra6taTyI+WKH7fzjvv7M7BdfkWtlLOOecc1yLIcVzTnnvu2bHlq0PrY08DdRSHkidcDW6+ZnO1rXufHsnupBkao3yuQRlzKPKR4sxxtELg+FILyycvXs7bsfkIk853BE3ZgqL5jKWspbyi5jRHzUGIMdaGgM6c6kihRpl8kvHBzsFer/8UXfGjcRo/BP0mFeUt0m5wBPeXqwz0Ruiy6lqi0EOyn8akWvWLI4cqFU+5roRMLMPLxl2TQrRJu+6+rnK267//M9Oc1AZzauvNqZ1l+89Vv8hsc2ZnWp6z1Ko2PTMx67qWHbTXMOXj1A63KE7XRJrObK8+uQ918VFra0QtlQd2FWiRi3Ga7IQg0x6Pu8X2D6VhLMKLmeniWqnxlVP11xMH6dIfzNKNR/TRT3bro5xtz0cqTKdo1fa1lDebl8+bvfTJtMaERSmzl3usV6s/nj5ce2w2wDRcpXiiRYdt2U+3njZUG67U385TpT6xBv1sxwH6/WkDtewIWoSxxe12HVkleN+He9ljoHdCeWnFb6rSfWtub3ZVnc6eDZG2PH539RtWo1HNCb190+O645zb1Di5RTXLDVC/1Qbqk/em8PpOtW8yQBvdfIzGbruyIvGMRtdX6qOrH9Wdx12q/qsM014/O8Jsal8lp7fp4+v+pf/tf7lePvuPSkwtKF6R0JT8VDWNT2qZI7axfE7ScvtOcJ4BKRDojMVKGwRhBFKnnXaaC6zWXnttt76rQMxD4DR79mwXlPTpUxxITtCyMMqDGAK6ww8/XFVVVdppp53cOq6Dro+lQQjXSGuaDwQJprjGQw45RJtuuqmOO+44F8QRzD366KNumeCJfbiuzTbbzCUgX/LjWtjOJ/vsuuuuWmmllVwrHdczY8YMd0381hNPPNEFjOx76KGHunzg2GOP1VNPPeUCt+uuu05HH3205syZ44K28t/6ZVhQUNsT4NcxOUEsOkbHrX+2frXtURpfMVypXJUZcwIwu9+MmXGBFMncWAamR1pdzVve/j559734wtLyhMNAy1vcUspc4Roz8iNj03X+vn3080NGa1Bf3JvS+1S8okBvpvz+V2qdEdLp+w5WIkq31qgq8u1udrpcpFq3PfKxTrp8pqbNLSiTzdn2mGtRI5xjfGNb1OxMIa8ai/c/nt1Hx170jm6/e5qrsaVlttVsGs51ba5ex+46WN9ZlokPeI8Y2LU4eQZN9na8AmjRr47P06F7fccKy1ornwba2jatM95iIltPyy3VVUXhlCf+LbgZF4fmX9bhmzVrYK5BB64v9dccjU++pV2/U6cBqteJO9u6eKu2WzWnLVb5RKNzs3XhASkl882KRBNu7GIkaudy7ycL9E6K9qlvLKPKXEozn5+qWGOr2b+CWiIZZVcYoE3O+qHG776RIlUVqpmc1iNn36AnH31Ye151hDY4bEdlc62qKDQrV5nXUsduq+9deYwiqw5TJBHT6IlpvXbSH/TBNQ/ppbPv1rMH/0Ez73hV+Za86s0frKuMqmHZfvrOJYdr098dr0E7mv+K+fTua4fs8cVKUyCwWI0RI2Ag6CF4gfr6eu29997aYostXFBBUAR+jBhBTGNjo1tPMMSYLh/4ENTQKsREHV2Na6I7IPlwvP8k0Nlwww1dyxIQQPEnYsyY54MPPnCtXZdeeqnWWGMNNy7tf//7nxuLxpg04BiOXXrppXXttde6oI0WKq7xgQcecPt4+H0HH3ywfvCDH7jg7aijjtLo0aN1zTXXuIDP50XLGmPmWMcyfweu95FHHnHfd9xxR62//vo688wz5/8eAjNa7G677Tb179+/44xfDgK80r9DT4SJkOmc5V57k7X7mGzXpMwnertxuqY1f6z2tmb3N/eVA3RBKLYgFIm3baBo8zIWdKGBjpVl1FZKw2vbNW5oQaP6xpVk0g7n2ZjV5kC3HAh0givMM2q1oOnye6U7H5nhJpaJKeq6wLpWCPseN2fYNahaEEYFgZciM9ExS2g8H1fUErPd5eIcn3ODzNPRmG1v0G5r1unMg1e1I8yxdee0ZPmj+k/VHuh1dAip0WzUPue/pfroshoUr9dFBw7UcoPpql2csXC2aWzfc6eptdDHyunS4MiLCTB0UaUjKY3NPqmbz7Rgrr1VbakB+sGl72l8bYN+ccgYM6oRzYkM0CGXTtZm49t0zDaDpMoazc6mtOd5H6mQ6mMar9aY3CO66fQNLc9ql3ugd0FQj21775439a9r71N6Zr0iIyu17Vl7a+k1RpptjCgWKU6YEW2QHvv1HWqaOEuxdEGzh2T13X231nJrraDsx62a8uhLeu3J11S99ihN2GkL5R95Qy//yfJsjKs6V6202dfmRPFF+7EhFUqttbS+t992ah9YQQ2EGUpmUi622KJyqsGKbzELxXvg8yxWZSrB1LBhw/Txxx+7RHBBInDxjm8pBG0EOL7FiYk2vkhcyXEERpyDT74zIcXZZ5/ttpNXZ+cF9vXn4pPjacUiL0/WHHYmH2HfUgiSWOdTOfwmWrp84Mk+5E93TSBfglA+OTfb+e1c63/+8x8X2PlxbwRh/F3vueced2xgwbjxYtxW80qzNHiZYzE2MUrb9FtPPxqxk45Ydh8ds+L+Om6lA106dqWDdMxKB3Sk/XXE2mP1k01a9dON23XEJqR0SeJ7i/b/ToO2XLGgcf2TSmC0rXAoYloLVjqwQEycVsBXFFp19PbS2ssOVmu0wsIoXkiaU0Itqoy0KmY2JB9NmaPg+hLO/y9acAo3nZvbEs0qb050rFBvQVnBAjkL0Art+t7oT3TywavbcXYsPWVdROfqJeZX7gZ6KR32yTmz5vQmCnk15vroV7e+qHSmAlfYtkT06kwrzxNDnAPalUlzlVgmMCaYmRNdXr97uFGNFoT9+XlprpbVu3MG68HXImq3IOx3D0gzskvrsTda9MbMCjWZXT7vj/VKJ/pZHozXgVBF0JvBrtHzZPxOK+nw20/Ushssrz5zK3TPUX/QnWf8Qan6jqECZs6a5s3TugdvoQk/3VW5AdXqW5/QK1c/rruPvk0Pn/pHfXj/O6pt7ad5T0zVLdf/Wa07rax1fneChqy/rGZXNmle34wahie09AGba5Pfnqh1j99L+SEx89MYJS6l7CRJs5gs0/3bWWHMKL5FIFDGYmO5fvvb37qggi54tCqRGN9E0ELAQdfDcmidIUjj03dn9N0FuwtdBDmeIIrz0+JEYOODLJb9NXgIivz2UioqKlyABBxHopshn6Vw/IIgoKqtrXXH+UCQa6iurnatYf54tvnleWZY4Ic//KH72/lPWhRpbVt9dRyrrwZ59nywlvzNo4pb8c48ctxp1+hVetuK/kYxOa+EZF+c40tXLswvCT34hFmusn3oPlth95eDOAPjzHBiFqyLQKAoOCpfoqo1mZ57YFyD+6TVHqtUOpJ0Myu2qL/aC9Wm3rhzBdKFYsqYxphARhH7Hkuo3QI62X551di+5kTY+jGVk3TxkesqmaN1I2Oat5N0mDq6PxZf0BvovRTDcazZ4FpzNc0w5k0nrzetpAN/NV1X/n2ODv5Ns35+ozm9TGyUjClXMDvKS5fnJ77nzGk22+dsaFbN0Rrd9NxAbXup9PuHc6a/JjXFhuq8RwZo80uk+19Mq6bQoPrEyvrJHdXa1ta9Oj2lSrp8M3GCpT7VZlutnAz0XqJW5rryuq+0zVX7aPcr9tTggQPU9kidrtztcr18w7O6Zc+rdOd+v9WV+16sFz/6QDtccJDGrLuGUrGoIi2tajQ9z65uVmHNCu1w8Q+1//H7qrbCyvIhFVrmrJ21+dUHaMKVB2m7m0/QyH03UKGm2NYVUaVZUc7PFfCEYF/tA3eCT/yKEIkFOgH9LBb4ySp4r1Z5IsA69dRTPxf80NLjAx+2+Rai7sK+JPJnbBh53XLLLW6SkNLAy+/juffeez/T8uXx+XkIkjprUfOteFAepAF5sw95lQaW/po4xm/zgdi6667r1tGiyFg1umQSOJEIxuhC+VXp6n1sPRNnOTv+Y+mL4I8oT5+H3F0M55YDgYXgKgn4NLsXz2pEbbuuOW64+kabzC60WvHfbK7AHPuss9Royw2W6jsSy3XmHtTbtgZLtq7Q6L5HIg3qG3tHp/xkZVVH6yx/BrxjW8uUGUTay6EFn0oq6Yd7jbM4K16chCge1Yetw/T3N/rqo3mmHAuQsvmoJQRDxWVHYtmOLibaZbG0dBkzNzaWtgCsVbFCuqhvKzvjWdO0JbrOFkyPTICUzJrGLUUs6MrYlqw5wP1zM3XYnhtYbkV/INBLMUFRd1SMd6KqXnuk9rvrWG1x7i5aa/N1VT+pXmNXXlbLbb2adj10H200YQPlq6XVf7yBdvz5vlpp19W1zpFbaJcrjtCEo3ZUxbAqN9sidpcKh2y8oPTYwcqO7K9cPqOE8/mK3oI7pVH0GDpg0ZnQUMoHugZlfOswoQRBxWqrraYRI0Zo+PDhn0kEGLSUlQY5QOtQKaXBUncgoCkNhP7yl7+4PJkUg6CMbUz+wTJjrQiqXn/9dd19991uv86CqNJ15dfL9bFu4sSJbpxZZ8eDX1++vTQoA/Ly5xg3bpybvv/yyy/Xu+++O3/9Hnvs4booElx+Vbq63kAg8E3iq1hprY1rxYFZ/evysXr8yqX1rytG68Erx3SkpV166KqxLhW/j9UDV5Bsu30++MuxevSXy+hf9vmPS9bRd8bEFEv2K5YMnMKZkaItCQSKfQR4VXibvjNMmrByWgXeiVhIqta834gt52JWLplEk5G4KqNMHk6XV4KzqIVJvIa8mIotrCxHLfgyyeUtTOvYj3eK+xZYdxzBH8sW2CUswEtaUJeynCsKCfXJNWm7FZu0yjDbIUYFgn0GeiXE/fOHbHsZmHCGbTVWa5y2mb573ub6ztmbat3TN9O4HyynQm3BdVVE120WdC297doasfYoRSpM0xFeUeNfM5MzxTLOiyjPdBiPKWn+GN9jpntOSSr3kLDUtNHyGQh0xWc9+28JJpegZee8885zzn55orWKwIJJKbqC/Uop/94ZPn8PgQzd+Ai8GCdG4MXsgwRAvN+McVc/+9nPPveusgVRmj/H0dr105/+1P2mhdHZb/ABVvk2gry77rrLbWciESbWYHKQuro6N8si7ysLBAJLOjz3Hc++Ob/ujU6FuFK2qk+mXQOyzRqk9i7TQHOgBxRaNUCtGlhoUb9Iq2qjfDabY9tmWadkvvFnXVlsTccpA72bojNq6jDNVdn3k3ZI6ncn99FB20o7bxjTXhtUa58Na7TbppXabbO49twkpd1Z3qRSu2yQ0i4bVmjXjSotVXV8+uUqt624PVVMG9s2Usf3XWzfXTa2fTZOaeeNktp985QO2KxKfzlzsI7YbXxRp44g1oBJ1NuxKGMZ46o1W5m0lFKlfa+yZcbLtrpxZRlbQtu8gaxCCduLltWkZUCKy82SbN87qhAUs3XKx2yZHkmd641z+xQILIjFZtZELqOzwMPjt9M9j8CI5QXtD/4Y/xM7239B2zyM83r88cddV0gCHN/yVt5CReDm13WVL3nwrrBlllnGjSljPxLHlR4PPg8ggKMVjn18nv7TH8f+/H1oPXzsscdcayIzQ7If2xb0GwOBwJKK2ZCOJdyJRcOnOQYCXZM1qdBN/9Ou/EXt+PaBT8uwr40IPWNIQbOBrvisNvj2VVWyKPIIBGCxmr6+PBDxsN5DQELrGft1tm9n+J/4RQMRZmWklcxPBQ+lAQ1BD9eyoHzLAyD/nc/SfIHfybrScW9Qnr9fX5q3X/bfS/+Wpft9FQhCmRylu3/3QCAQCAQCgUAg0DmLlUfdlYPvgy4SgRHByxcJBkoDlC8CLVZQGiyV5sP6heVbvt1/57M0X+A3+SAM2Kez/P169i9f9pT+fUrXBwKBQCAQCAQCgW+f0LSxEEIQEwgEAoFAIBAIBBY1IRALBAKBQCAQCAQCgW+YEIgFAoFAIBAIBAKBwDdMCMQC3YbJSQKBQCAQCAQCgcBXZ7GaNTGweLOoZl8MBAKBQCAQCAR6O6FFLNBtQhAWCAQCgUAgEAgsGkIgFggsAhbWsBwangOBQODrIdjXQCCwpBICscBiA4VpeYFa+jLvrxPO+2XPxdi5rhwBv76r7YsbXCcvTQ8sOtLptPtEJ52Ns/wy2ujsmNJ13dEy+3c17vPLXFNgycA/314jfC6K+/1taoZzB80uWXyV+/VN+QXlfFvnDfRsQiAW6Da33nrr11rY0fWxpaVFP/rRj7TVVltp//3310cffdSx9euF82677bZf6vcddNBBevjhhzu+fQp53XPPPdp3332XGAPOPdhuu+1CgbMISSaT+uEPf+h03dnflb/5AQccoAsuuKBb+tt88801a9asjm+fQj719fXaYYcdFjixzqOPPqqddtrJ3edzzz13/r5c22677aY///nPX0s35O9///sdS4Fvk0QioRdffFE777yzs7MXXXTRV7rfP/7xj52Nw16j42uuuaZjy+f5KuVH+bF8P/vss/WrX/1K0Wj0a9Fs4OsBWzhp0qSOb93j+eef1w9+8ANnr7jfpSxMV19Fd/DLX/5Sp59++gLtqmfLLbfsWAoEukcIxALd5pZbbvlaC7sPPvjAOYI4iffee6+OPPJIF+Q8++yzHXsU8cawM+PKui9jdDkGR7T09/l8FpbntGnTdMUVV3R8+xSO+c1vfqNPPvlE8Xh8/jrO4z87c8w9nZ2Tdfz+rraVfpazoPWl21he0HUFvjjTp093qaGhoWPNpzz44IMusGL7F+Xjjz/W9ttv3/FN6tu3rwvECP464yc/+YlzvK+++mr9/e9/d3r3ARLOzddx3/3zmsvl3Gfg2+XnP/+5TjrpJJ111lm64YYbXGXX1ltv7bZ9mfv/4Ycf6rTTTtPJJ5/s8p0xY4ZzRruyN6UsbJ9Sx7dcP2h3s802c6k75+oOiyqfQNc0Nja6sh6tLOjvzbbS7WPHjnUVB7FY7EvptKtzdeee33///XrmmWfml+Ol+OP55Lq+qJ3r6vxUuHX1O1nPcaXH+u9s+zJ/n8C3RwjEAosNP/3pT3Xqqac6R5JCdt1119V5552nM8444zMGB2M4efJkNTU1uW5ffhufHIchfP/99926zuDY7hgq8qLA4BwsdwU1zJy7tbW1Y02RuXPnuvVs95APDi/B2Zw5cz5Xs+chuKOVrrwGjuOnTJkyv7tbKWybOHGiO6707+XhGLZ3BtsIBjo7LrBoWGWVVXTCCSd0fPuUX/ziF1phhRWcrkt1Vn4vOrs3aB2NlOqZForOqKurc07zAw88oBEjRrjz8WzB7bff7j47o62trUvdLIx58+a5VrrA4sNTTz2l++67T2uttZaWWmopV1lEAI8Wyu0Rmpk9e3bHt85BeyuvvLLTN4lAD6f5qKOO+oxm0UGpbaKLJPa1K1uMVku1w7FTp07t+FZk4403dufmuSEfErYVG9kVXfWyIO+ZM2d2fAt8Xfzf//2faznl3i6ovEF3pfZw4MCBrmK2dB1wz8rXedAv5Szby/dpbm52WunqWA+6wM7269fPPTvlcDz5oM+ueOuttz5npz0chybL/xb4DZ35B+zb3t7e8e1TuA5+L9u68isCiydh+vpAt6E2itr7r4sNN9xQTz75ZMe3IhgvJEotGMblpZdecjWvY8aMcV0bWPePf/zDOZUYucMOO8wZquWXX16vvvqqNtlkE1fzCxTsdIno37+/M1YjR4506zieWro999xzfhfDxx57zAWBa665pl577TWNGzfOtSJ0ZuD4u1ArS/B05ZVXzt9nv/3206abbqo77rhDDz30kAt2MNiHHHKIVlppJXedFEY4Rfy+3/72t67LEIZ/6NChbvtGG23kut/Ascce6653mWWW0RtvvKHx48fr17/+tTPAGHqc/NraWvdb+G3UTNOyiCN93HHHueCUvwv74ixtsMEGLt/dd9/dFUoUdN4R6ayrZeDLQ+3mpZdeqlNOOcU9Q9wztM3ffa+99nKVD++9955rWeXecq/Zz2uJ47knfGeZwOn3v/+9XnnlFXfPcHxp3cDpoJsYwVYpPBu/+93v9M9//tNpotQhoGICZwCHdpdddnHdf7gmoPsaFQxoDe3RSk2XRqAlDV17eLbWWWcd9wzy+9jOc8nzhib5rY888ojbFvh2uPPOO51u0Aca8PpCR2juX//6l3OA6WaI8zl8+HBnR6qrq/W3v/3tM8d4aP3ymgY+6S7473//W3fddZezjauuuqqzP2jn8MMP14EHHui0ih1HV1RGLLfccs7RPf/8851uBg0a5FqJ0TYtvzU1Na5yi/N7fWPXRo0a5a6d806YMEGDBw9WZWWley6wvX369HFBH9rmmcO28pvYhnONLrkubDw6xZnFJpdWoAUWHd6WEVRRdu6zzz5OV9y/bbbZxpVhlIdUtHK/6N5PCz96ovs29x4NYIveeecdDRgwwGmWPKhUoFKL4+hZw/3FfpG4p167nKeiosLpBE3ROyCVSrlt5VA+olf0ge/B9XCt+CV80prMJ89IVVWVK7/p/s3zc8wxxzh9+3J39OjRzg6jR3475TS+CGU0vSW4Rj6PPvpo95uoKMEvYdgE/gwtz1wHzxI65lnmWeFvyt+BZ4pnD1seWIIgEAsEuoM5Vh1LXw/kb8arYAbVfWeZZEbLfQL7mIGav48VwIWf/OQnbvv9999f2GKLLQoW8MzfznczbG7ZCumCOSLzz3HVVVcVzIlw2ywgcvsC2ziPGcj5+5qjXDBjPv86SvF/FzPu7tPj87NC3n2CGe2CBXkub/I1I1+wYMrle80113xmXwvaCmas3TJ/A4715+eT8/HJ791+++0LVlC5bXD66ae7/Tnu8ccfL5gz5JbB/1bOb4HtZ+4r+fm/SWDRwd+b+77HHnsUbr31Vncv+Puj3YsvvtglK7Tdvq+//rrb399rQLv+O8vmZLrjzaGcrxHg2eB+ss3jNXL88ce756Wc0n0t8Cr86U9/cuusQC/stttu7lggH/TJJ/ot1Q0ccsghTsNwwgknFMzRcsscP23aNKcrn1fg2+GUU04pHHXUUfNtgYf7zf3k3qItNMU99my00UafO8bTmb3YcccdC3/5y19cvmy/9tpr5x9vTvhnNIudwz6xrwWCbn+/L3phG/phO+uxay+88ILbjp4vvfRSd91XX3210xz7wRVXXFEwJ9Z9v/DCCws/+tGP3H7w0EMPuWtg29lnn+3sJbAd7Xb2nAS+OhZou/sH3FN/D7ivfPJ9ypQp7r6jv0MPPdTdN6Ac23TTTefbn1KbCOgX2wnYLeysBTju+6mnnlo466yz3PLee+9duPzyy90y57zssssKhx9+uPveGaXlutctx3Fu9GbBmVsHnJ9rZDuU6pzfVGozsfHomH1J5IM/wH78PXgOvJ8AvjxnO+t4LrD/LJOvBaXumkj++QksGXy2aisQWADU+nydkL8ZEffJwFxqrUjUVgItTqZZ142GfcwAufEu1DSxTG0YXR6oyfTXSk0UY9uAWjbGoFErxna60fj9Svnvf//rzkPLBDVu5M93WhOYdIEaPBKtVx5q4KgNo7UBbrvtNg0bNsytN2Pq1gF9zWklo2WPWmRq0agB87+HWi7gOGqEgXNT60Xe1HhRm0iNG7Vo/Ba2sUzrmWfFFVd0ebLNnCCtv/76skJCL7/8squxo/aPc3CdtESyDOTHPTBD7r4HFg38XblH1Pxff/31bh1/Z7r8/exnP3O1vx7uN1oop1yrfOe+sT9wjK/xBWpx0SuftMT6Z6sc1vk8PORrjrS7NjTEdvYzJ8C1mvjWgvLjgHU8G9TeAvvSFZJrC60M3y5ohHvAPS3F39tS/ZSOM6T1AC6++OL59u/mm29267jf5gi6ljESy6uvvrp23XXX+Xozp9Odk/MzmYc50a4VjkTLP+dCn5wfO+01xyd5oB8++c5+vuW+FM6LbaOHA/qla6SfeIYeDlzPm2++6ewgLX3eznEc5Q2ttZzfHHM3OUNg0UNPDFovuT/cA6A1nnvuoYUTjaIJerPQYu/x9oPWf8rKUr2WQk8TysC3337b2SK64VKuA2UorbTogDKeFjS6yNIyWg4tyLSa+fIRn4FeC2iKc9Mrx9s5KG+JovWMVl3Ket8rxufFJ/4JeZH4rfgC/EZv//3v5fooP/BF+E1ew3fffbfbDrSUcU3+OQksOYRALNBtfHelrwvvJFAAr7HGGq4LAskbLrqMUHh6I4PBYX+CCtYR8PjgxVPa3Y5Cl2M8pU5k6TLjWjBof/rTn3TTTTe5AG/ZZZd1ASCByx//+EeXuEbguilILrzwQhf0AMHf5Zdf7taz3efPcRT8dI3BkHqDW055AcN+dF+jmyLL/E5+C8v8Ls7jj/EOjP/O2C/GTHBNJLozUEhxDA66d5I9rA+GfNGDPocMGeIcDLpAUTgTvIPXOJRq1FOqz3K62nbjjTfOv9/cY85NF6/uwrPlnSWuiUQ3QxyLzq7RwzPKb/QVER7vVAS+Pehi+u67737O7hAM8cyX3i/gO/rCPnAMXbO8/aP7IrAeJ5MKIhLLONxdgR3nGgjkSH/4wx9c10XsTme6Yn0pndknjqPLNl0h//e//7kJbLbeemvnvAK/g+viXD5hvznue9/7nrsOKsmo+CNIDHw98Pfmb0+3RLrocx+ZtKP0vpfaM7rbob3SdXwn0KLbYen60jzQCBrFBlJmP/fcc26YAfujBewi2yjfGQ6x2mqruUrR0gpI9kUXBGJcK5ValKO+Wyzbuf4F2TW6RzIzLfDsce0cw7Fcr+8OyXfOw7NEOVFaHrMfldCch4oFrpm/IfacbrcefrPPN7Bk8VlvLxBYABjPrxOMDy093sCVGhU+CR483pGghtMXtmxnZiNqnTgWaHmiFgsDS/5sK3VCvOH1+4M/D7W/tLgxDougigKac3EMqdzg4QhQq0btFdfPWAXy9UaV82LYccAZe0OtMcHdwuA81Lxx7dTGUeuME0G+3uklb+9EsT/r/e8kiKQQoDWG38Mn45XYjwIIx4W8/N+AYwOLHv6+3CvGDlIrfNVVV+mSSy5x20o1yb1AP143ULqdfPy98voq3V4OeQFjuBgP4UFPgBYp2MvhWv/zn/+4c/j8qbFdb7313HKp4+y3++tCQ08//fT8c0OpkxP4dqBHADaqVFuATWC8Vun9KmdB27oLesFO0gqBDeK8/jlgG/bVa4jvXl+l+OAQSj9p+eCTsb2MtWGsI61ggMOLzjmfT5wT55YyBCecdQRjjLfB6Q4sWvj70orFfWes1znnnONaRxc0ERBlE4FJqQ64x7RwMfaK9V4DXi/og2PQAS2bnJeynATYLVqfuP8kKlC9HS4NqsiDxHby4pP8OAeVUdg4lmmF9bbN21TAD+B4KnK32morNwbSP3ccx/G+rOU3oEPO7yuWS2FMOefgOmix9RpmPHAp5BtY8giBWGCxgSCBRHdAb1wJgjBKGBicPVoQMKLe8TvxxBPdgG2g5onB3rQ2sP8TTzzhCnYG22J8CUYwXN4YMvmGN3j+fEATPwaScwMGkOPo0kAXHY7pzCnhGGrAGIzua4tLHR5vJH2rGV0MmAikOxDUcU4MO3nyW/kbsI5rp+bQz5bHelpB+M2A8abrDQUe63CmGfxLgeUHE9NSQj44Ir6ACSxa+JuScPL835vB236bB51yD+muiPaovS11EMrvDfn456Ez/P6+Ne7ggw9238mTLls45uWOJzrB6SBAw7lAc9Qwcx660wDrmGAG0CWTjQCapEsjjoKvHKAlhXxKn7PANwv3gh4CTH5BQMYEBtwPuqBic7F3/n75++RtCJTr7ovi88QBpzIKR5V12FVaogB9LozOroN1tFRQ2QBok25c2E00SzlBKx3lAb+R7m708OD5onLr+OOPn1+hR28FWnMDixZaSym76XrIJBU+oQHKJ09payrlHJNycM+8frjXVEaiTQI1vtPF0Ac12B+66VPuez3TUsq52ZeeJXvssYe792ynzOMc5TCDMwEQWvDXyuQZnJtyk/MwkQavBCFfro9lD70QsLGUt2iQ31Jqx7l+JuXgOLZjM8nb/05+jz+W55ZjyYNrZhta57kNLPmEQCyw2EArD44dRo4xBYwNI1DBUAKGj9mNKCip3fQ1lwQ/wKxaBDmMX6D7HzVvjOsCCmZmK6L5n9opWrf8zGAYPvL2RhKjSqFBawBdXHbccUf3SVcIv53k4Vjy8IaVPDHQHrazP44oXQvoN861UwvHtVKYAMdxnR5fiAAzSTHWh5m/+G20ZLEvzi95040Sh5pt5I2zzXqui+5k1DrzegACMK7tuuuuc9fFNdPaR944Q8zM5MeDBBYd1HJyL/w9JSjCGfDruVfe6UWH3D9q83Ea6IbDvWYfCmX2w4ngOJwa7hfPitcOn2ipFK8FxhTQ8oEO0AqzfNJ6gBY85M/+tFxQ8PN84SAw9sY/T0AXGdaxDR0zY6KHdRzHc8qYSD6pRCHfwLeDv8fYSO4JGsDOMgMnwRi6YR+CIbQCXjesL7VHpfjuVV1BHhzPJwnHlpndmF0Tm7P33nvPf30C5yhtVfCgew95+H3Y3+eN40zvB7SHfaecwOYD33khLzpE99hpbCZaZx8qstjGseRF2RFYdBBQcJ+oBAD+xh7KYe4NOsOu0aWUMpp7wfhl7CDHst3rEmhNY3wW+1FZ5Y8HuvCTD3aRe4+d4hzo6IgjjnAVq1RGYF8ZB0albDmMwyIo9H6BPzfaobKX79hpniGul/Mxc7G31dhlgn3sPNvwb9ArFQTA8QRuHMt10nOFSmV/Hp4NfjuVqlR0YXsJOPFFuG661NKyHFjyCdPXBxY7vCQxZizziQHDwJEohHEWMKp89/v4T7+eT76XHs+yz5sae7oD+MkTOJ59/LIv5FkGnFsK7tJ9yMdv9/hzLAgKDAx86TlKj/PnLz0f8JtY72uO/fH+00MNL3nQqlH6d+C8fJbuC+zrf0fp+QJfnfJ76+G+kPy98PcJ/CfrSu+Hv0fl+bHe64VtnZ3P458fKL+20vP5PNGpX1++f/n3UkrzYhkWdm2Bb47S++sp1xvb+c56dFq+HdgHym2Kp1SXntJ1C9KQp3QfrsFfD/aMz9Lj/TXivPogkfP59aXX2dm5u3M9ge7D39PT2d+19O9NJSItm2iS+4edYpvfp3RfgiEqKIF7y7FUcvp1Hn+Mv/+leXi6Wgf+vH4ZSvdHg6XltC/bS2F/1nu7C1wvlczksyBfoJSunht/bGDJJARigW5DTSIDnr9JFmSUPN3ZB6gJo0uYf/8ItcCk0gGvpZBvad7l5+jueX0B8EUgbx/4decc1CpijKmhe+GFF1wrB7PbQbmB5nrIszv5Br46nemEdZ7ecB962+9dUumuTVuc8NpaVNe9JP4Negq01DJ7ZXeCClqMaBmiFZRutdw3epx80bJ2QXgteI1BuTa+rP5okf7rX//6uRbloL/eRwjEAt2GJn4m01hSIQBhPAJjXRicTfBSXkNazsIM8NdpML9owMRLHul6xrgIP7FKV3mEYOzbYUF66qnwm0t/96J0lAIBr61gy5Z8mJaeykTKp4XZCe473fUo99Zff33X9a+0xemb4svqj+6Ufsw6eQT99l5CIBboNrx7g8H9PY0vawSD8QwEAoFAYMnDu76hDA9824SqyUCvJxjiQCAQCASWHEIbQqCnEAKxQK/jmzLgjNkKBLoL3XFKE3zdWg3OTGBhdKYRbFvQTuDbhMkveMUHfBktUgG7sEpYb4cDga+T0DUx0G16StdEpmovNbBMf8vLP8tnOloYPDoLM+RMr8+08Uw12xn+8QutcgFmC2PcgIcXgB5yyCHu/TVfhc50ynTSTKvMGIuvMttWd56BwJIPLyH3MAb1u9/9rnuVBtpZ1GP+0CXThpe+wP/LELTZc2GaeF5tw+toeKXNV+Hxxx93r+Ior/zi9Rv+heCBwNdJaBELdBuCsJ7QyjNlyhQ3mQVTvJP4XRjdL1r7VV7I87fhHR+8SNr/nZjVifeDlEJNHjA9L2D4SaEFrXczc+ZMN5kMmuTlnrzHi/fMMBPYV2XWrFluli5Aa7zTC80vLAhjX54Lr9nO8I5LoOfyySefuJcio00qrZgmnHcffZFAx9tX/w4wrxveo+RfBg7MzutfdL4gurKXfn3QZc+FWY+ZcbA0CCsPpLqC7aWJafB5wTfvLz322GPdu7xIm2yySccRXx5/jkBgQYRALNBtMChfpfZ8cYHfwRvzV155ZZd4YSK1ukzN/0WMJgFdqTPA3wYnA+eEaedxXnl5Mm/FL4X9MPy0wLEvBQhOOC/u7ez8U6dOddsCPRv0gH7WXnttp0teksxLannh7IIqCco1g2Mxbdq0jm/FCoPW1laXB3rlOxqkpbb82Lq6Ones1zX7fvjhh522FlORwIxlvGbhizw3gSUTpglnZrr11ltPN954o9NTaQC1MLCx2MzyFjTyKS1XaAXuTG+cywdxgA3tzC56+8oL7gM9E8pWWsNKQVfYLlr7uwrSJ06c2LH0Kdg4Zltcc801nd1dffXVXaLcLrW75It+vwjkjY3simA3AxC6JgZ6HUzD/6c//cl1sQEeAWplmTaX2l5aDnjRoueMM85w7/o488wzdeGFF+qjjz5yxnXIkCHOMO+99946/PDD3XT4FATDhw93zgBT8ZIXNcm8fZ838uO84tgOGjRIc+fO1QEHHKDrrrvO1QDPnj3bHXfHHXe4QmXevHnOGV966aVdS0lLS4sefPDBjqsK9DR4rQIvF+f9b2iSQhyt0ZWWd+vceuutriXizjvv7Dii+C4duheyL8v+ZaY4DUB3R15c/vzzz7tWDXSGE42emDqZ7UD3XBgxYoQ7J/pbfvnlXSUATjFa9O/cw8mhRZk8aO1999133Tmo3Ch3sgM9A1qpeDdh6XsNsZmnnHKKe/cTy2jJ3380S8BGiy52D10+99xzzuYSPKEfujZic9EY9nCFFVbQ2Wef7c515ZVXOj1hj/v37+/e/8i5Ca5otbj44ou11FJLuQqsoUOHzu/Si6NNBQOtyR988IFr+eV5KQ/2AksulLPYMrSEZk4//XS9/PLLOvnkk51988GSLyv/8Y9/6Nprr3V2i0SFK5VHXg/YzyuuuMLpu7MKALQ9bNgwV0lFRQC2mX3RFHaTV/qwDu2j3dtuu83pmXL/jTfecMHdm2++qfHjx+tXv/qVW6bFjevwgR62m+vkmvzzFeg9hFIz0Ot55ZVXnIHGMYCF1U1QwON03HzzzS7x7i6gnzk1dbw4GmfXQ97k6Y0uBhinG0PNfhjyP/zhD66rBft6ZwZH+Te/+Y1++9vfum0Y6HvvvddtC/RccBK8Bo466ijXCsG6zijXKnrB8cQJQW+vvvqqc1ypQMDJ8LrsrBULhwQNo22cXgKxv/3tb7rrrru0zjrrOCcZfdKVl0oEnBEcC7TLmI3gQPR8uMfo6umnn3a2bkHdt9iPhNbefvttpy+cVLrdUuFAXugRHV5wwQU655xzPqchjsUJRtPokIqpSy65xFVMEHyh8+nTp88/F7YX28oLftEnzjMBYAjCeg6Uudxr7v9pp53mlqks5TuVmmgCe0WQD2iKSkwqsdAEeivXA3lcffXVrkLJJ/A2kkpYukFS/rLvk08+6fKggvaFF15w9pr1nIsAcdKkSXrrrbecLaXSgIpdWmlfeuml+UMVmGiE4wjAKioqQhDWiwmBWKDbUCPfE8DgYaRpraK2CyN7++23O2OI4S13Ulku/U4XHW8wqZX1RhhwYEv3Bbo9sD/5jh07tmOtXI0vx/ljcZQpMMjPFxQYawJFjD1ODwFZoGfDOENabaklXX/99Z1T4FsivFY8/rvXl2/lBbbRkoWeSKW6LNcpx7MPoD1qfjm/h6CMFls0isPCs4MucSxoGQPyWNBYssCSDXrYeuutXSvAWWed5YIjNNcVaMzDZEVoB82hpdLjyu1lKWzDcfV5eZvptYrm2IdPWsvQLS0itDrQSoJDHiqvejbYJe57aQ8X9EmADugF7ZF8sFOuOfahXKdL4lprreUSoFO20cIKvlymIgpoEb7sssvcPlQu+OMY7kBLGOv9MbSWUamKP0BL3qWXXuqu45prrnEVboHeSwjEAt0G49ITwBBT808tFbW0GFtqXcEX8KVgLMsNtwcjS3fDzo7rzPn1RrkU9uOagM9SJ4OJGqjhJTHhAt0eAz0bakhpNe3Xr59zLgluSOjB68RT+r3cKUZvOAIk9luQ0wze2WVfdErrV/n5gMoBHF1qoEl0wcVBRus4O4GeCZqkhp8uqsAYGu53ZxpBc1+EzvKAUvtJnnzHke0MHHK2+S6+2E40j83kuNK8Aj0HykUCMa8h7jm6ZFxsKd4OdgXDB6jsZHZoEmATOYb8PazzZfsGG2zgutpyTiomaNUFronZbkv9ggEDBsy/VmYFffbZZ51d57o233zzBV5boGcTArFAt+kphgLD5x0FjCq1XQwQ9wU1v7O00MbIdubE+v1K/y4sl35nuz9XZ3l0Bsf4dNFFF7lE7dnll1+u888/v2OvQE+FwptECzTdqnxtbqmuPKUFfTl+/3KNeli/ILrazlgHWjXocoMmf/nLX7rEORaWZ2DJxd9bKghITCRDsA7YNq9F7F1XOuhMhwT9nVVQgbedHs7h7TfnKD0PvQ3a2tqcLtHjueee61or6K4YtNlz4TUfpcE5WqKiiB4upXh9ooVSHaILvhMU+YqkUm2hbfIsXec/gfGPdAEnD69jJlx68cUX3TKw/7///W995zvfcfv4SrZnnnnGjbstvZ5A7yMEYoFeBwa5NChinAvdWTCM3rG46qqr3CdQc7UgQ4lhxTFgH/qM+y4RXwZ/beRFDRpjIggWWUdtG/3cA70DCu9x48a5sYIsU/vqu8QA4yJojfXa7EqjrCeho1IHopyujofSbXT7YayFH5vDwHm63XTVghboeTDWy4+N4b6jK8YKAt1hfZfYrijVIZphAqNSvqxOcWqPPPLI+VpkUgTeExW02bOh3GXSDg/3nYmwvi7QJ3oiEfTTRZF3jvEdrf34xz/WjBkz3NhI9mVSGcaNnXTSSfOPZ3/GRjLOLdC7CYFYoNtgZBZUQC5J+JorwHAyJofZD4FBuXTBoXvCjjvu6MZE4MQCf4PyrjG+qwJQA8sYGo7xhX+pQ+IDQP6OXAPbfe0ucIy/NsatjRo1yo3L4H1kdGlg/FCgZ4IGcCjQBAkdMJsXY7BwbOli5bvPoMt1113XaZF9ObY80CrVJd1kqIVF50DenAu9cQyfJA/HeW2y3n8nkRez2uFscB08N2i19JkK9BzQR6mtArRFqyizGrKNbll0WSQgZ6ZExsCwD8dA6dhBrze/jZYrKpn85Aoc58/jzwtoEL2zrtSmesiX6+B4Jl6iuxcz2/K8BG32LNAEXQ/55L4zDpBgh3IXG0cPFyox0RFaKa14LYfj0QzvxWPMOIkylwALyo9Hu6Xf0RjXwczJfHqt3XHHHW6iJHTILKG8hoRz+WtmNlGWmTY/0LsJ09cHug0GhdmqMB5LMhhSbyy9oS6ntJtC+TLHYoj59I9P+d/E78d28uc8JH9efxz5eIfFOx/AMezj8+3qPIGeQ2nAU0pn9xx9+fVeU1CuZ5+n1yB4bUFXeip9RjysK9Uqn6wjr/LKiUDPo9QeleLXowlSuW5K7Wc5/thSPVLh5PXkx/5wfKn+wB/DeraXXh/LpNJtpc9FYMmmXGssexuHBso14r93hteN39fj1/Hp8wVf9oPfjs5YV5qX//SUHkd+9LShNw6ty4HeTQjEAt2GaWN5h0dPwBtKb8C/COWPjDfQ5fj9Otvut/nr8J/gP0vXQfn3QGBhoBlSucYXhZbIA4ImA1+G7upnYVoNOgx4OtPKwvSzMBaVvkqvgwmZ6DlDC25NTY1bF+i9hCqiQLfZb7/9OpaWfLxB/KrG9atSfh3f9vUEeh6daSroLLCkELQa+CosbvohIGPcIu+6q66u7lgb6M2EFrFAtymt0ekp9MTfFAiUEjQeCAQCix/BNgcgBGKBQCAQCAQCgUAg8A0TuiYGAoFAIBAIBAKBwDdMCMQCgUAgEAgEAoFA4BtF+n/l9rxOQPKCJQAAAABJRU5ErkJggg==;" vertex="1" parent="1">
          <mxGeometry x="-342" y="830.99986328125" width="866" height="465" as="geometry" />
        </mxCell>
      </root>
    </mxGraphModel>
  </diagram>
</mxfile>
